<svg xmlns="http://www.w3.org/2000/svg" width="37.21" height="37.359" viewBox="931.395 1006 37.21 37.359"><g data-name="Multiple Layers (5)"><g data-name="XMLID_92_"><path d="M967.004 1036.658h-34.008c-.883 0-1.599.716-1.599 1.6v2.72a2.38 2.38 0 0 0 2.38 2.381h32.445a2.38 2.38 0 0 0 2.383-2.38v-2.722a1.599 1.599 0 0 0-1.601-1.599Z" fill="#fff" fill-rule="evenodd" data-name="XMLID_94_"/><path d="M940.038 1035.248c.584 0 1.058-.474 1.058-1.058v-12.784a1.058 1.058 0 0 0-1.058-1.06h-4.585c-.584 0-1.058.474-1.058 1.058v12.786c0 .584.474 1.058 1.058 1.058h4.585Z" fill="#fff" fill-rule="evenodd" data-name="XMLID_102_"/><path d="M952.292 1035.248c.585 0 1.058-.474 1.058-1.058v-12.784a1.058 1.058 0 0 0-1.058-1.06h-4.585c-.584 0-1.058.474-1.058 1.058v12.786c0 .584.474 1.058 1.058 1.058h4.585Z" fill="#fff" fill-rule="evenodd" data-name="XMLID_103_"/><path d="M964.547 1035.248c.584 0 1.058-.474 1.058-1.058v-12.784a1.058 1.058 0 0 0-1.058-1.06h-4.585c-.584 0-1.058.474-1.058 1.058v12.786c0 .584.474 1.058 1.058 1.058h4.585Z" fill="#fff" fill-rule="evenodd" data-name="XMLID_104_"/><path d="m967.01 1011.59-14.932-5.236a6.276 6.276 0 0 0-4.157 0l-14.932 5.236a2.38 2.38 0 0 0-1.594 2.246v3.414c0 .883.716 1.599 1.599 1.599h34.008c.883 0 1.599-.716 1.599-1.6v-3.413a2.378 2.378 0 0 0-1.59-2.246Z" fill="#fff" fill-rule="evenodd" data-name="XMLID_108_"/></g><path d="M967.004 1036.658h-34.008c-.883 0-1.599.716-1.599 1.6v2.72a2.38 2.38 0 0 0 2.38 2.381h32.445a2.38 2.38 0 0 0 2.383-2.38v-2.722a1.599 1.599 0 0 0-1.601-1.599Z" fill="#fff" fill-rule="evenodd" data-name="XMLID_94_"/><path d="M940.038 1035.248c.584 0 1.058-.474 1.058-1.058v-12.784a1.058 1.058 0 0 0-1.058-1.06h-4.585c-.584 0-1.058.474-1.058 1.058v12.786c0 .584.474 1.058 1.058 1.058h4.585Z" fill="#fff" fill-rule="evenodd" data-name="XMLID_102_"/><path d="M952.292 1035.248c.585 0 1.058-.474 1.058-1.058v-12.784a1.058 1.058 0 0 0-1.058-1.06h-4.585c-.584 0-1.058.474-1.058 1.058v12.786c0 .584.474 1.058 1.058 1.058h4.585Z" fill="#fff" fill-rule="evenodd" data-name="XMLID_103_"/><path d="m967.01 1011.59-14.932-5.236a6.276 6.276 0 0 0-4.157 0l-14.932 5.236a2.38 2.38 0 0 0-1.594 2.246v3.414c0 .883.716 1.599 1.599 1.599h34.008c.883 0 1.599-.716 1.599-1.6v-3.413a2.378 2.378 0 0 0-1.59-2.246Z" fill="#fff" fill-rule="evenodd" data-name="XMLID_108_"/></g></svg>