<svg xmlns="http://www.w3.org/2000/svg" width="50.002" height="50" viewBox="839 3660.001 50.002 50"><path d="M864.002 3710.001a24.933 24.933 0 0 1-17.679-7.323A24.916 24.916 0 0 1 839 3685c0-3.375.661-6.648 1.965-9.73a24.913 24.913 0 0 1 5.358-7.948 24.922 24.922 0 0 1 17.68-7.322 24.917 24.917 0 0 1 17.678 7.322 24.92 24.92 0 0 1 7.321 17.678 24.92 24.92 0 0 1-7.322 17.677 24.928 24.928 0 0 1-17.678 7.323Zm3.547-18.934 6.036 6.037c.334.335.782.521 1.26.521.725 0 1.37-.433 1.645-1.1a1.777 1.777 0 0 0-.385-1.944l-6.037-6.034a9.875 9.875 0 0 0-1.806-13.265 9.94 9.94 0 0 0-6.353-2.302 9.865 9.865 0 0 0-7.02 2.906 9.873 9.873 0 0 0-.603 13.372 9.904 9.904 0 0 0 7.627 3.57c2.021 0 3.97-.61 5.635-1.76Zm-5.638-1.804a6.323 6.323 0 0 1-2.429-.485 6.36 6.36 0 0 1-3.795-7.102 6.362 6.362 0 0 1 6.228-5.112h.01c1.695 0 3.285.662 4.478 1.862a6.361 6.361 0 0 1 1.83 3.866 6.344 6.344 0 0 1-6.321 6.97Z" fill="#95c12b" fill-rule="evenodd" data-name="Subtraction 389"/></svg>