<svg xmlns="http://www.w3.org/2000/svg" width="34.501" height="34.5" viewBox="462.5 2016.127 34.501 34.5"><g data-name="approved-signal"><path d="m494.688 2024.752-4.003-2.312-2.31-4.002h-4.622l-4.003-2.312-4.004 2.312h-4.621l-2.312 4.003-4.002 2.31v4.623l-2.311 4.003 2.31 4.003v4.622l4.004 2.311 2.311 4.003h4.622l4.003 2.31 4.003-2.31h4.622l2.311-4.004 4.003-2.31v-4.623l2.311-4.003-2.31-4.003v-4.621h-.002Zm-16.495 15.685a1.612 1.612 0 0 1-1.168.472 1.612 1.612 0 0 1-1.167-.472l-5.045-5.045a1.619 1.619 0 0 1 0-2.29l1.336-1.335a1.619 1.619 0 0 1 2.289 0l2.587 2.588 8.036-8.036a1.619 1.619 0 0 1 2.29 0l1.335 1.335a1.619 1.619 0 0 1 0 2.29l-10.493 10.493Z" fill-rule="evenodd" data-name="Path 1981"/></g></svg>