<svg xmlns="http://www.w3.org/2000/svg" width="51.769" height="51.753" viewBox="463 7216.624 51.769 51.753"><g data-name="path0"><path d="M486.964 7220.032v2.907l-.341.065c-.188.036-.592.1-.9.144-7.97 1.116-14.781 7.7-16.446 15.885l-.277 1.361-2.716.062-2.716.062-.034 2.452-.034 2.452h2.737c2.084 0 2.747.037 2.78.156.023.086.136.681.25 1.315a20.241 20.241 0 0 0 17.262 16.053l.372.038.033 2.946.033 2.947h4.832l.033-3 .033-3 1.117-.23a20.068 20.068 0 0 0 13.958-10.756 20.817 20.817 0 0 0 1.945-6.19l.053-.279h6.33l-.033-2.452-.034-2.456-3.132-.033c-3.128-.033-3.132-.033-3.191-.31-.032-.153-.141-.7-.241-1.211a20.336 20.336 0 0 0-16.367-15.817l-.466-.077v-5.943h-4.84v2.909m4.112 7.261c5.5.76 10.203 4.342 12.4 9.442 5.348 12.413-6.418 25.372-19.336 21.291a15.831 15.831 0 0 1-5.29-27.228 16.037 16.037 0 0 1 12.218-3.5m-4.1 5.97a9.9 9.9 0 0 0-4.453 17.36c7.165 5.8 17.717-.7 15.807-9.747a10.041 10.041 0 0 0-11.35-7.613" fill="#fff" fill-rule="evenodd"/><path d="M486.964 7220.032v2.907l-.341.065c-.188.036-.592.1-.9.144-7.97 1.116-14.781 7.7-16.446 15.885l-.277 1.361-2.716.062-2.716.062-.034 2.452-.034 2.452h2.737c2.084 0 2.747.037 2.78.156.023.086.136.681.25 1.315a20.241 20.241 0 0 0 17.262 16.053l.372.038.033 2.946.033 2.947h4.832l.033-3 .033-3 1.117-.23a20.068 20.068 0 0 0 13.958-10.756 20.817 20.817 0 0 0 1.945-6.19l.053-.279h6.33l-.033-2.452-.034-2.456-3.132-.033c-3.128-.033-3.132-.033-3.191-.31-.032-.153-.141-.7-.241-1.211a20.336 20.336 0 0 0-16.367-15.817l-.466-.077v-5.943h-4.84v2.909m4.112 7.261c5.5.76 10.203 4.342 12.4 9.442 5.348 12.413-6.418 25.372-19.336 21.291a15.831 15.831 0 0 1-5.29-27.228 16.037 16.037 0 0 1 12.218-3.5m-4.1 5.97a9.9 9.9 0 0 0-4.453 17.36c7.165 5.8 17.717-.7 15.807-9.747a10.041 10.041 0 0 0-11.35-7.613" stroke-linejoin="round" stroke-linecap="round" stroke="rgba(0,0,0,0 )" fill="transparent"/></g></svg>