<svg xmlns="http://www.w3.org/2000/svg" width="30" height="30" viewBox="120.751 1958.463 30 30"><path d="M137.89 1959.062c0 .634.526.995 1.462.995.454 0 .369.186-.466 1.004-1.54 1.508-1.307 2.316.703 2.443 2.071.131 2.873-.118 2.873-.895 0-.686-1.131-1.184-1.77-.781-.205.13.11-.33.698-1.02 1.694-1.99 1.508-2.346-1.214-2.346-2.05 0-2.286.062-2.286.604M122 1962.12c-1.274.597-1.248.362-1.248 13.918v12.424l2.214-.093 2.214-.094.143-1.591.142-1.592h20.574l.142 1.592.143 1.591 2.214.094 2.214.093v-7.003c0-8.38-.33-9.45-2.712-8.781-.446.125-.713.065-.713-.158 0-1.455-14.618-2.56-17.53-1.324-.535.226-.747.19-.861-.143-.254-.739-1.9-1.513-2.793-1.313l-.818.183v-2.941c-.006-4.258-1.12-5.891-3.314-4.862m11.105-.26c-.583.262-.408 1.382.26 1.658l.617.255-.643.502c-1.217.95-.668 1.678 1.266 1.678 1.84 0 2.615-.824 1.29-1.37l-.609-.252.589-.597c.7-.707.765-1.627.135-1.896a6.21 6.21 0 0 0-2.906.018m-9.504 2.104c0 .218.036 5.457.072 11.638l.064 11.241h-1.57v-11.426c0-6.285.088-11.523.19-11.638.329-.368 1.238-.231 1.248.186m4.654 1.392a.73.73 0 0 0 .012.483.628.628 0 0 0 .303.343c.466.291.466.33 0 .711-.923.753-.29 1.453 1.312 1.453 1.569 0 2.236-.696 1.354-1.418-.413-.337-.413-.398.004-.696a.681.681 0 0 0 .28-.373.772.772 0 0 0-.007-.487c-.26-.757-2.997-.773-3.256-.02m-.519 7.46c0 1.337-.666 1.866-1.693 1.344a1.33 1.33 0 0 1-.55-.505 1.572 1.572 0 0 1-.055-1.528 1.37 1.37 0 0 1 .511-.554c1.07-.443 1.783.056 1.783 1.247m17.98.18c.336.374.446 1.164.446 3.112v2.61l-1.357.067c-1.313.065-2.061.077-4.787.077h-4.568c-2.743 0-3.476-.012-4.715-.079l-1.287-.07.055-2.702c.043-2.159.154-2.785.554-3.11.815-.665 15.054-.58 15.658.093m3.592 7.63v6.219h-1.57l.06-5.82c.033-3.2.065-5.999.071-6.218.006-.218.333-.397.727-.397h.713v6.218m-21.43-2.871c0 2.499.857 3.452 2.398 2.668a1.788 1.788 0 0 1 1.802.126c.359.212.758.324 1.164.328.405.003.806-.102 1.167-.308.354-.203.746-.31 1.143-.31.398 0 .79.107 1.143.31.354.203.746.31 1.144.31.397 0 .79-.107 1.143-.31s.745-.31 1.143-.31c.397 0 .79.107 1.143.31.356.204.751.31 1.152.308.4 0 .795-.108 1.15-.314 1.809-.682 2.597-.23 2.597 1.492v1.28H125.32v-7.334h2.571v1.754" fill-rule="evenodd" data-name="Path 8375"/></svg>