<?xml version="1.0" encoding="UTF-8"?>
<svg xmlns="http://www.w3.org/2000/svg" id="Layer_1" data-name="Layer 1" viewBox="0 0 24 24">
  <path d="m4.5,12c-.276,0-.5-.224-.5-.5s.224-.5.5-.5h1c.276,0,.5.224.5.5s-.224.5-.5.5h-1Zm5,0c.276,0,.5-.224.5-.5s-.224-.5-.5-.5h-1c-.276,0-.5.224-.5.5s.224.5.5.5h1Zm3,4.5c0-.276-.224-.5-.5-.5h-5c-.276,0-.5.224-.5.5s.224.5.5.5h2v6.5c0,.276.224.5.5.5s.5-.224.5-.5v-6.5h2c.276,0,.5-.224.5-.5Zm-6,6.5h-2c-1.93,0-3.5-1.57-3.5-3.5V4.5c0-1.93,1.57-3.5,3.5-3.5h13c1.93,0,3.5,1.57,3.5,3.5v9c0,.276.224.5.5.5s.5-.224.5-.5V4.5c0-2.481-2.019-4.5-4.5-4.5H4.5C2.019,0,0,2.019,0,4.5v15c0,2.481,2.019,4.5,4.5,4.5h2c.276,0,.5-.224.5-.5s-.224-.5-.5-.5Zm11-12h-1c-.276,0-.5.224-.5.5s.224.5.5.5h1c.276,0,.5-.224.5-.5s-.224-.5-.5-.5Zm.5-5.5v1c0,.827-.673,1.5-1.5,1.5H5.5c-.827,0-1.5-.673-1.5-1.5v-1c0-.827.673-1.5,1.5-1.5h11c.827,0,1.5.673,1.5,1.5Zm-1,0c0-.276-.225-.5-.5-.5H5.5c-.275,0-.5.224-.5.5v1c0,.276.225.5.5.5h11c.275,0,.5-.224.5-.5v-1Zm5.076,14.5l1.858-3.252c.137-.24.054-.545-.187-.682-.237-.138-.544-.056-.683.186l-1.565,2.74-1.565-2.74c-.139-.242-.446-.324-.683-.186-.24.137-.323.442-.187.682l1.858,3.252-1.858,3.252c-.137.24-.054.545.187.682.078.045.163.066.248.066.173,0,.342-.09.435-.252l1.565-2.74,1.565,2.74c.093.162.262.252.435.252.085,0,.17-.021.248-.066.24-.137.323-.442.187-.682l-1.858-3.252Zm-5.76-2.962l1.667,6.334c.07.267-.112.627-.483.627-.222,0-.425-.148-.483-.373l-.428-1.627h-3.177l-.428,1.627c-.07.267-.346.426-.61.356-.268-.07-.427-.344-.356-.611l1.667-6.334c.16-.607.688-1.015,1.316-1.015s1.156.408,1.316,1.015Zm.009,3.962l-.976-3.707c-.066-.25-.284-.27-.35-.27s-.283.019-.35.27l-.976,3.707h2.65Zm-2.825-9c.276,0,.5-.224.5-.5s-.224-.5-.5-.5h-1c-.276,0-.5.224-.5.5s.224.5.5.5h1Z"/>
</svg>
