<svg xmlns="http://www.w3.org/2000/svg" width="34.974" height="34.974" viewBox="462 1563.626 34.974 34.974"><g data-name="cancel"><path d="M479.487 1563.626c-9.611 0-17.487 7.876-17.487 17.487 0 9.611 7.876 17.487 17.487 17.487 9.61 0 17.487-7.876 17.487-17.487 0-9.61-7.876-17.487-17.487-17.487Zm-11.476 24.209a13.118 13.118 0 0 1-1.844-6.722c0-7.316 5.902-13.3 13.279-13.32 2.48 0 4.775.676 6.762 1.844.595.349.718 1.127.246 1.62l-16.824 16.824c-.492.47-1.27.348-1.619-.246Zm11.517 6.598c-2.48 0-4.775-.676-6.763-1.844-.594-.348-.717-1.148-.225-1.619l16.804-16.804c.471-.492 1.27-.369 1.619.226a13.119 13.119 0 0 1 1.844 6.721c0 7.357-5.943 13.3-13.279 13.32Z" fill-rule="evenodd" data-name="Path 3218"/></g></svg>