<svg width="30" height="35" viewBox="0 0 30 35" fill="none" xmlns="http://www.w3.org/2000/svg">
<path d="M25.144 34.196H4.317C3.16992 34.1928 2.071 33.7345 1.26157 32.9217C0.45215 32.1089 -0.00159008 31.0081 4.18706e-06 29.861C-3.61503e-05 29.6306 0.0180194 29.4006 0.0540042 29.173L1.274 13.73C1.3404 12.6304 1.82344 11.5974 2.62475 10.8414C3.42605 10.0854 4.48538 9.66332 5.587 9.661H6.745C6.64923 9.1556 6.60069 8.64239 6.6 8.128C6.6 5.97232 7.45634 3.90493 8.98064 2.38064C10.5049 0.85634 12.5723 0 14.728 0C16.8837 0 18.9511 0.85634 20.4754 2.38064C21.9997 3.90493 22.856 5.97232 22.856 8.128C22.8573 8.64221 22.8108 9.15542 22.717 9.661H23.874C24.9791 9.66268 26.0416 10.0873 26.8435 10.8477C27.6453 11.6081 28.1257 12.6466 28.186 13.75L29.408 29.18C29.4441 29.4086 29.4621 29.6396 29.462 29.871C29.462 31.0169 29.0077 32.116 28.1987 32.9275C27.3896 33.7389 26.2919 34.1966 25.146 34.2L25.144 34.196ZM21.081 13.735C20.7789 13.7346 20.4834 13.8239 20.232 13.9914C19.9806 14.159 19.7846 14.3974 19.6687 14.6765C19.5529 14.9555 19.5224 15.2627 19.5812 15.559C19.6399 15.8554 19.7853 16.1277 19.9989 16.3414C20.2125 16.5551 20.4846 16.7007 20.781 16.7596C21.0773 16.8186 21.3845 16.7883 21.6636 16.6727C21.9427 16.557 22.1812 16.3611 22.349 16.1098C22.5168 15.8585 22.6062 15.5631 22.606 15.261C22.6057 14.8565 22.445 14.4687 22.1591 14.1826C21.8732 13.8965 21.4855 13.7355 21.081 13.735ZM8.381 13.735C8.07882 13.7344 7.78326 13.8235 7.53173 13.991C7.2802 14.1584 7.08401 14.3968 6.96801 14.6758C6.852 14.9548 6.82139 15.262 6.88005 15.5584C6.93871 15.8549 7.08401 16.1272 7.29754 16.341C7.51108 16.5549 7.78325 16.7005 8.07961 16.7596C8.37597 16.8186 8.68318 16.7884 8.96236 16.6728C9.24154 16.5571 9.48013 16.3612 9.64793 16.1099C9.81574 15.8586 9.9052 15.5632 9.905 15.261C9.90474 14.8567 9.74415 14.469 9.45846 14.183C9.17277 13.8969 8.7853 13.7358 8.381 13.735ZM14.731 2.78C13.3152 2.7845 11.959 3.35021 10.9597 4.3531C9.96035 5.35599 9.39947 6.71422 9.4 8.13V9.661H20.065V8.128C20.0655 6.7117 19.5042 5.35302 18.5043 4.35004C17.5043 3.34707 16.1473 2.78171 14.731 2.778V2.78Z" fill="white"/>
</svg>
