<svg xmlns="http://www.w3.org/2000/svg" width="40.882" height="42.691" viewBox="583.559 2833.518 40.882 42.691"><path d="M622.93 2854.83c0-2.135 2.007-4.61 1.356-6.597-.657-2.007-3.751-2.818-4.994-4.526-1.23-1.69-1.045-4.887-2.774-6.138-1.67-1.209-4.634-.05-6.7-.718-2.066-.667-3.794-3.333-5.854-3.333-2.134 0-3.854 2.705-5.84 3.356-2.007.658-4.989-.497-6.696.745-1.69 1.23-1.508 4.414-2.76 6.147-1.208 1.666-4.305 2.474-4.974 4.537-.67 2.064 1.375 4.532 1.378 6.593 0 2.134-2.007 4.61-1.357 6.597.658 2.006 3.752 2.813 4.995 4.52 1.23 1.691 1.044 4.888 2.774 6.14 1.67 1.208 4.634.05 6.7.717 2.066.668 3.792 3.338 5.853 3.338 2.134 0 3.854-2.704 5.84-3.356 2.007-.657 4.989.498 6.696-.744 1.69-1.23 1.508-4.415 2.76-6.148 1.208-1.67 4.306-2.476 4.974-4.54.668-2.065-1.375-4.529-1.377-6.59Zm-9.578-3.91-10.546 9.887a3.522 3.522 0 0 1-4.945-.139l-3.284-3.447a1.71 1.71 0 0 1 2.476-2.356l3.284 3.447a.085.085 0 0 0 .135 0l10.542-9.887a1.708 1.708 0 1 1 2.337 2.491Z" fill="#fff" fill-rule="evenodd" data-name="XMLID_50_"/></svg>