<svg xmlns="http://www.w3.org/2000/svg" width="214" height="169.549" viewBox="-2330.5 -122.375 214 169.549"><g data-name="Multiple Layers (21)"><path d="m-2199.082 28.53-5.711 5.259 4.539-7.616c-3.576-6.485-9.425-12.09-9.425-12.09s-12.133 11.625-12.133 20.763c0 9.138 5.432 12.329 12.133 12.329 6.701 0 12.134-3.19 12.134-12.329 0-2.034-.602-4.19-1.537-6.315Z" fill="#f2f2f2" fill-rule="evenodd" data-name="Path 46653"/><path d="M-2206.262 34.073v.45c-.027 5.236-.91 9.321-2.643 12.198-.024.042-.05.082-.075.125l-.194-.119-.185-.116c1.922-3.106 2.602-7.496 2.626-12.063.002-.147.005-.296.002-.446a60.8 60.8 0 0 0-.314-5.788 89.231 89.231 0 0 0-1.16-7.867c-.67-3.519-1.355-6.067-1.511-6.632-.018-.069-.03-.107-.031-.116l.211-.06.003-.002.214-.06c.002.009.04.136.102.372.239.883.859 3.28 1.467 6.442l.083.437c.317 1.688.626 3.575.872 5.555.062.497.118.988.167 1.471a60.702 60.702 0 0 1 .366 6.219Z" fill="#fff" fill-rule="evenodd" data-name="Path 46654"/><path d="M-2207.75 20.39c-.149.02-.3.041-.454.057-.418.043-.838.064-1.258.064a11.967 11.967 0 0 1-5.173-1.168l-.283.357c1.7.83 3.565 1.26 5.456 1.257a12.725 12.725 0 0 0 1.795-.13 12.304 12.304 0 0 0 3.557-1.076l-.281-.361a11.926 11.926 0 0 1-3.358 1Z" fill="#fff" fill-rule="evenodd" data-name="Path 46655"/><path d="M-2330.5-91.005a29.27 29.27 0 1 1 0 .1z" fill="#e4e4e4" fill-rule="evenodd" data-name="Ellipse 1980"/><path d="M-2325.622-91.005a24.392 24.392 0 1 1 0 .1z" fill="#95c12b" fill-rule="evenodd" data-name="Ellipse 1981"/><path d="M-2252.77-91.005a29.27 29.27 0 1 1 0 .1z" fill="#e4e4e4" fill-rule="evenodd" data-name="Ellipse 1982"/><path d="M-2247.892-91.005a24.392 24.392 0 1 1 0 .1z" fill="#fff" fill-rule="evenodd" data-name="Ellipse 1983"/><path d="M-2175.041-91.005a29.27 29.27 0 1 1 0 .1z" fill="#e4e4e4" fill-rule="evenodd" data-name="Ellipse 1984"/><path d="M-2170.163-91.005a24.392 24.392 0 1 1 0 .1z" fill="#fff" fill-rule="evenodd" data-name="Ellipse 1985"/><path d="M-2303.302-82.084a2.682 2.682 0 0 1-2.117-1.035l-3.741-4.81a2.684 2.684 0 0 1 .47-3.762l.134-.105a2.684 2.684 0 0 1 3.762.47 2.384 2.384 0 0 0 3.613.176l7.597-8.02a2.68 2.68 0 0 1 3.79-.102l.124.117a2.68 2.68 0 0 1 .102 3.79l-11.789 12.444a2.678 2.678 0 0 1-1.945.837Z" fill="#fff" fill-rule="evenodd" data-name="Path 46658"/><path d="M-2236.347-96.832h-19.266v-16.755a3.92 3.92 0 0 1 3.983-3.845h6.404c4.896 0 8.88 3.845 8.88 8.57v12.03Z" fill="#2f2e41" fill-rule="evenodd" data-name="Path 46659"/><path d="m-2258.509-69.959-2.386 15.215 22.672.298-2.983-14.618-17.303-.895Z" fill="#ffb6b6" fill-rule="evenodd" data-name="Path 46664"/><path d="m-2260.237-58.459-7.222 19.228-.895 79.684h6.116l14.618-64.022 13.425 62.35h5.966l-4.176-70.106s1.231-14.071-5.072-22.375l-1.534-4.432-21.226-.327Z" fill="#2f2e41" fill-rule="evenodd" data-name="Path 46665"/><path d="M-2229.263-43.47a4.476 4.476 0 0 1-2.867-6.235l-9.646-31.446 7.095-1.406 8.822 30.824a4.5 4.5 0 0 1-3.404 8.263Z" fill="#ffb6b6" fill-rule="evenodd" data-name="Path 46666"/><path d="m-2242.027-61.556-15.63-.302a2.043 2.043 0 0 1-1.936-1.539c-.838-3.317-2.681-11.962-1.703-20.573a12.557 12.557 0 0 1 14.272-10.985 12.563 12.563 0 0 1 10.37 15.627c-1.967 7.471-3.078 12.816-3.302 15.886a2.034 2.034 0 0 1-2.027 1.886h-.044Z" fill="#e4e4e4" fill-rule="evenodd" data-name="Path 46667"/><path d="M-2289.501-89.178c.093.21.17.428.23.65l19.563 6.648 3.78-3.302 5.73 5.054-6.124 6.496a3.333 3.333 0 0 1-3.941.682l-20.934-10.693a4.373 4.373 0 1 1 1.696-5.535Z" fill="#ffb6b6" fill-rule="evenodd" data-name="Path 46668"/><path d="M-2269.667-82.94a1.873 1.873 0 0 1 .659-1.415l7.163-6.102a5.207 5.207 0 1 1 7.863 6.828l-5.101 7.943a1.875 1.875 0 0 1-2.811.399l-7.132-6.23a1.873 1.873 0 0 1-.641-1.423Z" fill="#e4e4e4" fill-rule="evenodd" data-name="Path 46669"/><path d="M-2242.208-73.186a1.873 1.873 0 0 1-.953-1.236l-2.118-9.168a5.207 5.207 0 0 1 9.681-3.836l4.702 8.186a1.875 1.875 0 0 1-.94 2.678l-8.813 3.463c-.507.2-1.076.168-1.559-.087Z" fill="#e4e4e4" fill-rule="evenodd" data-name="Path 46670"/><path d="M-2240.118-114.513a4.447 3.336 23.13 1 1 .092.04z" fill="#2f2e41" fill-rule="evenodd" data-name="Ellipse 1986"/><path d="M-2254.1-99.62a9.122 9.122 0 1 1 .088.047z" fill="#ffb6b6" fill-rule="evenodd" data-name="Ellipse 1987"/><path d="M-2244.633-118.024h-10.433a3.031 3.031 0 0 0-3.06 2.766 2.964 2.964 0 0 0 2.958 3.162 2.964 2.964 0 0 1 2.964 2.963v12.153h16.302v-12.313a8.73 8.73 0 0 0-8.731-8.731Z" fill="#2f2e41" fill-rule="evenodd" data-name="Path 46671"/></g></svg>