<svg xmlns="http://www.w3.org/2000/svg" width="50.002" height="50" viewBox="814.285 7217.124 50.002 50"><path d="M839.288 7267.123a24.933 24.933 0 0 1-17.679-7.323 24.916 24.916 0 0 1-7.324-17.677 24.913 24.913 0 0 1 7.323-17.678 24.922 24.922 0 0 1 17.68-7.322 24.917 24.917 0 0 1 17.678 7.322 24.92 24.92 0 0 1 7.322 17.678 24.92 24.92 0 0 1-7.322 17.677 24.928 24.928 0 0 1-17.678 7.323Zm-6.358-17.713a3.956 3.956 0 0 0 2.859 1.207 4.003 4.003 0 0 0 2.699-1.052l12.167-11.98a2.003 2.003 0 0 0 .104-2.825 2.004 2.004 0 0 0-2.828-.105l-12.142 11.958-4.565-4.728a1.989 1.989 0 0 0-1.439-.61c-.52 0-1.014.2-1.39.562a2.005 2.005 0 0 0-.046 2.828l4.584 4.744-.003.001Z" fill="#fff" fill-rule="evenodd" data-name="Subtraction 399"/></svg>