<svg xmlns="http://www.w3.org/2000/svg" width="44.553" height="37.875" viewBox="577.724 8621.563 44.553 37.875"><g data-name="Grupo 121"><path d="M600.005 8640.086c4.211 0 7.627-4.146 7.627-9.262 0-5.115-1.12-9.262-7.627-9.262-6.506 0-7.627 4.147-7.627 9.262 0 5.116 3.416 9.262 7.627 9.262Z" fill="#fff" fill-rule="evenodd" data-name="Caminho 14501"/><path d="M614.391 8653.854c-.138-8.91-1.305-11.45-10.21-13.057a6.257 6.257 0 0 1-8.35 0c-8.809 1.59-10.044 4.09-10.205 12.768-.014.708-.02.745-.022.662v.936s2.12 4.274 14.401 4.274c12.281 0 14.4-4.272 14.4-4.272v-.694a5.593 5.593 0 0 1-.013-.617Z" fill="#fff" fill-rule="evenodd" data-name="Caminho 14502"/><path d="M610.587 8638.431c3.424 0 6.191-3.368 6.191-7.522 0-4.155-.91-7.523-6.19-7.523a8.831 8.831 0 0 0-2.313.278 15.182 15.182 0 0 1 1.384 7.162 12.7 12.7 0 0 1-1.902 6.778 5.305 5.305 0 0 0 2.83.827Z" fill="#fff" fill-rule="evenodd" data-name="Caminho 14503"/><path d="M622.271 8649.614c-.115-7.237-1.06-9.299-8.292-10.604a4.336 4.336 0 0 1-3.392 1.298c-.099 0-.193 0-.287-.008a9.515 9.515 0 0 1 3.883 3.012c1.748 2.395 2.148 5.609 2.23 10.336 4.867-.96 5.863-2.968 5.863-2.968v-.565a4.316 4.316 0 0 1-.005-.501Z" fill="#fff" fill-rule="evenodd" data-name="Caminho 14504"/><path d="M589.422 8638.431a5.307 5.307 0 0 0 2.826-.831 12.7 12.7 0 0 1-1.903-6.779 15.183 15.183 0 0 1 1.384-7.162 8.828 8.828 0 0 0-2.311-.277c-5.284 0-6.192 3.368-6.192 7.522 0 4.155 2.776 7.527 6.196 7.527Z" fill="#fff" fill-rule="evenodd" data-name="Caminho 14505"/><path d="M589.709 8640.303c-.093 0-.189.007-.287.007a4.337 4.337 0 0 1-3.392-1.298c-7.233 1.301-8.182 3.363-8.293 10.602.005.167 0 .334-.013.5v.565s.997 2.008 5.862 2.969c.083-4.726.484-7.94 2.231-10.337a9.514 9.514 0 0 1 3.891-3.011Z" fill="#fff" fill-rule="evenodd" data-name="Caminho 14506"/></g></svg>