<svg xmlns="http://www.w3.org/2000/svg" width="34.77" height="23.18" viewBox="462 1840.626 34.77 23.18"><g data-name="credit-card"><g data-name="Group 4644"><g data-name="Group 4643"><path d="M496.045 1849.319h-33.32c-.435 0-.725.29-.725.724v10.141a3.587 3.587 0 0 0 3.622 3.622h27.526a3.587 3.587 0 0 0 3.621-3.622v-10.14c0-.436-.29-.725-.724-.725Zm-28.974 5.795h5.794c.435 0 .725.29.725.724 0 .435-.29.724-.725.724h-5.794c-.435 0-.725-.29-.725-.724 0-.435.29-.724.725-.724Zm10.14 4.346h-10.14c-.435 0-.725-.29-.725-.725 0-.434.29-.724.725-.724h10.14c.435 0 .725.29.725.724 0 .435-.29.725-.724.725Zm12.315 0c-.58 0-1.014-.145-1.449-.435-.435.29-.87.435-1.449.435a2.906 2.906 0 0 1-2.897-2.898 2.906 2.906 0 0 1 2.897-2.897c.58 0 1.014.145 1.45.435.434-.29.868-.435 1.448-.435a2.906 2.906 0 0 1 2.897 2.897 2.906 2.906 0 0 1-2.897 2.898Z" fill-rule="evenodd" data-name="Path 3230"/></g></g><g data-name="Group 4646"><g data-name="Group 4645"><path d="M493.148 1840.626h-27.526a3.587 3.587 0 0 0-3.622 3.622v1.449c0 .435.29.724.724.724h33.321c.435 0 .725-.29.725-.724v-1.449a3.587 3.587 0 0 0-3.622-3.622Z" fill-rule="evenodd" data-name="Path 3231"/></g></g></g></svg>