<svg xmlns="http://www.w3.org/2000/svg" width="71.103" height="70.888" viewBox="321.897 2715.007 71.103 70.888"><g data-name="Group 8054"><g data-name="Group 8094"><g data-name="Group 8093" transform="translate(321.891 2715)" clip-path="url(&quot;#a&quot;)"><path d="M35.554 70.895c-1.802 0-3.308-1.459-4.771-2.869-1.141-1.101-2.216-2.136-3.327-2.433-1.183-.314-2.743.073-4.261.442-1.93.478-3.928.975-5.421.115-1.517-.877-2.088-2.868-2.641-4.793-.424-1.476-.862-3.007-1.705-3.848-.838-.842-2.374-1.277-3.855-1.701-1.93-.551-3.928-1.119-4.808-2.632-.862-1.489-.37-3.48.109-5.404.377-1.507.765-3.069.45-4.243-.298-1.113-1.342-2.184-2.441-3.316C1.469 38.755.006 37.248.006 35.451c0-1.798 1.463-3.305 2.877-4.757 1.099-1.138 2.143-2.209 2.441-3.322.315-1.174-.073-2.736-.45-4.242-.479-1.925-.971-3.916-.109-5.404.88-1.513 2.878-2.082 4.808-2.633 1.481-.423 3.017-.859 3.855-1.7.843-.842 1.281-2.367 1.705-3.849.553-1.925 1.124-3.916 2.641-4.793 1.493-.859 3.491-.363 5.421.115 1.518.375 3.078.762 4.261.448 1.111-.297 2.186-1.338 3.327-2.439 1.463-1.41 2.969-2.868 4.771-2.868 1.803 0 3.315 1.458 4.778 2.868 1.135 1.101 2.216 2.142 3.326 2.439 1.184.314 2.744-.073 4.256-.448 1.936-.478 3.933-.974 5.421-.115 1.523.877 2.094 2.868 2.646 4.793.425 1.482.862 3.007 1.7 3.849.844.841 2.38 1.277 3.861 1.7 1.93.551 3.928 1.12 4.808 2.633.862 1.488.37 3.479-.11 5.404-.376 1.506-.764 3.068-.449 4.242.298 1.113 1.336 2.184 2.441 3.322 1.414 1.452 2.877 2.959 2.877 4.757 0 1.797-1.463 3.304-2.877 4.762-1.105 1.132-2.143 2.203-2.441 3.316-.315 1.174.073 2.736.449 4.243.48 1.924.972 3.915.11 5.404-.88 1.513-2.878 2.081-4.808 2.632-1.481.424-3.017.859-3.861 1.701-.838.841-1.275 2.366-1.7 3.848-.552 1.925-1.123 3.916-2.646 4.793-1.488.86-3.485.363-5.421-.115-1.512-.375-3.072-.762-4.256-.442-1.11.297-2.191 1.332-3.326 2.433-1.463 1.41-2.975 2.869-4.778 2.869m-9.087-6.294a4.53 4.53 0 0 1 1.214.145c1.336.351 2.544 1.519 3.715 2.651 1.336 1.289 2.714 2.62 4.158 2.62 1.451 0 2.829-1.331 4.165-2.62 1.171-1.132 2.379-2.3 3.715-2.651 1.396-.375 3.071.037 4.692.442 1.846.454 3.588.884 4.772.2 1.208-.696 1.73-2.518 2.234-4.273.455-1.585.928-3.225 1.93-4.224 1.002-1.004 2.647-1.47 4.237-1.924 1.767-.502 3.588-1.023 4.292-2.227.68-1.186.249-2.917-.206-4.757-.401-1.615-.82-3.286-.444-4.684.359-1.331 1.53-2.535 2.659-3.697 1.293-1.331 2.629-2.711 2.629-4.151 0-1.441-1.336-2.82-2.629-4.152-1.129-1.162-2.3-2.366-2.659-3.697-.376-1.398.043-3.068.444-4.684.455-1.834.886-3.571.206-4.751-.704-1.21-2.525-1.73-4.292-2.233-1.59-.454-3.235-.92-4.237-1.924-1.002-.999-1.475-2.639-1.93-4.224-.504-1.755-1.026-3.577-2.234-4.272-1.184-.684-2.926-.255-4.772.199-1.621.406-3.296.817-4.692.448-1.336-.357-2.544-1.525-3.715-2.651C38.383 2.221 37.005.884 35.554.884c-1.444 0-2.822 1.337-4.158 2.626-1.171 1.126-2.379 2.294-3.715 2.651-1.396.369-3.072-.042-4.692-.448-1.846-.454-3.588-.883-4.772-.199-1.214.695-1.73 2.517-2.234 4.272-.455 1.585-.928 3.225-1.93 4.224-1.008 1.004-2.647 1.47-4.237 1.924-1.767.503-3.588 1.023-4.292 2.233-.686 1.18-.249 2.911.206 4.751.401 1.616.82 3.286.444 4.684-.359 1.331-1.53 2.535-2.659 3.697C2.222 32.631.886 34.01.886 35.451c0 1.44 1.336 2.82 2.629 4.151 1.129 1.162 2.3 2.366 2.659 3.697.376 1.398-.043 3.069-.444 4.684-.455 1.84-.892 3.571-.206 4.751.704 1.21 2.525 1.731 4.292 2.233 1.59.454 3.229.92 4.237 1.924 1.002.999 1.475 2.639 1.93 4.224.504 1.755 1.02 3.577 2.234 4.273 1.184.684 2.926.254 4.772-.2 1.171-.29 2.373-.587 3.478-.587" fill="#231f20" fill-rule="evenodd" data-name="Path 8951"/></g></g><g data-name="Group 8096"><g data-name="Group 8095" transform="translate(321.891 2715)" clip-path="url(&quot;#b&quot;)"><path d="M10.666 45.998a2.227 2.227 0 0 1-1.748-.176 2.466 2.466 0 0 1-1.117-1.446 2.417 2.417 0 0 1-.11-1.374c.104-.459.322-.853.662-1.18a3.72 3.72 0 0 1 1.342-.823l.564-.193c.51-.2 1.044-.273 1.597-.23.485.036.916.206 1.299.502.382.315.655.702.813 1.168.237.593.249 1.186.031 1.779-.261.587-.68.999-1.269 1.241l-.37-1.029c.352-.139.613-.375.795-.708.121-.333.115-.66-.03-.986-.128-.442-.419-.727-.862-.86-.419-.127-.947-.078-1.591.145l-.528.188c-.65.23-1.099.52-1.36.871a1.15 1.15 0 0 0-.146 1.193c.098.351.298.623.601.823.346.151.699.169 1.057.06l.37 1.035Z" fill="#231f20" fill-rule="evenodd" data-name="Path 8952"/><path d="m13.306 49.805-.668-1.029-2.058 1.313-.595-.926 5.349-3.419 1.208 1.876c.394.617.558 1.18.497 1.689a1.657 1.657 0 0 1-.88 1.27 1.754 1.754 0 0 1-1.062.315 1.921 1.921 0 0 1-1.02-.363l-1.457 2.62-.049.031-.637-.993 1.372-2.384Zm.085-1.507.607.95c.164.285.401.478.71.581a.944.944 0 0 0 .82-.151.988.988 0 0 0 .504-.666 1.181 1.181 0 0 0-.225-.883l-.625-.981-1.791 1.15Z" fill="#231f20" fill-rule="evenodd" data-name="Path 8953"/><path d="m22.011 53.841-2.95 3.038a1.967 1.967 0 0 1-1.585.702 2.757 2.757 0 0 1-1.651-.775 2.754 2.754 0 0 1-.837-1.615 1.989 1.989 0 0 1 .661-1.604l2.95-3.038.79.762-2.957 3.044a1.319 1.319 0 0 0-.443.92c.018.369.17.666.449.902.613.587 1.227.563 1.852-.079l2.926-3.019.795.762Z" fill="#231f20" fill-rule="evenodd" data-name="Path 8954"/><path d="m24.664 59.602-2.246-1.313-.99 1.682 2.635 1.537-.449.757-3.582-2.094 3.205-5.465 3.558 2.076-.449.769-2.605-1.519-.886 1.506 2.252 1.314-.443.75Z" fill="#231f20" fill-rule="evenodd" data-name="Path 8955"/><path d="m27.48 62.78 2.763.81-.25.847-3.823-1.125 1.797-6.076 1.062.314-1.548 5.23Z" fill="#231f20" fill-rule="evenodd" data-name="Path 8956"/><path d="m36.635 59.572-1.973-.121-.34 5.434-1.093-.066.34-5.435-1.96-.121.054-.883 5.027.308-.055.884Z" fill="#231f20" fill-rule="evenodd" data-name="Path 8957"/><path d="m40.502 61.012.777-3.244 1.19-.266-1.208 4.369.51 2.276-1.087.236-.504-2.276-2.95-3.443 1.196-.26 2.076 2.608Z" fill="#231f20" fill-rule="evenodd" data-name="Path 8958"/><path d="m50.986 56.806-2.12 1.422 1.507 2.221-.917.617-3.545-5.252 3.345-2.246.498.733-2.428 1.634 1.05 1.561 2.124-1.422.486.732Z" fill="#231f20" fill-rule="evenodd" data-name="Path 8959"/><path d="m54.634 53.732-.843.889 1.778 1.67-.753.799-4.625-4.339 1.53-1.622c.503-.532 1.007-.829 1.517-.895a1.677 1.677 0 0 1 1.451.544c.291.255.48.575.565.951.072.369.036.726-.104 1.077l2.902.768.042.043-.807.859-2.653-.744Zm-1.493.284.777-.823c.243-.224.37-.502.395-.829a.905.905 0 0 0-.346-.75 1.01 1.01 0 0 0-.771-.333 1.16 1.16 0 0 0-.802.435l-.801.842 1.548 1.458Z" fill="#231f20" fill-rule="evenodd" data-name="Path 8960"/><path d="m59.035 46.924-1.342 2.227 1.676 1.005 1.566-2.609.753.454-2.131 3.546-5.445-3.255 2.118-3.522.759.453-1.548 2.585 1.506.895 1.341-2.227.747.448Z" fill="#231f20" fill-rule="evenodd" data-name="Path 8961"/><path d="m61.3 41.193-.857 2.457 1.852.641.995-2.874.832.284-1.36 3.916-5.998-2.07 1.348-3.885.838.29-.984 2.845 1.658.57.85-2.458.825.284Z" fill="#231f20" fill-rule="evenodd" data-name="Path 8962"/><path d="M13.58 23.795c.509.242.856.629 1.037 1.156a2.15 2.15 0 0 1-.134 1.61 2.14 2.14 0 0 1-.745.968 2.11 2.11 0 0 1-1.148.375 3.222 3.222 0 0 1-1.366-.26l-.486-.2a3.248 3.248 0 0 1-1.184-.805 2.055 2.055 0 0 1-.552-1.101 2.278 2.278 0 0 1 .17-1.253c.194-.526.547-.92 1.045-1.18a2.064 2.064 0 0 1 1.577-.06l-.382.895a1.36 1.36 0 0 0-.941-.012 1.149 1.149 0 0 0-.57.666c-.177.369-.165.726.049 1.077.284.405.661.684 1.128.853l.455.188c.45.224.917.302 1.415.242.4-.079.674-.309.813-.696.146-.284.177-.587.097-.896a1.334 1.334 0 0 0-.655-.671l.377-.896Z" fill="#231f20" fill-rule="evenodd" data-name="Path 8963"/><path d="m15.48 20.407-.65.877 1.737 1.283-.583.787-4.523-3.347 1.184-1.585c.382-.521.801-.835 1.244-.944.498-.109.941 0 1.336.326.279.2.48.46.595.781.097.321.103.635.018.956l2.635.381.042.031-.625.841-2.41-.387Zm-1.287.405.601-.805c.188-.218.273-.478.261-.762a.834.834 0 0 0-.382-.63.884.884 0 0 0-.717-.212 1.062 1.062 0 0 0-.661.466l-.614.823 1.512 1.12Z" fill="#231f20" fill-rule="evenodd" data-name="Path 8964"/><path d="m18.921 12.188 2.404 2.887c.376.411.534.895.467 1.452a2.452 2.452 0 0 1-.843 1.38 2.476 2.476 0 0 1-1.512.581 1.742 1.742 0 0 1-1.348-.739l-2.404-2.88.747-.617 2.41 2.886c.188.26.449.424.771.478.322.018.601-.084.838-.308.576-.478.613-1.023.103-1.634l-2.386-2.863.753-.623Z" fill="#231f20" fill-rule="evenodd" data-name="Path 8965"/><path d="m25.648 12.006-2.064 1.03.77 1.542 2.417-1.204.352.696-3.296 1.64-2.513-5.017 3.272-1.628.352.702-2.398 1.192.698 1.386 2.064-1.029.346.69Z" fill="#231f20" fill-rule="evenodd" data-name="Path 8966"/><path d="m29.12 12.666 2.477-.629.194.756-3.424.865-1.39-5.434.947-.242 1.196 4.684Z" fill="#231f20" fill-rule="evenodd" data-name="Path 8967"/><path d="m36.046 7.661-1.748.11.297 4.816-.965.06-.304-4.817-1.736.11-.048-.787 4.455-.273.05.781Z" fill="#231f20" fill-rule="evenodd" data-name="Path 8968"/><path d="m39.95 9.991 1.724-2.402 1.068.181-2.458 3.177-.353 2.033-.965-.163.346-2.033-1.263-3.813 1.069.182.832 2.838Z" fill="#231f20" fill-rule="evenodd" data-name="Path 8969"/><path d="m49.256 14.137-1.98-1.095-1.158 2.08-.857-.471 2.725-4.907 3.133 1.724-.383.69-2.276-1.253-.807 1.459 1.979 1.095-.376.678Z" fill="#231f20" fill-rule="evenodd" data-name="Path 8970"/><path d="m52.412 16.884-.813-.72-1.445 1.61-.728-.654 3.751-4.181 1.475 1.313c.48.435.759.877.832 1.325.061.502-.085.938-.449 1.295-.225.26-.498.436-.838.52a1.702 1.702 0 0 1-.953-.066l-.619 2.578-.037.036-.777-.696.601-2.36Zm-.291-1.307.753.666c.206.205.449.314.74.333a.835.835 0 0 0 .662-.327.867.867 0 0 0 .273-.69 1.005 1.005 0 0 0-.4-.696l-.771-.69-1.257 1.404Z" fill="#231f20" fill-rule="evenodd" data-name="Path 8971"/><path d="m57.28 22.107-1.334-1.882-1.415.998 1.566 2.197-.637.454-2.131-2.995 4.589-3.244 2.113 2.97-.637.455-1.548-2.172-1.27.895 1.336 1.876-.631.448Z" fill="#231f20" fill-rule="evenodd" data-name="Path 8972"/><path d="m59.654 27.069-.898-2.124-1.597.672 1.05 2.48-.716.303-1.433-3.376 5.184-2.185 1.421 3.353-.729.308-1.038-2.457-1.432.605.898 2.124-.71.297Z" fill="#231f20" fill-rule="evenodd" data-name="Path 8973"/><path d="M35.555 56.365a21.259 21.259 0 0 1-8.025-1.592 20.72 20.72 0 0 1-3.624-1.936 20.807 20.807 0 0 1-5.791-5.767 20.943 20.943 0 0 1-3.133-7.541 20.883 20.883 0 0 1-.4-4.078c0-1.374.133-2.736.4-4.079.273-1.35.667-2.657 1.195-3.921a20.907 20.907 0 0 1 1.938-3.619 20.993 20.993 0 0 1 2.61-3.165 20.38 20.38 0 0 1 3.181-2.602 20.305 20.305 0 0 1 3.624-1.931 20.902 20.902 0 0 1 8.025-1.591 20.914 20.914 0 0 1 8.03 1.591 20.547 20.547 0 0 1 3.624 1.931A20.993 20.993 0 0 1 53 23.832a20.907 20.907 0 0 1 1.938 3.619 20.81 20.81 0 0 1-.007 16 21.114 21.114 0 0 1-4.547 6.778 20.828 20.828 0 0 1-3.181 2.602 20.756 20.756 0 0 1-3.624 1.936 21.46 21.46 0 0 1-3.933 1.192c-1.347.267-2.714.4-4.091.406m0-40.951a20.271 20.271 0 0 0-7.691 1.525 20.958 20.958 0 0 0-3.473 1.852 19.975 19.975 0 0 0-5.542 5.531 19.77 19.77 0 0 0-1.857 3.461 20.28 20.28 0 0 0-1.148 3.758 20.135 20.135 0 0 0 0 7.819c.26 1.289.644 2.542 1.148 3.758a19.602 19.602 0 0 0 1.857 3.462 20.041 20.041 0 0 0 9.015 7.382c1.219.503 2.476.884 3.775 1.138a19.81 19.81 0 0 0 3.916.387 19.82 19.82 0 0 0 3.92-.387c1.3-.254 2.556-.635 3.77-1.138a19.968 19.968 0 0 0 6.52-4.345 19.986 19.986 0 0 0 2.501-3.037 19.937 19.937 0 0 0 2.999-7.22 19.6 19.6 0 0 0 .388-3.909 20.11 20.11 0 0 0-.388-3.91 20.155 20.155 0 0 0-1.147-3.752 19.628 19.628 0 0 0-1.858-3.461 20.053 20.053 0 0 0-5.542-5.525 20.36 20.36 0 0 0-3.473-1.858 20.119 20.119 0 0 0-3.77-1.138 20.287 20.287 0 0 0-3.92-.393" fill="#231f20" fill-rule="evenodd" data-name="Path 8974"/><path d="M40.574 45.75a3.288 3.288 0 0 1-1.845-.557l-.576-.375a4.662 4.662 0 0 0-2.598-.775c-.942 0-1.81.261-2.599.775l-.571.375a3.273 3.273 0 0 1-1.809.551 3.283 3.283 0 0 1-1.82-.502 3.304 3.304 0 0 1-1.256-1.404 3.28 3.28 0 0 1-.305-1.858l.212-1.695c.263-2.093 1.197-3.83 2.805-5.204a8.1 8.1 0 0 1 1.852-1.192 8.01 8.01 0 0 1 2.106-.66 8.136 8.136 0 0 1 2.205-.078 8.222 8.222 0 0 1 2.147.508 8.085 8.085 0 0 1 1.931 1.065 8.183 8.183 0 0 1 3.255 5.561l.211 1.695c.055.472.012.944-.127 1.404-.146.46-.376.865-.699 1.228a3.283 3.283 0 0 1-1.135.841 3.378 3.378 0 0 1-1.384.297m-5.019-2.584c1.122 0 2.148.309 3.084.92l.576.375c.4.266.849.399 1.335.405.48.007.929-.114 1.342-.369.413-.26.722-.605.928-1.041.208-.435.286-.889.225-1.373l-.212-1.689A7.166 7.166 0 0 0 41.34 36.8a7.176 7.176 0 0 0-3.139-2.324 7.267 7.267 0 0 0-3.885-.387 7.22 7.22 0 0 0-3.532 1.658c-1.44 1.222-2.271 2.771-2.502 4.647l-.213 1.689c-.061.484.012.938.226 1.373.205.436.515.781.928 1.041.412.255.863.376 1.342.369a2.44 2.44 0 0 0 1.335-.405l.576-.375a5.519 5.519 0 0 1 3.079-.92" fill="#231f20" fill-rule="evenodd" data-name="Path 8975"/><path d="M39.057 32.158c-.237 0-.473-.03-.704-.096-1.578-.454-2.428-2.324-1.894-4.176.534-1.846 2.252-2.983 3.824-2.536.844.255 1.433.787 1.761 1.598.358.841.4 1.701.139 2.572-.455 1.579-1.766 2.638-3.126 2.638m.516-6.033c-.971 0-1.924.811-2.27 2.003-.395 1.386.182 2.772 1.293 3.086 1.111.321 2.343-.55 2.737-1.936a2.813 2.813 0 0 0-.097-1.979c-.218-.557-.619-.926-1.196-1.107a1.712 1.712 0 0 0-.467-.067" fill="#231f20" fill-rule="evenodd" data-name="Path 8976"/><path d="M44.059 35.717a2.104 2.104 0 0 1-1.396-.49c-.547-.46-.814-1.047-.796-1.761a3.08 3.08 0 0 1 .729-1.943 3.108 3.108 0 0 1 1.772-1.083c.334-.079.668-.079.996 0a2.181 2.181 0 0 1 1.493 1.228c.14.309.207.636.194.975a3.079 3.079 0 0 1-.728 1.942 3.076 3.076 0 0 1-1.773 1.083 2.628 2.628 0 0 1-.491.049m.795-4.448a1.83 1.83 0 0 0-.316.03 2.27 2.27 0 0 0-1.262.781c-.334.405-.51.865-.528 1.386-.013.205.024.405.103.599.085.193.206.357.37.484.164.133.346.224.552.272.201.043.407.043.608-.012a2.21 2.21 0 0 0 1.262-.78c.334-.4.51-.866.528-1.386a1.323 1.323 0 0 0-.473-1.084 1.272 1.272 0 0 0-.844-.29" fill="#231f20" fill-rule="evenodd" data-name="Path 8977"/><path d="M32.052 32.158c-1.354 0-2.665-1.059-3.12-2.638a3.685 3.685 0 0 1 .139-2.572c.328-.811.917-1.343 1.761-1.598 1.578-.453 3.29.684 3.824 2.536.534 1.852-.316 3.722-1.894 4.176a2.566 2.566 0 0 1-.71.096m-.51-6.033c-.158 0-.316.024-.467.067-.577.181-.978.55-1.196 1.107a2.813 2.813 0 0 0-.097 1.979c.394 1.386 1.626 2.257 2.737 1.936 1.111-.314 1.688-1.7 1.293-3.086-.346-1.192-1.305-2.003-2.27-2.003" fill="#231f20" fill-rule="evenodd" data-name="Path 8978"/><path d="M27.056 35.717c-.164 0-.328-.018-.491-.049a2.952 2.952 0 0 1-1.773-1.083c-.996-1.198-.965-2.856.067-3.703.558-.448 1.183-.593 1.888-.442a2.998 2.998 0 0 1 1.772 1.083c.99 1.198.959 2.863-.067 3.704a2.104 2.104 0 0 1-1.396.49m-.795-4.448a1.272 1.272 0 0 0-.844.29c-.655.539-.631 1.647.049 2.47.328.411.753.671 1.268.78a1.32 1.32 0 0 0 1.16-.26c.656-.533.631-1.646-.055-2.469a2.123 2.123 0 0 0-1.262-.781 1.887 1.887 0 0 0-.316-.03" fill="#231f20" fill-rule="evenodd" data-name="Path 8979"/></g></g></g><defs><clipPath id="a"><path d="M0 0h71.097v70.876H0V0z" data-name="Rectangle 3606"/></clipPath><clipPath id="b"><path d="M0 0h71.109v70.894H0V0z" data-name="Rectangle 3607"/></clipPath></defs></svg>