<svg xmlns="http://www.w3.org/2000/svg" width="41.165" height="25.229" viewBox="459 1478.626 41.165 25.229"><g data-name="delivery-van"><g data-name="Group 4637"><path d="M471.864 1496.622a3.616 3.616 0 1 0 0 7.233 3.616 3.616 0 1 0 0-7.233Zm0 5.189a1.572 1.572 0 1 1 0-3.144 1.572 1.572 0 0 1 0 3.144Z" fill-rule="evenodd" data-name="Path 3219"/><path d="M490.936 1496.622a3.616 3.616 0 1 0 0 7.233 3.616 3.616 0 1 0 0-7.233Zm0 5.189a1.572 1.572 0 1 1 0-3.144 1.572 1.572 0 0 1 0 3.144Z" fill-rule="evenodd" data-name="Path 3220"/><path d="M475.933 1485.51a.924.924 0 0 1-.921.92h-12.715a.924.924 0 0 1-.921-.92v-.553c0-.507.414-.922.92-.922h12.716c.507 0 .921.415.921.922v.553Z" fill-rule="evenodd" data-name="Path 3221"/><path d="M498.024 1490.904c-1.326-.345-2.085-.562-2.606-1.567l-1.741-3.526c-.521-1.005-1.874-1.828-3.007-1.828h-2.381s-.32.006-.32-.316v-2.957c0-1.146-.65-2.084-2.03-2.084h-19.41c-1.975 0-2.913.938-2.913 2.084v1.853s0 .551.534.551h10.862c1.016 0 1.843.827 1.843 1.843v.553a1.845 1.845 0 0 1-1.843 1.842H464.15s-.534-.044-.534.532v.637c0 .507.695.507.695.507h7.312c1.016 0 1.842.826 1.842 1.842v.553a1.845 1.845 0 0 1-1.842 1.843h-7.197s-.81-.015-.81.63v4.477a2.09 2.09 0 0 0 2.084 2.084h1.152c.26 0 .3-.145.3-.218a4.718 4.718 0 0 1 4.712-4.713 4.718 4.718 0 0 1 4.713 4.713c0 .073-.02.218.18.218h9.29c.184 0 .176-.155.176-.218a4.718 4.718 0 0 1 4.714-4.713 4.718 4.718 0 0 1 4.713 4.713c0 .073-.002.218.113.218h2.342c1.133 0 2.06-.926 2.06-2.06v-3.912c0-3.295-1.04-3.295-2.141-3.581Zm-3.92-.183h-5.861c-.243 0-.275-.236-.275-.236v-4.883s-.013-.188.298-.188h1.672c1.008 0 2.212.732 2.675 1.627l1.55 3.137c.065.127.135.239.21.34.054.073-.038.203-.268.203Z" fill-rule="evenodd" data-name="Path 3222"/><path d="M472.544 1491.423a.924.924 0 0 1-.921.921H459.92a.924.924 0 0 1-.921-.921v-.553c0-.506.415-.921.921-.921h11.702c.506 0 .92.415.92.921v.553Z" fill-rule="evenodd" data-name="Path 3223"/></g></g></svg>