<svg xmlns="http://www.w3.org/2000/svg" width="80.834" height="80.833" viewBox="2580.017 1068.405 80.834 80.833"><g data-name="Multiple Layers (3)"><g data-name="Group 20"><g data-name="Group 19" transform="translate(2580.017 1068.405)" clip-path="url(&quot;#a&quot;)"><path d="M1.302 41.719A1.302 1.302 0 0 1 0 40.417C0 18.13 18.13 0 40.417 0 54.823 0 68.25 7.745 75.448 20.209c.359.619.14 1.416-.479 1.781a1.32 1.32 0 0 1-1.787-.479C66.458 9.849 53.896 2.604 40.417 2.604c-20.849 0-37.808 16.959-37.808 37.813 0 .719-.588 1.302-1.307 1.302" fill-rule="evenodd" data-name="Path 15"/></g></g><g data-name="Group 24"><g data-name="Group 23" transform="translate(2580.017 1068.405)" clip-path="url(&quot;#b&quot;)"><path d="M40.417 80.833c-14.406 0-27.833-7.745-35.031-20.208a1.32 1.32 0 0 1 .479-1.787 1.315 1.315 0 0 1 1.786.479c6.724 11.667 19.287 18.907 32.766 18.907 20.844 0 37.807-16.964 37.807-37.808 0-.718.589-1.307 1.308-1.307.718 0 1.302.589 1.302 1.307 0 22.287-18.131 40.417-40.417 40.417" fill-rule="evenodd" data-name="Path 17"/></g></g><g data-name="Group 26"><g data-name="Group 25" transform="translate(2580.017 1068.405)" clip-path="url(&quot;#c&quot;)"><path d="M6.521 70.401a1.306 1.306 0 0 1-1.307-1.302v-9.125a1.31 1.31 0 0 1 1.307-1.307h9.125c.719 0 1.302.588 1.302 1.307 0 .713-.583 1.302-1.302 1.302H7.823v7.823c0 .719-.588 1.302-1.302 1.302" fill-rule="evenodd" data-name="Path 18"/><path d="M48.24 44.328H28.683c-4.313 0-7.823-3.51-7.823-7.823 0-4.318 3.51-7.823 7.823-7.823H48.24a1.302 1.302 0 0 1 0 2.604H28.683a5.221 5.221 0 0 0-5.214 5.219 5.22 5.22 0 0 0 5.214 5.214H48.24c.719 0 1.302.583 1.302 1.302 0 .718-.583 1.307-1.302 1.307" fill-rule="evenodd" data-name="Path 19"/><path d="M41.719 69.099a1.307 1.307 0 0 1-1.302-1.307v-7.818a2.613 2.613 0 0 0-2.609-2.609h-9.125c-4.313 0-7.823-3.511-7.823-7.823 0-4.313 3.51-7.823 7.823-7.823.718 0 1.302.583 1.302 1.302 0 .719-.584 1.307-1.302 1.307a5.217 5.217 0 0 0-5.214 5.214 5.22 5.22 0 0 0 5.214 5.213h9.125a5.221 5.221 0 0 1 5.218 5.219v7.818c0 .718-.588 1.307-1.307 1.307" fill-rule="evenodd" data-name="Path 20"/><path d="M49.203 37.807H29.984a1.306 1.306 0 0 1-1.302-1.302 1.31 1.31 0 0 1 1.302-1.307h19.219c2.875 0 5.302-2.084 5.536-4.745a5.196 5.196 0 0 0-1.349-3.995 5.236 5.236 0 0 0-3.848-1.687h-6.516a5.222 5.222 0 0 1-5.219-5.219v-7.818c0-.719.589-1.307 1.307-1.307.719 0 1.303.588 1.303 1.307v7.818a2.613 2.613 0 0 0 2.609 2.609h6.516a7.84 7.84 0 0 1 5.765 2.537c1.505 1.635 2.219 3.76 2.026 5.984-.344 3.995-3.916 7.125-8.13 7.125" fill-rule="evenodd" data-name="Path 21"/><path d="M49.542 50.844H29.985a1.305 1.305 0 0 1-1.302-1.302c0-.719.588-1.302 1.302-1.302h19.557a5.222 5.222 0 0 0 5.219-5.219 5.22 5.22 0 0 0-5.219-5.213 1.303 1.303 0 0 1-1.302-1.303c0-.718.583-1.307 1.302-1.307 4.312 0 7.823 3.511 7.823 7.823 0 4.318-3.511 7.823-7.823 7.823" fill-rule="evenodd" data-name="Path 22"/><path d="M48.24 69.099a1.307 1.307 0 0 1-1.302-1.307v-9.125c0-4.313-3.51-7.823-7.823-7.823a1.307 1.307 0 0 1-1.307-1.302c0-.719.588-1.302 1.307-1.302 5.75 0 10.427 4.677 10.427 10.427v9.125c0 .718-.583 1.307-1.302 1.307" fill-rule="evenodd" data-name="Path 23"/><path d="M41.719 31.287c-5.75 0-10.427-4.677-10.427-10.427v-9.125c0-.719.583-1.307 1.302-1.307.719 0 1.302.588 1.302 1.307v9.125c0 4.312 3.511 7.823 7.823 7.823.719 0 1.307.583 1.307 1.302 0 .719-.588 1.302-1.307 1.302" fill-rule="evenodd" data-name="Path 24"/></g></g></g><defs><clipPath id="a"><path d="M0 0h75.969v42.907H0V0z" data-name="Rectangle 33"/></clipPath><clipPath id="b"><path d="M0 0h76.865v41.927H0V0z" data-name="Rectangle 35" transform="translate(3.969 38.906)"/></clipPath><clipPath id="c"><path d="M0 0h80.833v80.833H0V0z" data-name="Rectangle 36"/></clipPath></defs></svg>