<svg xmlns="http://www.w3.org/2000/svg" width="33.39" height="31.366" viewBox="2980 13565.627 33.39 31.366"><g data-name="Multiple Layers (2)"><g data-name="Group 4640"><g data-name="Group 4639"><path d="M3004.994 13565.627c-3.989 0-6.231 2.765-7.354 4.847-1.126-2.08-3.37-4.847-7.348-4.847-4.75 0-8.332 3.852-8.332 8.96 0 1.959.601 3.795 1.81 5.675a9.703 9.703 0 0 1 4.071-.913c5.404 0 9.802 4.397 9.802 9.802 0 1.184-.244 2.306-.63 3.358l.63.546.642-.556a281.211 281.211 0 0 1 4.496-3.796c6.349-5.282 10.61-8.772 10.61-14.116 0-5.108-3.648-8.96-8.397-8.96Z" fill-rule="evenodd" data-name="Path 3228"/></g></g><g data-name="Group 4642"><g data-name="Group 4641"><path d="M2987.841 13581.31a7.841 7.841 0 1 0 0 15.682 7.841 7.841 0 0 0 0-15.683Zm0 6.86a2.944 2.944 0 0 1 2.94 2.94 2.944 2.944 0 0 1-2.94 2.941 2.944 2.944 0 0 1-2.94-2.94h1.96a.98.98 0 1 0 .98-.98 2.944 2.944 0 0 1-2.94-2.94 2.944 2.944 0 0 1 2.94-2.941 2.944 2.944 0 0 1 2.94 2.94h-1.96a.98.98 0 1 0-.98.98Z" fill-rule="evenodd" data-name="Path 3229"/></g></g></g></svg>