<svg xmlns="http://www.w3.org/2000/svg" width="47.136" height="42.533" viewBox="643.864 2908.027 47.136 42.533"><g data-name="XMLID_3_"><path d="M673.758 2939.901c-1.256.002-2.445-.502-3.236-1.369l-3.09-3.396-3.09 3.4c-1.175 1.288-3.17 1.723-4.882 1.065l-9.469-3.66v7.28c0 1.399.999 2.644 2.487 3.1l12.761 3.912a7.533 7.533 0 0 0 4.387 0l12.76-3.912c1.489-.456 2.488-1.702 2.487-3.101v-7.28l-9.47 3.658c-.519.2-1.079.304-1.645.303Z" fill="#fff" fill-rule="evenodd" data-name="XMLID_38_"/><path d="m687.468 2923.317 2.951-3.89a2.92 2.92 0 0 0 .505-2.41c-.194-.843-.747-1.54-1.494-1.886l-14.834-6.872c-1.075-.497-2.33-.168-3.066.804l-4.098 5.395-4.094-5.397c-.736-.973-1.99-1.302-3.066-.804l-14.84 6.874c-.747.345-1.3 1.043-1.493 1.886a2.92 2.92 0 0 0 .504 2.41l2.951 3.89-2.95 3.891a2.92 2.92 0 0 0-.505 2.41c.194.842.746 1.54 1.493 1.886l14.84 6.87c1.075.498 2.33.169 3.066-.803l4.094-5.395 4.093 5.397c.737.972 1.991 1.301 3.067.804l14.84-6.871c.746-.346 1.299-1.044 1.493-1.887a2.92 2.92 0 0 0-.505-2.409l-2.952-3.893Zm-20.036-5.822 12.579 5.828-12.58 5.818-12.578-5.828 12.579-5.818Z" fill="#fff" fill-rule="evenodd" data-name="XMLID_176_"/></g></svg>