<svg xmlns="http://www.w3.org/2000/svg" width="50" height="50" viewBox="810.779 7839.316 50 50"><g data-name="XMLID_494_"><path d="M836.28 7839.816c-13.808 0-25 11.193-25 25 0 13.808 11.192 25 25 25 13.806 0 25-11.192 25-25 0-13.807-11.194-25-25-25Zm-.744 35.867a.555.555 0 0 0-.516.553v4.033a1 1 0 0 1-1.695.706l-8-7.939a1.121 1.121 0 0 1 0-1.593l8-7.939a.994.994 0 0 1 1.695.706v3.976a.549.549 0 0 0 .44.544c4.7.855 9.158-3.376 11.138-5.6a.557.557 0 0 1 .965.433c-1.098 10.63-9.804 11.953-12.027 12.12Zm11.7-17.493-8 7.94a.994.994 0 0 1-1.695-.707v-3.976a.549.549 0 0 0-.439-.544c-4.7-.855-9.159 3.376-11.139 5.6a.557.557 0 0 1-.965-.433c1.1-10.637 9.8-11.963 12.028-12.128a.555.555 0 0 0 .516-.553v-4.028a1 1 0 0 1 1.695-.706l8 7.94a1.127 1.127 0 0 1-.002 1.595Z" fill="#fff" fill-rule="evenodd"/><path d="M836.28 7839.816c-13.808 0-25 11.193-25 25 0 13.808 11.192 25 25 25 13.806 0 25-11.192 25-25 0-13.807-11.194-25-25-25Zm-.744 35.867a.555.555 0 0 0-.516.553v4.033a1 1 0 0 1-1.695.706l-8-7.939a1.121 1.121 0 0 1 0-1.593l8-7.939a.994.994 0 0 1 1.695.706v3.976a.549.549 0 0 0 .44.544c4.7.855 9.158-3.376 11.138-5.6a.557.557 0 0 1 .965.433c-1.098 10.63-9.804 11.953-12.027 12.12Zm11.7-17.493-8 7.94a.994.994 0 0 1-1.695-.707v-3.976a.549.549 0 0 0-.439-.544c-4.7-.855-9.159 3.376-11.139 5.6a.557.557 0 0 1-.965-.433c1.1-10.637 9.8-11.963 12.028-12.128a.555.555 0 0 0 .516-.553v-4.028a1 1 0 0 1 1.695-.706l8 7.94a1.127 1.127 0 0 1-.002 1.595Z" stroke-linejoin="round" stroke-linecap="round" stroke="rgba(0,0,0,0 )" fill="transparent"/></g></svg>