<svg xmlns="http://www.w3.org/2000/svg" width="72.144" height="71.333" viewBox="130.857 2714.258 72.144 71.333"><g data-name="Group 8055"><g data-name="Group 8098" transform="translate(130.857 2714.258)" clip-path="url(&quot;#a&quot;)"><path d="M27.902 60.124h5.534V38.272h5.765v21.852h5.572V10.907H27.902v49.217Zm5.534-43.443h5.765v15.891h-5.765V16.681ZM10.8 10.907h12.368v5.774h-6.297v15.36h6.297v6.72h-6.297v15.662h6.297v5.701H10.8V10.907Zm39.738 0h11.069v5.774h-5.535v37.742h5.535v5.701H50.538V10.907ZM62.932 0H9.212C4.123 0 0 4.076 0 9.108V62.22c0 5.032 4.123 9.113 9.212 9.113h53.72c5.089 0 9.212-4.081 9.212-9.113V9.108C72.144 4.076 68.021 0 62.932 0m6.576 62.22c0 3.593-2.947 6.507-6.581 6.507H9.217c-3.634 0-6.581-2.914-6.581-6.507V9.113c0-3.593 2.947-6.507 6.581-6.507h53.71c3.634 0 6.581 2.914 6.581 6.507V62.22Z" fill-rule="evenodd" data-name="Path 8980"/></g></g><defs><clipPath id="a"><path d="M0 0h72.143v71.333H0V0z" data-name="Rectangle 3608"/></clipPath></defs></svg>