<svg width="31" height="39" viewBox="0 0 31 39" fill="none" xmlns="http://www.w3.org/2000/svg">
<path d="M15.3028 38.9988C11.3688 38.9988 6.59402 35.199 4.87602 30.699C4.58602 29.933 4.52652 29.8218 3.93852 29.4778C1.60652 28.1158 0.175758 24.8649 0.0117581 20.5579C-0.288242 12.5039 4.73643 6.58016 12.5254 5.81716C12.9254 5.77816 13.2504 5.75906 13.5254 5.75906C14.7674 5.75906 14.8604 6.11396 14.8604 6.65896C14.8604 7.20396 14.86 7.49081 13.377 7.58181C7.97199 7.91481 3.98833 10.8252 2.44633 15.5672C1.47807 18.8412 1.62707 22.3444 2.87016 25.5242C3.06016 25.9242 3.18613 26.1892 3.49613 26.1892C3.91913 26.1892 3.95772 25.7309 3.97172 25.5589C3.99472 25.3689 4.00655 25.0892 4.02055 24.7342V24.6629C4.22055 19.4299 6.5657 16.212 13.3057 11.909C15.7847 10.325 17.0059 9.35913 17.6739 8.46413C18.0255 8.01158 18.2517 7.47387 18.3291 6.90603C18.4066 6.33818 18.3329 5.75994 18.1153 5.22976C17.8513 4.35072 17.2838 3.59389 16.5147 3.09304C15.7871 2.61525 14.9369 2.35968 14.0664 2.3572C13.3933 2.33772 12.7274 2.50373 12.1426 2.83767C11.5578 3.17161 11.0763 3.66015 10.751 4.24978C10.6645 4.36464 10.5514 4.45683 10.4209 4.51736C10.2905 4.57788 10.1466 4.60504 10.003 4.59695C9.84884 4.60222 9.6973 4.55953 9.5684 4.47488C9.4132 4.37008 9.29511 4.21888 9.23148 4.04275C9.16786 3.86662 9.1615 3.67468 9.21391 3.4949C9.43491 2.4579 10.93 1.06485 12.96 0.62185C13.335 0.541616 13.7181 0.50207 14.1016 0.503197C15.3424 0.510225 16.5511 0.895872 17.5664 1.60915C18.5818 2.32244 19.3549 3.32902 19.7823 4.49392C20.8553 7.71992 19.7372 9.90214 15.6582 12.5471C10.9072 15.6351 10.2794 16.098 8.9434 17.491C7.76432 18.7342 6.87229 20.2213 6.33109 21.8469C5.7899 23.4726 5.6129 25.1974 5.81156 26.8992C6.00392 28.6649 6.58097 30.3669 7.50297 31.885C8.42497 33.4031 9.66937 34.7 11.1475 35.6848C12.3701 36.5795 13.8327 37.0859 15.3467 37.138C16.8993 37.0847 18.3951 36.5383 19.6163 35.5779C21.5492 34.23 23.0526 32.3536 23.9463 30.1731C24.8405 27.8958 25.1163 25.4226 24.7461 23.0042C24.2721 19.4282 23.1103 18.0649 18.8213 16.0569C17.4883 15.4299 17.521 15.0372 17.712 14.5882C17.903 14.1392 18.1545 14.072 18.3995 14.072C18.7641 14.0979 19.1201 14.1937 19.4483 14.3548C24.7303 16.6428 26.418 19.0382 26.669 24.6062L26.7998 27.4749L27.7188 25.5442C28.9697 22.6689 29.1895 19.4496 28.3409 16.4309C27.6966 13.4886 25.944 10.9075 23.4463 9.2239C22.5043 8.6579 22.1909 8.08892 22.2139 7.74392C22.2369 7.43292 22.5391 7.24382 22.7901 7.14382C22.8653 7.1148 22.9458 7.10055 23.0264 7.10183C24.3534 7.10183 27.3826 9.68376 28.8946 12.5838C30.3969 15.6165 30.9428 19.0341 30.461 22.3841C30.001 25.7561 28.6142 28.3442 26.6612 29.4842C26.4359 29.5849 26.2378 29.7377 26.083 29.93C25.9283 30.1222 25.8217 30.3485 25.7715 30.5901C24.0845 35.1471 19.2868 38.9988 15.3028 38.9988ZM19.8877 25.51C19.3959 25.506 18.911 25.3978 18.4639 25.1926C18.0168 24.9875 17.6179 24.6903 17.294 24.3201C17.1871 24.2074 17.1089 24.0706 17.0664 23.9212C17.024 23.7718 17.0183 23.6143 17.0498 23.4622C17.0776 23.3281 17.1385 23.2025 17.2256 23.0969C17.3128 22.9914 17.4235 22.909 17.5498 22.8562C17.6628 22.8027 17.7862 22.7741 17.9112 22.7722C18.192 22.7908 18.4557 22.9148 18.6485 23.1199C18.9668 23.4725 19.4044 23.6942 19.877 23.742C20.3729 23.6881 20.8323 23.4562 21.17 23.0891C21.3615 22.913 21.6101 22.8114 21.8702 22.803C22.0455 22.8045 22.217 22.8559 22.3643 22.951C22.5116 23.046 22.6287 23.181 22.7022 23.3401C22.7692 23.5065 22.7841 23.6894 22.7452 23.8645C22.7062 24.0396 22.6156 24.1987 22.4844 24.3211C22.1606 24.6915 21.7616 24.9888 21.3145 25.1941C20.8674 25.3994 20.3816 25.5079 19.8897 25.512L19.8877 25.51ZM10.7168 25.51C10.2249 25.5062 9.74012 25.3983 9.29301 25.1931C8.84589 24.988 8.44687 24.6904 8.12309 24.3201C8.0169 24.207 7.93945 24.07 7.8975 23.9207C7.85555 23.7713 7.85012 23.614 7.88188 23.4622C7.90984 23.3282 7.97055 23.203 8.05766 23.0974C8.14476 22.9919 8.25564 22.9091 8.38188 22.8562C8.49501 22.8023 8.61884 22.7736 8.74418 22.7722C9.02448 22.7918 9.28751 22.9157 9.48051 23.1199C9.79772 23.4712 10.2333 23.6929 10.7041 23.742C11.2024 23.6896 11.6644 23.4576 12.0039 23.0891C12.1953 22.9127 12.444 22.811 12.7041 22.803C12.8795 22.8042 13.0509 22.8554 13.1983 22.9505C13.3456 23.0456 13.4628 23.1808 13.5362 23.3401C13.6036 23.5064 13.6191 23.6893 13.5801 23.8645C13.5412 24.0397 13.4499 24.1989 13.3184 24.3211C12.9939 24.692 12.5945 24.9898 12.1465 25.1951C11.6985 25.4004 11.2116 25.5084 10.7188 25.512L10.7168 25.51Z" fill="white"/>
</svg>
