<svg xmlns="http://www.w3.org/2000/svg" width="71.715" height="71.474" viewBox="-2528.918 1987.846 71.715 71.474"><g data-name="Multiple Layers (8)"><g data-name="Group 8054"><g data-name="Group 8053" transform="translate(-2529.007 1986.425)" clip-path="url(&quot;#a&quot;)"><path d="M7.618 72.891c2.043.099 3.786-1.333 3.89-3.193l.719-12.911c.696.057 1.404.088 2.112.088.915 0 1.818-.052 2.698-.135l.725 12.958c.104 1.86 1.847 3.292 3.89 3.193 2.043-.094 3.614-1.677 3.51-3.536l-.788-14.198c.374-.131.719-.266 1.03-.396l.259-.11v-.26c0-6.937-1.514-21.531-2.129-27.146l6.248-.521c1.652-.031 3.142-1 3.706-2.411l3.567-8.849c.069-.162.087-.427-.212-.75-.19-.208-.53-.448-.956-.698l.559-1.385 1.173-.568c.858-.417 1.324-1.245 1.26-2.073l3.24-1.703c.328-.172-.363-1.266-.691-1.089l-3.049 1.599c-.702-.823-1.974-1.094-3.021-.583l-1.979.958c-.518.25-.915.672-1.122 1.172l-.823 2.042c-.426-.068-.806-.084-1.116-.037-.553.089-.772.365-.858.584l-2.612 6.474-6.629.109a7.186 7.186 0 0 1-.823.833l8.085-.13 2.33-5.792c.662.099 3.291.547 4.793 1.605l.276-.323c-1.542-1.089-4.102-1.552-4.908-1.672l.334-.823s.161-.136.892-.037c1.904.266 4.638 1.615 4.983 2.089l-3.533 8.766c-.443 1.099-1.611 1.854-2.9 1.875l-6.301.52a92.765 92.765 0 0 0-.167-1.458l-.891.089c.023.203 2.33 20.312 2.376 29.067-2.29.912-6.283 1.933-10.426 1.933s-8.136-1.016-10.421-1.933c.023-3.89.633-9.099 1.301-13.666.736-.183 1.415-.547 1.933-1.073l7.141-7.177v17h.684V31.511l.933-.933 2.077.021.138-.135c.368-.37.006-.88-.95-2.25a32.27 32.27 0 0 1-.471-.672l2.048-2.057c.886-.896.811-2.276-.173-3.084-.978-.807-2.497-.739-3.383.157l-1.818 1.823c-.489-.23-.938-.391-1.243-.433-.317-.047-.552.011-.714.167l-6.479 6.521.53.682 5.621-5.651c1.053.552 2.59 1.427 2.82 1.755.374.516 1.087 1.526 1.087 1.526l.38-.218s-.719-1.016-1.087-1.532c-.328-.458-2.135-1.442-2.889-1.843l.599-.605c.598.073 2.802 1.183 3.245 2.094.241.49.713 1.162 1.168 1.813.247.354.558.796.754 1.119l-1.658-.02-9.022 9.078c-.598.599-1.45.942-2.336.942-.782 0-1.53-.26-2.112-.739a2.79 2.79 0 0 1-.282-.271.554.554 0 0 1-.224-.271 2.668 2.668 0 0 1-.524-1.437 2.327 2.327 0 0 1 .058-.693 15.386 15.386 0 0 1-.046-1.776c-.006.005-.006.005-.006.01l.017-.432c.052-1.203.185-2.13.185-2.13l.005-.005c.495-3.954 1.968-8.756 6.065-10.396a3.33 3.33 0 0 1 1.266-.24l.034-.005c.087-.005.167-.005.254-.005H10.8a7.463 7.463 0 0 1-1.318-.818h-.638c-.104 0-.208 0-.305.01-.564 0-1.105.105-1.611.308C.149 23.605-.006 33.938.109 37.037c0 .01.006.021.006.031v.031c0 .052.011.104.017.157.006.062.006.119.017.182.006.047.018.099.029.146.017.073.029.146.046.218l.035.099c.023.084.051.167.08.25.012.016.017.037.023.052.041.099.087.193.133.287 0 .005.005.005.005.005.495.953 1.416 1.672 2.544 1.958.011.006.023.006.034.011.104.026.213.047.322.068l.121.015c.081.011.161.026.248.031.12.011.247.016.374.016H4.292c-.673 4.641-1.277 9.912-1.277 13.797v.26l.264.11c.461.193 1.002.396 1.606.594l-.777 14c-.104 1.859 1.467 3.442 3.51 3.536" fill-rule="evenodd" data-name="Path 8874"/></g></g><g data-name="Group 8056"><g data-name="Group 8055" transform="translate(-2529.007 1986.425)" clip-path="url(&quot;#b&quot;)"><path d="m21.33 13.214.035.099c.437.24.65.422.73.526a2.135 2.135 0 0 1-.541.104c.069.266.115.537.144.807 1.128-.114 1.255-.515 1.306-.687.069-.24.259-.901-2.221-1.948.213.344.397.714.547 1.099" fill-rule="evenodd" data-name="Path 8875"/><path d="M6.87 15.542c-1.381.505-2.048.547-2.261.505.063-.234.575-.948 2.411-2.208l.074-.052a7.06 7.06 0 0 1 .236-.693l-.592.01c-2.296.037-3.182-.239-3.395-.385.167-.187.943-.646 3.164-1.12l1.433-.307-1.375-.474c-2.071-.719-2.796-1.255-2.963-1.469.259-.109 1.179-.244 3.372.078l1.473.219-1.099-.922C5.719 7.354 5.265 6.615 5.201 6.36c.288-.016 1.197.177 3.102 1.218l1.26.688-.622-1.214c-.966-1.88-1.047-2.718-.983-2.958.258.063 1.041.526 2.428 2.198l.828 1.005-.023-1.26c-.04-2.094.259-2.896.42-3.089.207.151.714.854 1.232 2.88l.333 1.303.524-1.25c.794-1.891 1.381-2.547 1.617-2.698.121.234.265 1.073-.086 3.067l-.242 1.339 1.013-1c1.507-1.479 2.318-1.896 2.6-1.953.018.26-.189 1.088-1.335 2.817l-.759 1.152 1.335-.568c2.066-.875 2.986-.948 3.245-.896-.063.24-.57.948-2.411 2.208l-.472.323c.231.13.449.266.656.417l.098-.005c2.302-.037 3.182.239 3.395.385-.138.156-.69.495-2.123.875.184.224.362.464.518.714 2.652-.745 2.56-1.443 2.526-1.693-.035-.255-.133-.974-3.056-1.089 2.221-1.724 1.813-2.349 1.669-2.567-.144-.219-.552-.828-3.194.104 1.307-2.292.691-2.709.472-2.86-.218-.151-.828-.567-2.871 1.198.265-2.552-.472-2.729-.736-2.797-.265-.062-1.007-.244-2.181 2.105-.823-2.469-1.6-2.381-1.882-2.349-.282.031-1.07.119-1.191 2.781C8.406 2.865 7.722 3.24 7.48 3.37c-.242.136-.915.5.115 2.906-2.52-1.187-2.981-.63-3.147-.427-.162.198-.622.755 1.317 2.61-2.802-.245-2.998.427-3.072.672-.069.239-.265.911 2.313 1.984-2.71.75-2.618 1.458-2.584 1.708.035.255.138.974 3.056 1.089-2.222 1.729-1.813 2.349-1.663 2.567.143.219.541.818 3.136-.083a6.24 6.24 0 0 1-.081-.854" fill-rule="evenodd" data-name="Path 8876"/><path d="M16.502 21.224c3.522-1.109 5.392-4.599 4.178-7.802-.127-.333-.38-.583-.725-.771-.017-.068-.04-.13-.063-.198-.42-1.104-1.738-1.687-2.952-1.307-.719.224-1.232.734-1.45 1.344-.645.125-1.306.291-1.957.489a2.525 2.525 0 0 0-1.904-.166c-.823.26-1.381.895-1.525 1.619-1.571.917-2.555 1.995-2.175 2.995 1.214 3.203 5.058 4.901 8.573 3.797m1.652-3.937c-1.013-.349-1.732-.12-1.732-.12s-.466-.615-.046-.906c0 0 .817-.339 1.369-.047.553.297 1.226.838 2.486.406.777-.271-1.064 1.016-2.077.667m-1.03-5.657c.915-.291 1.922.151 2.238.99.317.838-.172 1.75-1.087 2.036-.921.292-1.922-.156-2.244-.989-.317-.839.172-1.75 1.093-2.037m-1.174 5.683s-.719.224-1.277 1.067c-.564.844-2.889.87-2.095.641 1.289-.365 1.45-1.172 1.686-1.714.23-.541 1.111-.734 1.111-.734.529-.005.575.74.575.74m-4.137-4.016c.915-.286 1.922.156 2.238.995.317.833-.172 1.745-1.093 2.036-.915.287-1.922-.156-2.238-.995-.317-.833.172-1.744 1.093-2.036" fill-rule="evenodd" data-name="Path 8877"/><path d="M13.694 11.125c-.817-.187-3.614-.531-5.776 2.771l.511.276c2.285-3.479 5.161-2.521 5.282-2.479l.242.088.127-.208c.034-.057.903-1.401 3.608-1.078l.074-.542c-2.537-.302-3.7.729-4.068 1.172" fill-rule="evenodd" data-name="Path 8878"/><path d="m16.94 43.255 5.345-.672.162 1.078-5.346.672-.161-1.078Z" fill-rule="evenodd" data-name="Path 8879"/><path d="M42.453 39.948c.437-.682.103-1.698-.938-2.854-.219-.24-.461-.479-.725-.719.264-.239.506-.484.725-.724l.132-.151a.853.853 0 0 0 .288.052c.425 0 .765-.312.765-.698a.672.672 0 0 0-.27-.531c.264-.599.281-1.12.023-1.526-.432-.682-1.566-.927-3.182-.687-.34.052-.691.125-1.048.213-.552-1.885-1.49-3.099-2.572-3.099-1.087 0-2.019 1.214-2.577 3.099-.248-.062-.49-.109-.725-.151-.041-.354-.363-.625-.76-.625-.334 0-.621.198-.719.474-1.001.005-1.703.271-2.026.776-.437.688-.103 1.698.938 2.854.219.24.461.485.725.724-.264.24-.506.479-.725.719-1.041 1.156-1.375 2.172-.938 2.854.323.511 1.042.776 2.054.776.346 0 .72-.026 1.128-.088.34-.052.691-.125 1.048-.214.109.354.224.688.356.99a.668.668 0 0 0-.282.536c0 .386.346.698.771.698.069 0 .133-.01.196-.026.449.573.972.901 1.536.901 1.082 0 2.02-1.213 2.572-3.099.357.089.708.162 1.048.214a7.48 7.48 0 0 0 1.127.088c1.013 0 1.732-.265 2.055-.776m-3.113-7.432c1.404-.208 2.393-.031 2.727.489.178.287.155.688-.058 1.157-.023 0-.046-.006-.074-.006-.42 0-.766.313-.766.698 0 .141.046.276.127.386-.046.052-.081.099-.127.151a9.173 9.173 0 0 1-.707.698 16.324 16.324 0 0 0-1.784-1.302c-.069-.74-.19-1.438-.351-2.068.351-.083.69-.156 1.013-.203m-2.365 5.948a20.23 20.23 0 0 1-1.324.64 19.172 19.172 0 0 1-1.329-.64 18.51 18.51 0 0 1-1.271-.724 17.049 17.049 0 0 1-.058-1.365c0-.474.023-.932.058-1.364.402-.256.828-.495 1.271-.73.443-.229.886-.442 1.329-.635.438.193.881.406 1.324.635.443.235.869.474 1.271.73.035.432.058.89.058 1.364 0 .474-.023.927-.058 1.365-.402.25-.828.495-1.271.724m1.22-.209a12.683 12.683 0 0 1-.294 1.657 17.829 17.829 0 0 1-1.732-.589c.345-.156.691-.323 1.03-.505.345-.177.673-.37.996-.563m-3.067 1.068c-.593.235-1.168.432-1.732.589-.127-.5-.225-1.058-.294-1.657.323.193.65.386.996.563.339.182.684.349 1.03.505m-2.549-1.891a15.272 15.272 0 0 1-1.422-1.057c.426-.359.904-.719 1.422-1.062a16.031 16.031 0 0 0 0 2.119m.523-2.942c.069-.599.167-1.151.294-1.656.564.156 1.139.354 1.732.593-.346.157-.691.323-1.03.5-.346.183-.673.37-.996.563m3.067-1.063a16.63 16.63 0 0 1 1.732-.593c.127.505.225 1.057.294 1.656-.323-.193-.651-.38-.996-.563a21.206 21.206 0 0 0-1.03-.5m2.549 1.886c.518.343.996.703 1.421 1.062-.425.36-.903.714-1.421 1.057a15.832 15.832 0 0 0 0-2.119m-3.067-5.683c.794 0 1.623 1.047 2.141 2.808-.691.192-1.41.448-2.141.755a18.064 18.064 0 0 0-2.146-.755c.518-1.761 1.347-2.808 2.146-2.808m-6.415 3.375c.23-.369.805-.567 1.622-.572.087.291.38.51.731.51a.772.772 0 0 0 .673-.37c.23.042.466.089.708.146-.161.63-.282 1.328-.351 2.068-.656.416-1.26.859-1.784 1.302a9.192 9.192 0 0 1-.708-.698c-.897-.995-1.225-1.87-.891-2.386m2.721 7.224c-1.404.214-2.393.032-2.721-.484-.334-.521-.006-1.391.891-2.391.213-.234.449-.463.708-.698.524.448 1.128.886 1.784 1.308.069.739.19 1.432.351 2.062-.351.084-.691.156-1.013.203m3.694 2.886c-.391 0-.788-.25-1.156-.714a.67.67 0 0 0 .19-.453c0-.385-.346-.698-.766-.698-.028 0-.051.005-.08.005a9.964 9.964 0 0 1-.334-.942 17.278 17.278 0 0 0 2.146-.761c.731.313 1.45.568 2.141.761-.518 1.755-1.347 2.802-2.141 2.802m6.416-3.37c-.334.516-1.323.698-2.727.484a11.56 11.56 0 0 1-1.013-.203c.161-.63.282-1.323.351-2.062.656-.422 1.26-.86 1.784-1.308.259.235.494.464.707.698.898 1 1.226 1.87.898 2.391" fill-rule="evenodd" data-name="Path 8880"/><path d="M37.01 36.375c0 .339-.132.63-.397.875-.27.24-.587.359-.961.359-.38 0-.696-.119-.961-.359a1.14 1.14 0 0 1-.403-.875c0-.344.133-.635.403-.875.265-.245.581-.365.961-.365.374 0 .691.12.961.365.265.24.397.531.397.875" fill-rule="evenodd" data-name="Path 8881"/></g></g><g data-name="Group 8060"><g data-name="Group 8059" transform="translate(-2529.007 1986.425)" clip-path="url(&quot;#c&quot;)"><path d="M56.993 12.047c.247.083.581.109.903.109a8.19 8.19 0 0 0 1.094-.083c.414.042 1.49.12 1.944-.016l-.304-.39c-.19.057-.984.036-1.6-.026l-.069-.005-.069.01c-.432.062-1.243.125-1.588.016-.679-.219-1.922-.037-2.066-.016l.167.422c.431-.068 1.243-.13 1.588-.021" fill-rule="evenodd" data-name="Path 8883"/><path d="M48.046 11.64c-.293-.03-1.433-.14-1.997.017-.287.083-1.122.041-1.622-.017h-1.888v.433h1.796c.293.031 1.432.141 1.996-.021.288-.083 1.122-.041 1.623.016l1.887.005.098-.01c.558-.099 1.318-.141 1.508-.042.23.119.575.156.92.156.53 0 1.07-.088 1.226-.114l-.19-.417c-.564.098-1.323.146-1.513.042-.547-.287-1.755-.109-2.095-.048h-1.749Z" fill-rule="evenodd" data-name="Path 8884"/></g></g><g data-name="Group 8062"><g data-name="Group 8061" transform="translate(-2529.007 1986.425)" clip-path="url(&quot;#d&quot;)"><path d="M71.758 19.844v-.432h-1.795c-.299-.026-1.473-.13-2.003.021-.264.078-1.11.036-1.622-.016l-.064-.005-.069.005c-.587.083-1.375.115-1.553.036l-.397.355c.213.093.546.125.892.125.443 0 .903-.053 1.145-.084.345.037 1.45.125 1.962-.021.259-.078 1.105-.036 1.622.016h1.882Z" fill-rule="evenodd" data-name="Path 8885"/></g></g><g data-name="Group 8064"><g data-name="Group 8063" transform="translate(-2529.007 1986.425)" clip-path="url(&quot;#e&quot;)"><path d="m60.733 19.411.247.406c.259-.062 1.088-.021 1.594.026l.104-.427c-.23-.021-1.421-.13-1.945-.005" fill-rule="evenodd" data-name="Path 8886"/><path d="M56.993 19.823c.679.219 1.922.036 2.066.016l-.167-.417c-.432.062-1.243.125-1.588.016-.633-.204-1.761-.063-2.02-.026h-1.789l-.092.01c-.392.068-1.134.151-1.456.062l-.271.396c.196.058.438.073.679.073.501 0 1.013-.078 1.186-.109h1.783l.081-.005c.431-.063 1.243-.125 1.588-.016" fill-rule="evenodd" data-name="Path 8887"/><path d="M47.954 19.844h1.887v-.432h-1.795c-.293-.032-1.433-.136-1.997.021-.287.083-1.122.041-1.622-.016l-1.888-.005v.432h1.796c.178.021.656.068 1.133.068.317 0 .639-.021.863-.084.288-.083 1.122-.041 1.623.016" fill-rule="evenodd" data-name="Path 8888"/></g></g><g data-name="Group 8066"><g data-name="Group 8065" transform="translate(-2529.007 1986.425)" clip-path="url(&quot;#f&quot;)"><path d="M69.761 15.495c-.155.047-.903.031-1.605-.026l-.035-.005h-.034c-.271.01-1.071.005-1.479-.12l-.311.385c.61.193 1.577.177 1.795.172.277.021.748.052 1.174.052.345 0 .668-.021.84-.083.156-.047.904-.031 1.606.026l.092-.427c-.478-.042-1.646-.12-2.043.026" fill-rule="evenodd" data-name="Path 8889"/></g></g><g data-name="Group 8068"><g data-name="Group 8067" transform="translate(-2529.007 1986.425)" clip-path="url(&quot;#g&quot;)"><path d="M64.456 15.464h-1.83c-.103 0-.201-.016-.328-.036-.345-.058-.765-.131-1.605.052-.622.13-.863.088-1.134.041-.161-.026-.345-.057-.587-.057v.432c.15 0 .271.021.403.047.173.026.357.057.604.057.236 0 .53-.026.933-.114.644-.136.914-.089 1.208-.042.149.026.311.052.506.052h1.83v-.432Z" fill-rule="evenodd" data-name="Path 8890"/><path d="m53.472 15.464-1.83.005c-.052 0-1.306.057-1.922.167-.264.047-.851-.011-1.507-.141l-.207.412c.362.073.966.177 1.478.177.15 0 .294-.011.421-.031.552-.099 1.778-.157 1.766-.157h1.876c.621-.062 1.433-.083 1.611-.026.293.104.598.052.869.011.293-.047.604-.099.989 0l.075.02.242-.406-.052-.015c-.604-.151-1.082-.073-1.427-.016-.155.021-.311.047-.368.031-.46-.161-1.628-.067-2.014-.031" fill-rule="evenodd" data-name="Path 8891"/><path d="M44.306 16.172c.138.036.27.052.403.052.339 0 .656-.104.92-.193.213-.067.409-.135.559-.135v-.432c-.317 0-.599.093-.875.187-.334.11-.552.172-.737.12-.633-.161-1.927-.297-1.985-.302l-.109.427c.011 0 1.272.13 1.824.276" fill-rule="evenodd" data-name="Path 8892"/><path d="M49.904 23.828c.552-.099 1.778-.156 1.766-.156h1.876c.622-.063 1.433-.089 1.611-.026.023.01.046.015.069.021l.259-.401c-.46-.157-1.628-.063-2.014-.027h-1.829c-.052.006-1.306.063-1.922.172-.265.042-.857-.01-1.508-.14l-.213.411c.369.073.973.177 1.479.177.156 0 .299-.01.426-.031" fill-rule="evenodd" data-name="Path 8893"/><path d="M44.576 23.547c-.633-.167-1.928-.297-1.985-.302l-.109.427c.011 0 1.271.13 1.824.276.138.036.27.047.402.047.34 0 .656-.099.921-.188.213-.067.409-.135.558-.135v-.432c-.316 0-.598.093-.874.182-.334.109-.553.172-.737.125" fill-rule="evenodd" data-name="Path 8894"/><path d="m44.156 2.026.437.031-.69 3.584c-.035.182-.081.244-.259.265l-.259.021-.109.573h3.901l.242-1.234-.823.02-.081.355c-.04.151-.075.182-.236.182h-1.392l.299-1.568H47.2l.138-.703h-2.014l.282-1.448h1.318c.167 0 .201.037.178.182l-.069.355.823-.042.23-1.177h-3.815l-.115.604Z" fill-rule="evenodd" data-name="Path 8895"/><path d="M50.347 3.797h3.401l.132-.73h-3.395l-.138.73Z" fill-rule="evenodd" data-name="Path 8896"/><path d="M53.598 4.526h-3.4l-.133.729h3.395l.138-.729Z" fill-rule="evenodd" data-name="Path 8897"/><path d="M56.188 6.5h.984l.455-2.286c.097-.521.391-.917.903-.917.529 0 .587.318.495.776L58.559 6.5h.978l.472-2.359c.092-.485.385-.844.915-.844.494 0 .563.318.471.771l-.345 1.739c-.092.479.052.787.685.787.201 0 .489-.032.656-.084l.109-.567c-.052.01-.092.01-.132.01h-.161c-.167 0-.184-.062-.161-.161l.374-1.917c.166-.865-.19-1.323-1.036-1.323-.604 0-1.047.24-1.352.656-.11-.427-.443-.656-.979-.656-.506 0-1.006.193-1.311.62h-.006l.08-.521h-1.358l-.109.583.259.016c.161.021.201.052.167.229L56.188 6.5Z" fill-rule="evenodd" data-name="Path 8898"/><path d="M64.911 6.609c.639 0 1.18-.198 1.542-.437l-.276-.631c-.38.219-.719.328-1.03.328-.598 0-.823-.375-.823-.885 0-1.125.524-1.714 1.301-1.714.109 0 .235.011.327.042.11.037.121.089.098.219l-.075.406.789-.047.195-1.036c-.293-.193-.73-.302-1.237-.302-1.191 0-2.439.646-2.439 2.536 0 .953.558 1.521 1.628 1.521" fill-rule="evenodd" data-name="Path 8899"/></g></g><g data-name="Group 8072"><g data-name="Group 8071" transform="translate(-2529.007 1986.425)" clip-path="url(&quot;#h&quot;)"><path d="M69.842 37.047H57.914v-6.802c.673.083 2.135.5 4.258 2.344 2.618 2.27 4.35 2.515 4.971 2.515v-.541c-.431 0-2.025-.172-4.557-2.37-2.278-1.974-3.884-2.417-4.672-2.5v-3.495h-.598v3.495c-.789.083-2.394.526-4.673 2.5-2.531 2.198-4.131 2.37-4.557 2.37v.541c.622 0 2.354-.245 4.972-2.515 2.123-1.844 3.584-2.261 4.258-2.344v6.802H45.388v.547h11.928v10.849h.598V37.594h11.928v-.547Z" fill-rule="evenodd" data-name="Path 8901"/></g></g></g><defs><clipPath id="a"><path d="M0 0h43.016v66.511H0V0z" data-name="Rectangle 3588" transform="translate(0 6.489)"/></clipPath><clipPath id="b"><path d="M0 0h71.81v73H0V0z" data-name="Rectangle 3589"/></clipPath><clipPath id="c"><path d="M0 0h71.81v73H0V0z" data-name="Rectangle 3591"/></clipPath><clipPath id="d"><path d="M0 0h8.171v2.667H0V0z" data-name="Rectangle 3592" transform="translate(63.639 18.489)"/></clipPath><clipPath id="e"><path d="M0 0h71.81v73H0V0z" data-name="Rectangle 3593"/></clipPath><clipPath id="f"><path d="M0 0h6.698v2.667H0V0z" data-name="Rectangle 3594" transform="translate(65.112 14.489)"/></clipPath><clipPath id="g"><path d="M0 0h71.81v73H0V0z" data-name="Rectangle 3595"/></clipPath><clipPath id="h"><path d="M0 0h71.81v73H0V0z" data-name="Rectangle 3597"/></clipPath></defs></svg>