<svg xmlns="http://www.w3.org/2000/svg" xmlns:xlink="http://www.w3.org/1999/xlink" width="627.0000176869708" height="633.8147583451876" viewBox="529 251.9999999555937 627.0000176869708 633.8147583451876"><path d="M 482.5909423828125 633.21875 C 458.8213500976562 631.0108642578125 437.0781860351562 621.9939575195312 416.6235656738281 610.21435546875 C 386.7725830078125 593.0999145507812 359.1339416503906 572.6728515625 333.8899841308594 549.30078125 C 306.0654907226562 523.535400390625 281.373779296875 495.1944885253906 264.7899169921875 460.5960693359375 C 256.8660888671875 444.0330505371094 251.1546173095703 426.7346496582031 250.9705352783203 408.14599609375 C 250.9705352783203 391.3991394042969 256.6819458007812 376.8618774414062 267.5543823242188 364.1629943847656 C 281.1896667480469 348.1515502929688 298.6939086914062 338.2138366699219 317.6741638183594 330.1161804199219 C 336.4687194824219 322.2039489746094 355.817138671875 316.498046875 375.9018859863281 313.0015869140625 C 393.4061889648438 309.8728332519531 411.09619140625 307.29736328125 428.9703979492188 305.4555358886719 C 444.4481506347656 303.6153869628906 460.1114807128906 303.0638427734375 477.0635681152344 301.9590454101562 C 493.4634094238281 303.2476806640625 511.1533203125 303.9847106933594 528.4735717773438 306.3764953613281 C 550.4008178710938 309.1374816894531 571.2235107421875 315.5787658691406 588.727783203125 329.7484436035156 C 600.8904418945312 339.686279296875 609.366455078125 352.201171875 614.8938598632812 366.5546569824219 C 626.318603515625 396.1842651367188 628.5291748046875 426.9185180664062 626.1344604492188 458.2043151855469 C 624.2919921875 484.7050170898438 619.1328125 510.4688720703125 609.7345581054688 535.3134155273438 C 597.9417114257812 566.5990600585938 581.5419921875 594.5723876953125 553.9017944335938 614.6318359375 C 535.9635620117188 627.7171630859375 516.044189453125 633.814453125 494.4806213378906 633.8147583007812 C 490.5704040527344 633.8147583007812 486.6075744628906 633.6141967773438 482.5909423828125 633.21875 Z M 70.02214050292969 586.2908325195312 C 46.25079345703125 573.9613037109375 27.27219390869141 556.6613159179688 13.08302402496338 534.0245971679688 C 6.265390396118164 523.3516845703125 1.106144905090332 511.941162109375 0.7379828691482544 498.69091796875 C 0.7379828691482544 498.1392822265625 0.1840810775756836 497.5861511230469 0 497.0346374511719 L 0 491.8818359375 C 0.7379828691482544 487.6483154296875 1.474307060241699 483.6002502441406 2.580452442169189 479.5524597167969 C 7.187455177307129 463.1732482910156 17.50594902038574 450.6582641601562 29.85098648071289 439.8012390136719 C 49.75165176391602 422.1334838867188 72.96908569335938 409.6185302734375 96.92450714111328 398.57763671875 C 109.8234481811523 392.6878356933594 122.9064788818359 386.9834899902344 136.1735534667969 382.3823547363281 C 155.3362731933594 375.5732727050781 174.8687438964844 371.7074890136719 195.1375427246094 374.468505859375 C 213.7479705810547 377.2295227050781 226.8310546875 387.5350646972656 231.2539215087891 407.4106140136719 C 234.5707550048828 421.7658386230469 233.6486663818359 436.3031005859375 230.5159759521484 450.6582641601562 C 222.0399169921875 490.7771301269531 205.0879211425781 527.3995971679688 179.8439025878906 559.7902221679688 C 168.4193115234375 574.512939453125 155.1521606445312 587.3954467773438 137.0939788818359 594.3884887695312 C 132.4869842529297 596.0447998046875 127.327751159668 597.1495971679688 122.1684722900391 597.7011108398438 C 119.1901931762695 598.0545043945312 116.2481842041016 598.2239990234375 113.3423004150391 598.2239990234375 C 98.09030914306641 598.224365234375 83.79599761962891 593.5559692382812 70.02214050292969 586.2908325195312 Z M 154.5999298095703 359.7456359863281 C 133.4090728759766 356.0654296875 112.218147277832 352.201171875 91.21134948730469 347.046875 C 74.62746429443359 343.1827087402344 58.96564865112305 336.3736572265625 45.51446151733398 325.3311462402344 C 27.27219390869141 310.4244079589844 18.61209106445312 292.0213012695312 18.61209106445312 261.1048278808594 C 18.98025512695312 244.9095306396484 26.71995162963867 224.1130523681641 39.61723709106445 205.1584014892578 C 49.93738555908203 189.8840026855469 62.83466720581055 177.0013275146484 79.97245788574219 169.0875244140625 C 101.531494140625 159.1497344970703 121.9843902587891 161.5431060791016 141.3328094482422 175.5288696289062 C 157.7326202392578 187.4906311035156 169.7095031738281 203.1343841552734 180.5802154541016 219.8812408447266 C 194.2171630859375 241.4130859375 206.7462768554688 263.4964904785156 216.6965942382812 287.0523376464844 C 221.6718139648438 299.1996459960938 225.9105834960938 311.7130126953125 226.0947113037109 324.9634094238281 C 226.27880859375 344.1036071777344 217.0647430419922 355.5138549804688 198.2702789306641 359.7456359863281 C 191.4705200195312 361.2070922851562 184.6691741943359 361.8255310058594 177.8695983886719 361.8255920410156 C 170.1122283935547 361.82568359375 162.3565979003906 361.0210571289062 154.5999298095703 359.7456359863281 Z M 264.0535888671875 322.7555541992188 C 246.3635711669922 318.3381958007812 235.6768951416016 306.3764953613281 229.4114379882812 289.8134155273438 C 222.7779388427734 271.7779541015625 221.8558197021484 253.0071868896484 221.8558197021484 235.3394470214844 C 222.7779388427734 185.6505279541016 230.1477813720703 138.5387420654297 248.7582092285156 93.44931793212891 C 258.1562805175781 70.63050079345703 270.5030212402344 49.46632766723633 287.8232116699219 31.61474418640137 C 302.3805236816406 16.52420425415039 319.7007751464844 6.034868240356445 340.33935546875 1.801368951797485 C 355.4490051269531 -1.143529176712036 370.9266967773438 -0.2226275354623795 386.0362548828125 2.722270965576172 C 409.0696411132812 7.321812152862549 430.2605895996094 16.15650749206543 449.9771118164062 28.48598861694336 C 469.6937255859375 40.63328552246094 486.645751953125 55.53997039794922 499.3605651855469 75.04618072509766 C 517.2330932617188 102.4678955078125 519.2611694335938 131.1765289306641 506.5464477539062 161.1737365722656 C 494.5694580078125 189.7001342773438 476.1431884765625 213.6236877441406 454.5840454101562 235.3394470214844 C 430.6287231445312 260.0000915527344 403.726318359375 281.164306640625 372.9532165527344 296.6224365234375 C 349.9199523925781 308.4004211425781 325.9661254882812 317.9704895019531 300.5380859375 322.9394226074219 C 294.1457824707031 324.0998229980469 287.7521057128906 324.8539123535156 281.3604125976562 324.8540954589844 C 275.5907592773438 324.8541564941406 269.8230590820312 324.2398986816406 264.0535888671875 322.7555541992188 Z" transform="matrix(1,0,0,1,529,252)" fill="#95c12b" fill-rule="evenodd"/></svg>