<svg xmlns="http://www.w3.org/2000/svg" width="132.002" height="118.414" viewBox="817 1872 132.002 118.414"><g data-name="Group 70"><g data-name="Group 67"><g data-name="Group 66" transform="translate(817 1870.001)" clip-path="url(&quot;#a&quot;)"><path d="M69.633 76.5c.68 0 1.352-.071 2.025-.204.663-.14 1.31-.345 1.938-.618.63-.267 1.233-.603 1.795-.992.57-.397 1.089-.839 1.574-1.335.483-.504.91-1.044 1.291-1.637.374-.582.698-1.202.962-1.856.255-.655.451-1.328.587-2.017.135-.69.204-1.39.204-2.096a2.312 2.312 0 0 0-.647-1.61 2.043 2.043 0 0 0-.714-.496 2.145 2.145 0 0 0-.842-.176c-.29 0-.57.06-.841.176a2.034 2.034 0 0 0-.715.496 2.312 2.312 0 0 0-.647 1.61 6.083 6.083 0 0 1-.485 2.335 6.148 6.148 0 0 1-1.3 1.972c-.562.565-1.2 1-1.924 1.31-.731.308-1.48.46-2.261.46-.783 0-1.54-.152-2.262-.46a5.926 5.926 0 0 1-1.924-1.31 6.343 6.343 0 0 1-1.31-1.972 6.434 6.434 0 0 1-.483-2.335V53.034a6.508 6.508 0 0 1 .484-2.335 6.208 6.208 0 0 1 1.31-1.964 5.85 5.85 0 0 1 4.185-1.778c.782 0 1.53.16 2.261.46a5.88 5.88 0 0 1 1.924 1.318 6.02 6.02 0 0 1 1.3 1.964c.315.752.477 1.53.485 2.335a2.347 2.347 0 0 0 .647 1.618 2.122 2.122 0 0 0 1.556.664c.289 0 .57-.052.842-.168a2.241 2.241 0 0 0 1.19-1.238c.112-.275.17-.566.17-.876a10.595 10.595 0 0 0-.228-2.069 10.959 10.959 0 0 0-.604-2 11.154 11.154 0 0 0-.97-1.831 10.434 10.434 0 0 0-1.294-1.6 10.163 10.163 0 0 0-1.564-1.318 9.863 9.863 0 0 0-1.778-.973 9.999 9.999 0 0 0-3.937-.805c-.681 0-1.344.062-2.007.202a9.826 9.826 0 0 0-1.93.603c-.623.265-1.217.583-1.787.973a10.471 10.471 0 0 0-2.85 2.918 11.154 11.154 0 0 0-.97 1.83c-.263.648-.467 1.31-.612 2.001-.136.681-.212 1.37-.22 2.069v12.711c0 .707.068 1.406.195 2.096.136.69.332 1.362.595 2.017.264.654.578 1.274.962 1.856.374.593.808 1.133 1.283 1.637.485.496 1.013.938 1.574 1.335.57.39 1.165.725 1.795.992a10.02 10.02 0 0 0 1.947.618c.664.133 1.344.204 2.025.204" fill-rule="evenodd" data-name="Path 222"/><path d="M92.842 76.5c.681 0 1.352-.071 2.025-.204a10.24 10.24 0 0 0 3.733-1.61c.57-.397 1.09-.839 1.575-1.335.483-.504.91-1.044 1.291-1.637.374-.582.698-1.202.962-1.856.255-.655.45-1.328.586-2.017.136-.69.204-1.39.204-2.096a2.313 2.313 0 0 0-.647-1.61 2.043 2.043 0 0 0-.713-.496 2.145 2.145 0 0 0-.842-.176c-.29 0-.57.06-.841.176a2.034 2.034 0 0 0-.716.496 2.312 2.312 0 0 0-.646 1.61 6.083 6.083 0 0 1-.485 2.335 6.148 6.148 0 0 1-1.3 1.972c-.562.565-1.2 1-1.924 1.31-.732.308-1.48.46-2.262.46s-1.54-.152-2.261-.46a5.926 5.926 0 0 1-1.924-1.31 6.343 6.343 0 0 1-1.31-1.972 6.434 6.434 0 0 1-.483-2.335V53.034a6.508 6.508 0 0 1 .483-2.335 6.208 6.208 0 0 1 1.31-1.964 5.849 5.849 0 0 1 4.185-1.778c.783 0 1.53.16 2.262.46a5.88 5.88 0 0 1 1.924 1.318 6.02 6.02 0 0 1 1.3 1.964c.315.752.476 1.53.485 2.335a2.347 2.347 0 0 0 .646 1.618 2.122 2.122 0 0 0 1.556.664c.29 0 .57-.052.843-.168a2.242 2.242 0 0 0 1.19-1.238c.112-.275.17-.566.17-.876a10.596 10.596 0 0 0-.228-2.069 10.96 10.96 0 0 0-.604-2 11.156 11.156 0 0 0-.97-1.831 10.435 10.435 0 0 0-1.294-1.6 10.163 10.163 0 0 0-1.564-1.318 9.863 9.863 0 0 0-1.778-.973 10.18 10.18 0 0 0-1.93-.603 9.641 9.641 0 0 0-2.008-.202c-.68 0-1.344.062-2.007.202a9.826 9.826 0 0 0-1.93.603 9.931 9.931 0 0 0-1.786.973 10.662 10.662 0 0 0-2.858 2.918 11.77 11.77 0 0 0-.962 1.83 10.984 10.984 0 0 0-.833 4.07v12.711c0 .707.069 1.406.196 2.096.136.69.332 1.362.595 2.017.264.654.578 1.274.962 1.856.373.593.808 1.133 1.291 1.637.477.496 1.005.938 1.566 1.335.57.39 1.165.725 1.795.992a10.02 10.02 0 0 0 1.946.618c.665.133 1.344.204 2.025.204" fill-rule="evenodd" data-name="Path 223"/><path d="M33.901 76.2c.273.105.554.16.843.14a2.11 2.11 0 0 0 .832-.193c.273-.134.503-.302.708-.523.194-.221.347-.469.45-.761l2.543-7.014h12.086l2.534 7.014c.162.452.434.805.808 1.08.383.265.799.406 1.26.406.262 0 .517-.053.773-.15a2.256 2.256 0 0 0 1.225-1.194c.118-.275.186-.567.195-.867.01-.3-.033-.593-.136-.875l-3.046-8.394a1.88 1.88 0 0 0-.1-.292L47.38 43.924a2.226 2.226 0 0 0-.806-1.071 2.088 2.088 0 0 0-1.251-.406c-.46 0-.875.132-1.26.406a2.152 2.152 0 0 0-.798 1.071l-7.502 20.644a2.006 2.006 0 0 0-.103.292l-3.044 8.403a2.194 2.194 0 0 0-.145.875 2.337 2.337 0 0 0 .697 1.593c.214.204.46.361.732.468m11.423-24.996 4.38 12.083h-8.77l4.39-12.083Z" fill-rule="evenodd" data-name="Path 224"/><path d="M13.974 76.5c.289 0 .57-.053.842-.168.271-.124.51-.284.714-.496.204-.22.366-.459.477-.742.109-.284.17-.576.17-.876V61.676h9.806v12.542c0 .3.06.592.17.876.11.283.272.521.476.742.204.212.443.372.716.496.27.115.551.168.84.168.29 0 .57-.053.843-.168.271-.124.51-.284.714-.496.204-.22.366-.459.477-.742.11-.284.17-.576.17-.876V44.57a2.354 2.354 0 0 0-.647-1.619 2.16 2.16 0 0 0-.714-.496 2.135 2.135 0 0 0-.842-.168 2.122 2.122 0 0 0-1.557.664c-.204.213-.366.46-.477.742-.109.284-.17.568-.17.877V57.11h-9.806V44.57c0-.31-.06-.593-.17-.877a2.259 2.259 0 0 0-1.19-1.238 2.135 2.135 0 0 0-.842-.168c-.29 0-.57.053-.843.168a2.259 2.259 0 0 0-1.19 1.238c-.11.284-.17.568-.17.877v29.648c0 .3.06.592.17.876.11.283.272.521.476.742.204.212.443.372.714.496.273.115.554.168.843.168" fill-rule="evenodd" data-name="Path 225"/><path d="M107.897 76.5c.289 0 .57-.054.843-.168.263-.124.5-.284.713-.496.204-.22.366-.46.477-.744.111-.282.162-.574.162-.874V61.1h4.678c.595 0 1.183-.062 1.769-.186a8.672 8.672 0 0 0 1.701-.53 9.284 9.284 0 0 0 1.573-.877 8.842 8.842 0 0 0 1.37-1.166 9.502 9.502 0 0 0 1.973-3.052c.22-.576.4-1.158.51-1.76a9.525 9.525 0 0 0 0-3.672 9.896 9.896 0 0 0-.51-1.769 9.502 9.502 0 0 0-1.973-3.05 8.76 8.76 0 0 0-1.37-1.168 9.285 9.285 0 0 0-1.573-.876 9.417 9.417 0 0 0-1.701-.53 8.515 8.515 0 0 0-1.769-.187h-6.873c-.297 0-.578.063-.841.178a2.121 2.121 0 0 0-.715.495c-.204.212-.366.46-.477.743-.11.274-.17.566-.17.866v29.659c0 .3.06.592.17.874.11.275.264.523.477.744.204.212.442.372.715.486.263.124.544.178.841.178m2.195-29.658h4.678c.62 0 1.215.124 1.785.372a4.718 4.718 0 0 1 1.524 1.053 4.907 4.907 0 0 1 1.36 3.422c0 .645-.111 1.265-.35 1.858a4.978 4.978 0 0 1-1.01 1.574 4.566 4.566 0 0 1-1.524 1.044c-.57.247-1.164.37-1.785.37h-4.678v-9.693Z" fill-rule="evenodd" data-name="Path 226"/></g></g><g data-name="Group 69"><g data-name="Group 68" transform="translate(817 1870)" clip-path="url(&quot;#b&quot;)"><path d="M10.752 86.604h3.707a59.645 59.645 0 0 0 3.947 7.263 58.207 58.207 0 0 0 10.632 12.446 56.373 56.373 0 0 0 6.472 4.936 55.853 55.853 0 0 0 7.076 3.954 56.093 56.093 0 0 0 7.544 2.875 55.47 55.47 0 0 0 7.86 1.751 55.17 55.17 0 0 0 23.89-1.75 55.988 55.988 0 0 0 14.62-6.83 57.256 57.256 0 0 0 6.474-4.936 59.815 59.815 0 0 0 5.74-5.829 59.204 59.204 0 0 0 4.89-6.617 60.784 60.784 0 0 0 3.947-7.263h3.7c.706 0 1.404-.07 2.093-.212a10.084 10.084 0 0 0 2.015-.637 10.779 10.779 0 0 0 1.863-1.036c.586-.406 1.13-.866 1.623-1.379.503-.521.954-1.08 1.344-1.69.392-.61.724-1.257.996-1.928.263-.68.467-1.372.613-2.089.135-.725.204-1.45.204-2.175V46.956c0-.734-.069-1.459-.204-2.176a12.57 12.57 0 0 0-.613-2.087 11.756 11.756 0 0 0-.996-1.93c-.39-.61-.84-1.166-1.344-1.69a10.747 10.747 0 0 0-1.623-1.387 10.618 10.618 0 0 0-1.863-1.026 9.87 9.87 0 0 0-2.015-.637 10.295 10.295 0 0 0-2.094-.212h-3.699a60.676 60.676 0 0 0-3.946-7.264 59.184 59.184 0 0 0-4.891-6.616 59.834 59.834 0 0 0-5.74-5.83 58.352 58.352 0 0 0-6.473-4.945 56.585 56.585 0 0 0-7.084-3.945 56.213 56.213 0 0 0-7.537-2.876 54.854 54.854 0 0 0-7.86-1.75 55.361 55.361 0 0 0-16.03 0 54.317 54.317 0 0 0-7.86 1.75 56.319 56.319 0 0 0-7.544 2.876 55.8 55.8 0 0 0-7.076 3.945 57.436 57.436 0 0 0-6.472 4.944 58.188 58.188 0 0 0-10.632 12.446 59.541 59.541 0 0 0-3.947 7.265h-3.707c-.707 0-1.404.07-2.094.212a9.869 9.869 0 0 0-2.015.637c-.655.282-1.275.618-1.863 1.026-.586.406-1.122.875-1.623 1.388a10.91 10.91 0 0 0-1.336 1.69c-.4.611-.723 1.256-.996 1.929-.271.67-.475 1.37-.612 2.087A11.038 11.038 0 0 0 0 46.956v28.502c0 .725.069 1.45.213 2.175.137.717.34 1.408.612 2.09.273.67.596 1.317.996 1.927a10.83 10.83 0 0 0 4.822 4.105c.647.282 1.318.495 2.015.637.69.141 1.387.212 2.094.212m55.25 29.246c-2.392 0-4.773-.168-7.137-.504a52.869 52.869 0 0 1-7.009-1.514 51.618 51.618 0 0 1-6.736-2.476 51.531 51.531 0 0 1-6.36-3.397 52.87 52.87 0 0 1-5.861-4.265 54.026 54.026 0 0 1-5.247-5.042 56.049 56.049 0 0 1-4.543-5.733 55.686 55.686 0 0 1-3.751-6.315h93.303a54.112 54.112 0 0 1-3.751 6.325 54.009 54.009 0 0 1-4.542 5.733 53.41 53.41 0 0 1-11.108 9.306 52.153 52.153 0 0 1-6.361 3.396 52.986 52.986 0 0 1-6.745 2.477 50.845 50.845 0 0 1-14.153 2.01m0-109.286c2.39 0 4.772.169 7.136.505 2.373.336 4.703.839 7.007 1.511a51.187 51.187 0 0 1 6.746 2.468 53.401 53.401 0 0 1 6.36 3.407 52.568 52.568 0 0 1 5.862 4.255 54.23 54.23 0 0 1 5.248 5.043 53.673 53.673 0 0 1 4.542 5.732 54.94 54.94 0 0 1 3.75 6.325H19.359a56.425 56.425 0 0 1 3.75-6.325 54.228 54.228 0 0 1 9.79-10.766 51.58 51.58 0 0 1 5.861-4.264 51.308 51.308 0 0 1 6.36-3.397 50.187 50.187 0 0 1 6.737-2.478 51.55 51.55 0 0 1 7.009-1.511A50.641 50.641 0 0 1 66 6.565M4.398 46.956c0-.876.17-1.715.485-2.52a6.497 6.497 0 0 1 1.378-2.134 6.28 6.28 0 0 1 2.066-1.431 6.023 6.023 0 0 1 2.425-.505H121.25c.843 0 1.651.168 2.433.505a6.333 6.333 0 0 1 2.058 1.431 6.497 6.497 0 0 1 1.378 2.134c.324.805.485 1.644.485 2.52v28.502c0 .868-.161 1.707-.485 2.522a6.58 6.58 0 0 1-1.378 2.131 6.339 6.339 0 0 1-2.058 1.434 6.426 6.426 0 0 1-2.433.503H10.752a6.353 6.353 0 0 1-2.425-.503A6.286 6.286 0 0 1 6.26 80.11a6.58 6.58 0 0 1-1.378-2.131 6.943 6.943 0 0 1-.485-2.522V46.956Z" fill-rule="evenodd" data-name="Path 227"/></g></g></g><defs><clipPath id="a"><path d="M0 0h132v118.593H0V0z" data-name="Rectangle 62"/></clipPath><clipPath id="b"><path d="M0 0h132v118.573H0V0z" data-name="Rectangle 63"/></clipPath></defs></svg>