<svg xmlns="http://www.w3.org/2000/svg" width="54.002" height="47.847" viewBox="57 1374.58 54.002 47.847"><path d="M70.302 1374.707c-10.626 1.113-15.613 10.157-12.276 22.265 2.1 7.611 6.954 14.143 14.748 19.835a86.273 86.273 0 0 0 8.444 5.49 3.187 3.187 0 0 0 3.637-1.426c.673-1.043 1-.673-5.125-5.753-5.98-4.954-5.738-4.7-5.066-5.375.552-.552.362-.679 7.276 5.066 6.93 5.756 6.655 5.564 7.412 5.171a4.521 4.521 0 0 0 1.832-2.652c.029-.315-.19-.5-6.24-5.3-7.451-5.914-7.05-5.515-6.33-6.233.576-.576-.3-1.179 8.535 5.846 5.244 4.164 6.64 5.227 6.882 5.227 1.018 0 2.614-1.773 2.614-2.9 0-.56.7.086-6.975-6.416-6.66-5.64-6.716-5.7-6.4-6.256.515-.92.395-1 7.28 4.827 9.38 7.94 8.686 7.376 9.08 7.376 1.77 0 3.267-3.433 2.3-5.27-.286-.545-10.13-14.628-10.586-15.15-.545-.618-.564-.61-5.353 2.146-5.49 3.153-5.644 3.22-7.65 3.213a7.253 7.253 0 0 1-6.085-11.126c.588-.944.9-1.24 5.534-5.262 3.732-3.24 4.214-3.708 4.215-4.082.006-1.69-7.258-3.707-11.691-3.243m23.552.008a19.661 19.661 0 0 0-9.746 4.048c-1.535 1.24-9.96 8.665-10.186 8.973a5.593 5.593 0 0 0 4.53 8.974c1.413 0 1.85-.2 6.563-2.888 4.342-2.478 4.378-2.508 4.508-3.266.135-.816.986-1.288 1.5-.828.115.1.816 1.063 1.556 2.134 1.564 2.268 1.512 2.214 2.208 2.214a6.174 6.174 0 0 0 3.576-1.366c.828-.615.978-.644 1.427-.264.9.755-.536 2.153-3.06 2.983-1.41.46-1.574.092 2.82 6.363 2 2.852 3.757 5.454 3.909 5.783.53 1.154 1.03 1.088 1.966-.265 5.527-7.983 7.153-18.4 3.9-24.99-2.652-5.383-8.852-8.436-15.484-7.63" fill="#95c12b" fill-rule="evenodd" data-name="path0"/></svg>