<svg xmlns="http://www.w3.org/2000/svg" width="42.045" height="37.252" viewBox="185.477 8623.063 42.045 37.252"><g data-name="path0"><path d="M196.334 8623.662c-8.273.867-12.156 7.908-9.558 17.336 1.635 5.925 5.414 11.011 11.482 15.443a67.17 67.17 0 0 0 6.575 4.273 2.481 2.481 0 0 0 2.832-1.11c.524-.811.778-.523-3.99-4.478-4.657-3.857-4.468-3.66-3.945-4.185.43-.43.282-.529 5.665 3.944 5.396 4.482 5.181 4.332 5.77 4.026a3.52 3.52 0 0 0 1.427-2.065c.023-.245-.148-.389-4.857-4.126-5.802-4.605-5.49-4.294-4.93-4.853.449-.448-.233-.918 6.646 4.552 4.082 3.242 5.17 4.07 5.358 4.07.792 0 2.035-1.381 2.035-2.259 0-.436.545.067-5.43-4.995-5.186-4.391-5.23-4.438-4.984-4.87.401-.717.308-.78 5.67 3.757 7.302 6.182 6.761 5.743 7.069 5.743 1.378 0 2.543-2.673 1.79-4.103-.223-.424-7.886-11.39-8.242-11.795-.425-.482-.44-.475-4.168 1.67-4.274 2.455-4.394 2.507-5.956 2.502a5.647 5.647 0 0 1-4.738-8.663c.458-.735.7-.965 4.309-4.096 2.906-2.524 3.28-2.887 3.282-3.179.004-1.316-5.651-2.886-9.103-2.525m18.337.007c-2.769.34-5.393 1.429-7.588 3.151-1.195.966-7.754 6.747-7.93 6.987a4.355 4.355 0 0 0 3.527 6.987c1.1 0 1.44-.156 5.11-2.249 3.38-1.93 3.408-1.953 3.51-2.543.104-.635.767-1.003 1.167-.644.09.077.635.827 1.212 1.661 1.217 1.766 1.177 1.724 1.719 1.724a4.807 4.807 0 0 0 2.784-1.064c.645-.479.761-.501 1.111-.205.7.588-.417 1.676-2.382 2.322-1.098.358-1.226.072 2.195 4.954 1.557 2.22 2.925 4.247 3.044 4.503.412.898.802.847 1.53-.206 4.304-6.216 5.57-14.326 3.037-19.457-2.065-4.191-6.892-6.568-12.056-5.942" fill="#fff" fill-rule="evenodd"/><path d="M196.334 8623.662c-8.273.867-12.156 7.908-9.558 17.336 1.635 5.925 5.414 11.011 11.482 15.443a67.17 67.17 0 0 0 6.575 4.273 2.481 2.481 0 0 0 2.832-1.11c.524-.811.778-.523-3.99-4.478-4.657-3.857-4.468-3.66-3.945-4.185.43-.43.282-.529 5.665 3.944 5.396 4.482 5.181 4.332 5.77 4.026a3.52 3.52 0 0 0 1.427-2.065c.023-.245-.148-.389-4.857-4.126-5.802-4.605-5.49-4.294-4.93-4.853.449-.448-.233-.918 6.646 4.552 4.082 3.242 5.17 4.07 5.358 4.07.792 0 2.035-1.381 2.035-2.259 0-.436.545.067-5.43-4.995-5.186-4.391-5.23-4.438-4.984-4.87.401-.717.308-.78 5.67 3.757 7.302 6.182 6.761 5.743 7.069 5.743 1.378 0 2.543-2.673 1.79-4.103-.223-.424-7.886-11.39-8.242-11.795-.425-.482-.44-.475-4.168 1.67-4.274 2.455-4.394 2.507-5.956 2.502a5.647 5.647 0 0 1-4.738-8.663c.458-.735.7-.965 4.309-4.096 2.906-2.524 3.28-2.887 3.282-3.179.004-1.316-5.651-2.886-9.103-2.525m18.337.007c-2.769.34-5.393 1.429-7.588 3.151-1.195.966-7.754 6.747-7.93 6.987a4.355 4.355 0 0 0 3.527 6.987c1.1 0 1.44-.156 5.11-2.249 3.38-1.93 3.408-1.953 3.51-2.543.104-.635.767-1.003 1.167-.644.09.077.635.827 1.212 1.661 1.217 1.766 1.177 1.724 1.719 1.724a4.807 4.807 0 0 0 2.784-1.064c.645-.479.761-.501 1.111-.205.7.588-.417 1.676-2.382 2.322-1.098.358-1.226.072 2.195 4.954 1.557 2.22 2.925 4.247 3.044 4.503.412.898.802.847 1.53-.206 4.304-6.216 5.57-14.326 3.037-19.457-2.065-4.191-6.892-6.568-12.056-5.942" stroke-linejoin="round" stroke-linecap="round" stroke="rgba(0,0,0,0 )" fill="transparent"/></g></svg>