<svg xmlns="http://www.w3.org/2000/svg" width="29.148" height="35.192" viewBox="582.426 5679.404 29.148 35.192"><path d="M586.483 5714.596a4 4 0 0 1-4.057-3.942v-27.25a4.066 4.066 0 0 1 4.12-4h18.068a3.233 3.233 0 0 1 3.275 3.18v2.75h.64a3.002 3.002 0 0 1 3.045 2.956v23.35a3 3 0 0 1-3.044 2.956h-22.047Zm9.067-18.43v-8.86h-6.997v8.86l3.498-2.896 3.499 2.896Zm10.226-10.832v-2.75a1.148 1.148 0 0 0-1.163-1.126h-18.068a1.982 1.982 0 0 0-2.008 1.946 1.97 1.97 0 0 0 1.802 1.93h19.437Z" fill="#fff" fill-rule="evenodd" data-name="União 20"/></svg>