<svg xmlns="http://www.w3.org/2000/svg" width="28.124" height="36" viewBox="465.001 1923.626 28.124 36"><g data-name="hot-sale"><path d="M486.394 1930.428c-3.272-3.912-6.502-6.455-6.638-6.562-.737-.576-1.818-.05-1.818.886v4.947c0 2.555-3.38 3.454-4.647 1.234a1.126 1.126 0 0 0-1.848-.156c-3.405 4.155-6.442 9.393-6.442 14.787 0 7.754 6.308 14.062 14.062 14.062s14.062-6.308 14.062-14.062c0-5.533-3.195-10.907-6.73-15.136Zm-13.518 11.199c0-1.241 1.01-2.25 2.25-2.25s2.25 1.009 2.25 2.25c0 1.24-1.01 2.25-2.25 2.25a2.252 2.252 0 0 1-2.25-2.25Zm3.138 9.69a1.125 1.125 0 1 1-1.776-1.381l7.874-10.125a1.125 1.125 0 0 1 1.776 1.381l-7.874 10.125Zm6.986.434a2.252 2.252 0 0 1-2.25-2.25c0-1.24 1.01-2.25 2.25-2.25s2.25 1.01 2.25 2.25c0 1.241-1.01 2.25-2.25 2.25Z" fill-rule="evenodd" data-name="Path 3232"/></g></svg>