<svg xmlns="http://www.w3.org/2000/svg" width="49.126" height="48.417" viewBox="51.483 3954.558 49.126 48.417"><g data-name="União 207"><path d="M60.541 4003.037a1.496 1.496 0 0 1 0-2.122l5.1-5.1a1.5 1.5 0 0 1 2.122 2.12l-5.1 5.1a1.5 1.5 0 0 1-2.121 0Zm-6.177-1.943a1.5 1.5 0 0 1 0-2.121l5.951-5.95a1.5 1.5 0 0 1 2.122 2.12l-5.95 5.95a1.5 1.5 0 0 1-2.122 0Zm25.322-1.315a1.921 1.921 0 0 1-.808-1.456l-.417-6.634a53.766 53.766 0 0 1-7.554 2.626 5.222 5.222 0 0 1-3.4-.21 9.982 9.982 0 0 1-5.44-5.44 5.23 5.23 0 0 1-.211-3.4 53.661 53.661 0 0 1 2.628-7.556l-6.637-.416a1.927 1.927 0 0 1-1.739-2.452c3.831-12.558 14.85-10.444 17.042-9.882 9.253-8.915 20.583-9.929 25.444-9.9a2.527 2.527 0 0 1 2.514 2.514c.027 4.86-.986 16.186-9.9 25.444.56 2.194 2.677 13.213-9.882 17.043a1.932 1.932 0 0 1-1.645-.284Zm-.045-32.633a6.63 6.63 0 0 0 7.23 10.812 6.632 6.632 0 1 0-7.23-10.812Zm-27.22 27.771a1.5 1.5 0 0 1 0-2.12l5.1-5.1a1.5 1.5 0 1 1 2.122 2.121l-5.1 5.1a1.5 1.5 0 0 1-2.121.002Z" fill="#95c12b" fill-rule="evenodd"/><path d="M60.541 4003.037a1.496 1.496 0 0 1 0-2.122l5.1-5.1a1.5 1.5 0 0 1 2.122 2.12l-5.1 5.1a1.5 1.5 0 0 1-2.121 0Zm-6.177-1.943a1.5 1.5 0 0 1 0-2.121l5.951-5.95a1.5 1.5 0 0 1 2.122 2.12l-5.95 5.95a1.5 1.5 0 0 1-2.122 0Zm25.322-1.315a1.921 1.921 0 0 1-.808-1.456l-.417-6.634a53.766 53.766 0 0 1-7.554 2.626 5.222 5.222 0 0 1-3.4-.21 9.982 9.982 0 0 1-5.44-5.44 5.23 5.23 0 0 1-.211-3.4 53.661 53.661 0 0 1 2.628-7.556l-6.637-.416a1.927 1.927 0 0 1-1.739-2.452c3.831-12.558 14.85-10.444 17.042-9.882 9.253-8.915 20.583-9.929 25.444-9.9a2.527 2.527 0 0 1 2.514 2.514c.027 4.86-.986 16.186-9.9 25.444.56 2.194 2.677 13.213-9.882 17.043a1.932 1.932 0 0 1-1.645-.284Zm-.045-32.633a6.63 6.63 0 0 0 7.23 10.812 6.632 6.632 0 1 0-7.23-10.812Zm-27.22 27.771a1.5 1.5 0 0 1 0-2.12l5.1-5.1a1.5 1.5 0 1 1 2.122 2.121l-5.1 5.1a1.5 1.5 0 0 1-2.121.002Z" stroke-linejoin="round" stroke-linecap="round" stroke="rgba(0,0,0,0 )" fill="transparent"/></g></svg>