<svg xmlns="http://www.w3.org/2000/svg" width="72.963" height="73.254" viewBox="702.138 2721.808 72.963 73.254"><g data-name="Group 8052"><g data-name="Group 8087"><g data-name="Group 8086" transform="translate(702.13 2721.808)" clip-path="url(&quot;#a&quot;)"><path d="M72.971 36.627a37.067 37.067 0 0 1-.694 7.141 39.344 39.344 0 0 1-.876 3.492 35.67 35.67 0 0 1-1.206 3.384 37.238 37.238 0 0 1-1.529 3.251 35.047 35.047 0 0 1-1.842 3.078 33.458 33.458 0 0 1-2.132 2.886 36.605 36.605 0 0 1-2.404 2.662 33.216 33.216 0 0 1-2.652 2.414 38.216 38.216 0 0 1-2.875 2.148 35.775 35.775 0 0 1-3.074 1.841 35.998 35.998 0 0 1-10.08 3.625 39.534 39.534 0 0 1-3.544.531 36.817 36.817 0 0 1-7.147 0 39.534 39.534 0 0 1-3.544-.531 36.1 36.1 0 0 1-10.08-3.625 35.775 35.775 0 0 1-3.074-1.841 38.419 38.419 0 0 1-2.875-2.148 33.217 33.217 0 0 1-2.652-2.414 36.605 36.605 0 0 1-2.404-2.662 33.46 33.46 0 0 1-2.132-2.886 35.047 35.047 0 0 1-1.842-3.078 37.53 37.53 0 0 1-1.529-3.251 35.67 35.67 0 0 1-1.206-3.384 39.345 39.345 0 0 1-.876-3.492 37.068 37.068 0 0 1-.52-10.732c.115-1.195.289-2.381.52-3.559.24-1.169.529-2.339.876-3.483a35.67 35.67 0 0 1 1.206-3.384c.455-1.112.967-2.19 1.529-3.251a35.048 35.048 0 0 1 1.842-3.078 34.87 34.87 0 0 1 2.132-2.894 40.557 40.557 0 0 1 2.404-2.663 36.781 36.781 0 0 1 2.652-2.413 40.647 40.647 0 0 1 2.875-2.14 38.33 38.33 0 0 1 3.074-1.85 34.993 34.993 0 0 1 3.239-1.534A36.099 36.099 0 0 1 29.372.705a36.534 36.534 0 0 1 3.544-.531 36.77 36.77 0 0 1 7.147 0c1.19.116 2.371.299 3.544.531a35.997 35.997 0 0 1 6.841 2.082c1.108.456 2.19.97 3.239 1.534a38.33 38.33 0 0 1 3.074 1.85 40.42 40.42 0 0 1 2.875 2.14 36.78 36.78 0 0 1 2.652 2.413 40.557 40.557 0 0 1 2.404 2.663c.76.929 1.471 1.891 2.132 2.894a36.046 36.046 0 0 1 3.371 6.329 35.67 35.67 0 0 1 1.206 3.384c.347 1.144.636 2.314.876 3.483a37.067 37.067 0 0 1 .694 7.15" fill="#fff" fill-rule="evenodd" data-name="Path 8913"/></g></g><g data-name="Group 8089"><g data-name="Group 8088" transform="translate(702.13 2721.808)" clip-path="url(&quot;#b&quot;)"><path d="M36.486 62.065c-13.963 0-25.332-11.413-25.332-25.438 0-14.026 11.369-25.438 25.332-25.438 13.971 0 25.34 11.412 25.34 25.438 0 14.025-11.369 25.438-25.34 25.438" fill="#252627" fill-rule="evenodd" data-name="Path 8914"/><path d="m47.623 39.073-15.5-15.551.595-.589a.839.839 0 0 0 0-1.178.826.826 0 0 0-1.182 0l-9.865 9.895a.849.849 0 0 0 0 1.186.83.83 0 0 0 1.174 0l.586-.589 15.5 15.552a1.625 1.625 0 0 0 2.305 0l6.387-6.411a1.643 1.643 0 0 0 0-2.315m-2.074 1.51-5.123 5.134a.478.478 0 0 1-.694 0l-2.619-2.621c.009-.008.009-.008.017-.008l2.85-2.862a.62.62 0 0 0 .182-.448.615.615 0 0 0-.182-.439.63.63 0 0 0-.884 0l-2.85 2.861c0 .009-.008.009-.008.017l-3.198-3.218c.008 0 .008 0 .017-.008l2.842-2.854a.648.648 0 0 0 .182-.448.621.621 0 0 0-1.058-.439l-2.85 2.861c-.009 0-.009.009-.009.009l-3.197-3.21.008-.009 2.851-2.861a.615.615 0 0 0 .181-.44.589.589 0 0 0-.181-.439.607.607 0 0 0-.876 0l-2.851 2.853-.016.017-2.528-2.538 5.824-5.848 14.17 14.233a.493.493 0 0 1 0 .705" fill="#fff" fill-rule="evenodd" data-name="Path 8915"/><path d="m27.496 23.821-2.487-2.497 1.859-1.866a.904.904 0 0 0 0-1.269l-.041-.041a.88.88 0 0 0-1.264 0l-7.486 7.506a.904.904 0 0 0 0 1.269l.041.041a.88.88 0 0 0 1.265 0l1.859-1.866 2.486 2.497 3.768-3.774Z" fill="#fff" fill-rule="evenodd" data-name="Path 8916"/><path d="m51.977 51.59-4.776-4.794.818-.813a.416.416 0 0 0 0-.58l-1.264-1.269-2.784 2.803 1.256 1.261a.414.414 0 0 0 .578 0l.81-.813 4.775 4.794c.166.157.43.157.587 0a.412.412 0 0 0 0-.589" fill="#fff" fill-rule="evenodd" data-name="Path 8917"/><path d="M5.709 36.627c0-1.228.165-2.438.471-3.517.074-.249.008-.522-.149-.68-.132-.124-.305-.166-.462-.099a.542.542 0 0 0-.298.356c-.347 1.211-.529 2.571-.529 3.94 0 1.369.182 2.729.529 3.94.074.232.248.39.455.39a.43.43 0 0 0 .305-.133c.157-.158.223-.44.149-.689a12.978 12.978 0 0 1-.471-3.508" fill="#252627" fill-rule="evenodd" data-name="Path 8918"/><path d="M67.725 32.72a.545.545 0 0 0-.297-.357.422.422 0 0 0-.463.092c-.165.157-.223.431-.157.68.306 1.061.463 2.264.463 3.475 0 1.219-.157 2.43-.471 3.5-.075.249-.009.531.157.689a.42.42 0 0 0 .297.124c.207 0 .388-.149.454-.39.347-1.203.529-2.563.529-3.923 0-1.352-.173-2.696-.512-3.89" fill="#252627" fill-rule="evenodd" data-name="Path 8919"/><path d="m9.08 29.676-3.074-.886 3.628-1.021.272-.954-4.717-1.369-.257.887 3.148.914-3.7 1.02-.274.928 4.718 1.368.256-.887Z" fill="#252627" fill-rule="evenodd" data-name="Path 8920"/><path d="M6.94 24.244c.239.282.586.539 1.032.763.703.349 1.347.423 1.934.232.595-.19 1.049-.613 1.371-1.269.323-.646.372-1.269.166-1.857-.215-.581-.67-1.054-1.38-1.402-.719-.357-1.372-.44-1.967-.249-.594.191-1.057.614-1.379 1.261-.174.365-.273.705-.29 1.045-.016.249.017.497.116.763.091.265.223.498.397.713m.545-2.148c.182-.373.446-.605.81-.705.355-.1.785-.025 1.289.232.512.249.834.556.983.904.14.357.124.714-.05 1.07a1.235 1.235 0 0 1-.818.689c-.372.099-.809.033-1.305-.216-.504-.249-.835-.556-.967-.904-.14-.348-.124-.705.058-1.07" fill="#252627" fill-rule="evenodd" data-name="Path 8921"/><path d="m14.045 19.276-.595-1.029 1.273-1.509 1.123.398.703-.829-5.024-1.676-.677.805 2.511 4.644.686-.804Zm-1.991-3.492 1.826.664-.859 1.028-.967-1.692Z" fill="#252627" fill-rule="evenodd" data-name="Path 8922"/><path d="M18.326 14.813c.28-.24.487-.456.611-.646.157-.258.256-.515.281-.755.033-.315-.025-.647-.157-1.004-.108-.29-.298-.589-.554-.904-.297-.348-.586-.614-.867-.788a2.263 2.263 0 0 0-.876-.307 1.599 1.599 0 0 0-.851.133c-.207.083-.463.265-.777.523l-1.388 1.169 3.148 3.782 1.43-1.203Zm-2.95-2.861c.314-.265.529-.423.661-.489a.832.832 0 0 1 .496-.116c.165.008.338.066.52.182.182.108.397.315.636.605.248.291.414.548.504.755.091.216.124.39.108.531a1.006 1.006 0 0 1-.182.423c-.066.1-.215.241-.421.415l-.57.481-2.091-2.505.339-.282Z" fill="#252627" fill-rule="evenodd" data-name="Path 8923"/><path d="M22.299 11.985c.315-.183.555-.357.702-.531.207-.232.339-.456.405-.689.091-.306.091-.647.018-1.02-.059-.307-.191-.63-.398-.987-.231-.398-.47-.705-.719-.92a2.133 2.133 0 0 0-.809-.457 1.586 1.586 0 0 0-.859-.016c-.224.058-.504.182-.86.39l-1.56.912 2.469 4.263 1.611-.945Zm-2.428-3.318c.355-.207.594-.332.726-.373a.988.988 0 0 1 .512-.033 1.2 1.2 0 0 1 .488.273c.157.141.34.382.529.705.19.332.315.606.364.83.049.232.058.406.017.547a.995.995 0 0 1-.249.382 3.144 3.144 0 0 1-.496.34l-.636.373-1.636-2.82.381-.224Z" fill="#252627" fill-rule="evenodd" data-name="Path 8924"/><path d="m28.463 9.206-.297-.78-2.562.98-.479-1.252 2.305-.88-.289-.78-2.305.88-.388-1.02 2.478-.946-.297-.78-3.404 1.295 1.743 4.61 3.495-1.327Z" fill="#252627" fill-rule="evenodd" data-name="Path 8925"/><path d="M31.033 8.617c.363-.074.644-.165.842-.273.273-.15.471-.324.603-.523.182-.265.298-.58.347-.962a3.125 3.125 0 0 0-.057-1.053c-.091-.456-.215-.821-.38-1.112a2.012 2.012 0 0 0-.62-.688 1.584 1.584 0 0 0-.81-.299c-.223-.025-.537.009-.933.092l-1.777.356.959 4.827 1.826-.365Zm-1.215-3.931c.397-.083.661-.116.801-.116.19.008.356.05.496.141.141.083.265.224.372.415.107.182.198.464.273.837.074.374.099.672.074.904-.025.233-.074.407-.157.515a.941.941 0 0 1-.355.282c-.116.058-.306.107-.579.165l-.727.15-.636-3.202.438-.091Z" fill="#252627" fill-rule="evenodd" data-name="Path 8926"/><path d="m37.18 5.88 1.942.092-.108 2.148.992.05.239-4.918-.991-.05-.1 1.94-1.933-.1.09-1.931-.99-.05-.24 4.918.992.05.107-2.148Z" fill="#252627" fill-rule="evenodd" data-name="Path 8927"/><path d="M43.054 8.85c.702.166 1.314.074 1.834-.266.521-.34.868-.904 1.05-1.675.173-.788.099-1.443-.223-1.982-.323-.531-.835-.888-1.545-1.045a2.646 2.646 0 0 0-1.075-.05c-.239.05-.479.141-.718.298-.232.15-.43.332-.595.556-.215.299-.38.689-.496 1.178-.173.763-.099 1.418.223 1.949.322.531.835.879 1.545 1.037m-.76-2.787c.124-.556.339-.937.644-1.161.306-.216.661-.282 1.058-.191.397.091.686.299.868.63.173.324.206.763.074 1.311-.124.556-.339.945-.653 1.169a1.215 1.215 0 0 1-1.041.199 1.237 1.237 0 0 1-.859-.638c-.19-.332-.215-.78-.091-1.319" fill="#252627" fill-rule="evenodd" data-name="Path 8928"/><path d="m47.755 8.045.182.075c.214.091.355.174.437.249a.761.761 0 0 1 .199.307c.049.124.115.415.198.871l.24 1.269 1.099.464-.182-1.12a5.986 5.986 0 0 0-.207-.962 2.551 2.551 0 0 0-.33-.589c.421.117.776.1 1.074-.033a1.34 1.34 0 0 0 .653-.721c.115-.266.148-.531.107-.797a1.132 1.132 0 0 0-.347-.655c-.182-.182-.512-.365-1-.572l-1.917-.821-1.916 4.537.908.39.802-1.892Zm.793-1.874.711.299c.371.157.586.257.661.298a.648.648 0 0 1 .264.324.589.589 0 0 1-.033.423.581.581 0 0 1-.231.298.491.491 0 0 1-.339.083c-.124-.008-.405-.099-.843-.29l-.677-.29.487-1.145Z" fill="#252627" fill-rule="evenodd" data-name="Path 8929"/><path d="m51.25 12.002 2.132-3.235-1.322 3.774.793.523 2.949-2.688-2.139 3.235.768.506 2.718-4.106-1.239-.821-2.586 2.314 1.107-3.301-1.239-.821-2.71 4.106.768.514Z" fill="#252627" fill-rule="evenodd" data-name="Path 8930"/><path d="M55.819 14.581c0 .622.256 1.186.776 1.701.521.506 1.083.754 1.702.738.628-.017 1.215-.315 1.768-.879.562-.573.843-1.178.843-1.8.008-.631-.248-1.195-.76-1.709-.289-.274-.587-.481-.892-.597a1.789 1.789 0 0 0-.769-.133 2.377 2.377 0 0 0-.793.158c-.347.141-.694.39-1.041.746-.553.564-.826 1.153-.834 1.775m1.586-1.078c.397-.406.777-.622 1.157-.647.371-.025.702.108.999.39.29.29.422.622.405.995-.016.373-.223.755-.619 1.161-.397.407-.785.622-1.165.647a1.249 1.249 0 0 1-.992-.373 1.278 1.278 0 0 1-.396-.995c.016-.39.223-.78.611-1.178" fill="#252627" fill-rule="evenodd" data-name="Path 8931"/><path d="m59.306 19.2 2.61-1.857-1.462 3.484.579.812 3.999-2.861-.53-.755-2.676 1.908 1.512-3.55-.562-.788-4 2.853.53.755Z" fill="#252627" fill-rule="evenodd" data-name="Path 8932"/><path d="m63.172 25.878.744-.365-1.198-2.472 1.198-.588 1.082 2.222.744-.365-1.083-2.222.975-.481 1.165 2.388.744-.365-1.595-3.284-4.412 2.165 1.636 3.367Z" fill="#252627" fill-rule="evenodd" data-name="Path 8933"/><path d="M66.898 25.496a1.276 1.276 0 0 0-.81.722c-.124.265-.173.671-.14 1.219.016.423.025.705.025.821-.009.182-.042.315-.1.406a.46.46 0 0 1-.256.191.602.602 0 0 1-.52-.099c-.182-.117-.314-.324-.405-.631-.091-.29-.083-.547.008-.763.091-.215.289-.39.579-.547l-.372-.896c-.504.224-.843.539-1.025.937-.173.407-.173.904.009 1.501.124.407.28.73.479.971.198.24.438.398.719.481.28.075.553.075.818-.008a1.53 1.53 0 0 0 .694-.415c.165-.191.272-.406.322-.664.049-.265.058-.638.025-1.136-.033-.498-.017-.821.049-.97a.377.377 0 0 1 .24-.224.35.35 0 0 1 .338.058c.166.124.281.323.364.597.083.265.091.489.025.655-.066.166-.207.307-.438.415l.33.945c.43-.149.727-.414.893-.787.165-.382.165-.863-.017-1.46-.107-.357-.256-.655-.446-.871a1.37 1.37 0 0 0-.653-.448 1.229 1.229 0 0 0-.735 0" fill="#252627" fill-rule="evenodd" data-name="Path 8934"/><path d="m53.407 59.693 1.172 3.276-2.627-2.272-1.23.846 2.776 4.064.76-.523-2.182-3.201 2.982 2.654.785-.548-1.378-3.749 2.188 3.202.76-.523-2.775-4.064-1.231.838Z" fill="#252627" fill-rule="evenodd" data-name="Path 8935"/><path d="m9.65 45.95-3.13.962 2.543-2.895-.289-.928-4.693 1.45.273.88 3.057-.937-2.479 2.837.298.953 4.693-1.443-.273-.88Z" fill="#252627" fill-rule="evenodd" data-name="Path 8936"/><path d="M11.534 51.499c.199-.589.133-1.211-.198-1.858a2.693 2.693 0 0 0-.653-.855 2.004 2.004 0 0 0-.685-.364 2.234 2.234 0 0 0-.81-.1c-.372.025-.777.149-1.223.382-.694.356-1.14.829-1.338 1.418-.199.589-.133 1.211.198 1.866.33.639.793 1.053 1.388 1.228.595.182 1.248.091 1.95-.274.71-.365 1.173-.846 1.371-1.443m-3.131.771a1.273 1.273 0 0 1-.826-.68 1.276 1.276 0 0 1-.058-1.07c.132-.357.454-.664.942-.921.504-.257.942-.34 1.305-.249.364.1.636.324.826.689.182.365.207.721.075 1.07-.132.348-.446.647-.95.904-.504.265-.942.348-1.314.257" fill="#252627" fill-rule="evenodd" data-name="Path 8937"/><path d="m14.747 54.966-4.965 1.783.694.796 1.107-.431 1.289 1.493-.562 1.053.711.821 2.412-4.727-.686-.788Zm-1.462 2.853-.876-1.012 1.81-.705-.934 1.717Z" fill="#252627" fill-rule="evenodd" data-name="Path 8938"/><path d="M19.292 61.086c.115-.315.166-.622.14-.921a1.65 1.65 0 0 0-.289-.821c-.124-.182-.347-.406-.66-.663l-1.406-1.145-3.105 3.815 1.446 1.186c.28.233.537.39.742.473.289.116.555.158.793.141.314-.033.637-.141.951-.348.264-.158.528-.398.777-.713a3.53 3.53 0 0 0 .611-1.004m-.9-.423c-.075.199-.232.448-.472.746-.239.291-.454.506-.653.631-.19.133-.354.199-.495.207a.875.875 0 0 1-.438-.099c-.115-.05-.281-.166-.495-.34l-.579-.473 2.057-2.53.347.282c.315.257.513.44.603.556.116.149.182.307.207.473.024.165-.009.348-.082.547" fill="#252627" fill-rule="evenodd" data-name="Path 8939"/><path d="M23.688 62.761a1.636 1.636 0 0 0-.43-.763c-.157-.157-.413-.34-.768-.539l-1.578-.887-2.404 4.296 1.627.913c.322.182.595.298.818.34.298.066.57.066.802 0 .305-.075.594-.249.884-.498.223-.207.437-.489.636-.838.231-.406.372-.771.429-1.095a2.192 2.192 0 0 0-.016-.929m-.942.664c-.041.216-.157.481-.339.813-.19.332-.363.58-.529.738-.165.166-.322.257-.462.29a.92.92 0 0 1-.446-.016 2.433 2.433 0 0 1-.546-.257l-.644-.365 1.594-2.845.389.224c.347.19.578.34.686.439.14.125.231.266.28.423.05.158.058.349.017.556" fill="#252627" fill-rule="evenodd" data-name="Path 8940"/><path d="m28.372 64.918.281-.788-3.429-1.236-1.66 4.637 3.511 1.27.281-.78-2.578-.938.454-1.26 2.314.837.281-.78-2.314-.838.364-1.028 2.495.904Z" fill="#252627" fill-rule="evenodd" data-name="Path 8941"/><path d="M32.825 65.541a1.74 1.74 0 0 0-.644-.581c-.198-.1-.504-.191-.901-.265l-1.784-.324-.893 4.844 1.843.34c.355.066.653.083.876.058.305-.041.561-.124.76-.257.264-.183.487-.431.669-.763.157-.274.264-.606.339-1.004.082-.456.099-.846.058-1.178a2.11 2.11 0 0 0-.323-.87m-.735 1.816a3.462 3.462 0 0 1-.256.871c-.108.207-.223.348-.347.423a.87.87 0 0 1-.43.124 2.6 2.6 0 0 1-.595-.058l-.727-.141.587-3.21.438.083c.396.075.661.141.793.199a.867.867 0 0 1 .405.307c.099.133.165.307.19.523.033.215.016.506-.058.879" fill="#252627" fill-rule="evenodd" data-name="Path 8942"/><path d="m39.32 65.092.123 1.933-1.942.124-.115-1.94-.992.065.306 4.92.983-.059-.132-2.156 1.942-.117.132 2.148.991-.058-.306-4.926-.99.066Z" fill="#252627" fill-rule="evenodd" data-name="Path 8943"/><path d="M45.178 64.545c-.529-.331-1.149-.414-1.851-.24a2.71 2.71 0 0 0-.975.448c-.206.149-.372.34-.512.58-.141.241-.24.498-.289.763-.066.365-.033.797.082 1.286.19.763.546 1.31 1.066 1.634.529.332 1.14.415 1.851.24.702-.174 1.206-.53 1.52-1.07.314-.539.372-1.194.182-1.965-.19-.78-.545-1.336-1.074-1.676m.008 3.235c-.174.34-.454.556-.843.647-.38.099-.735.033-1.049-.183-.322-.215-.545-.597-.678-1.144-.132-.548-.107-.987.067-1.319.173-.34.462-.556.859-.647.396-.099.743-.041 1.049.166.306.216.529.589.661 1.145.141.555.116.995-.066 1.335" fill="#252627" fill-rule="evenodd" data-name="Path 8944"/><path d="M50.564 65.134a2.218 2.218 0 0 0-.653-.166c.364-.232.603-.506.702-.813.1-.307.075-.63-.074-.97a1.407 1.407 0 0 0-.512-.622 1.102 1.102 0 0 0-.711-.199c-.256.016-.619.132-1.099.348l-1.908.846 1.991 4.504.909-.398-.835-1.883.182-.083c.215-.091.372-.141.479-.149a.69.69 0 0 1 .356.066c.132.05.388.199.776.448l1.083.688 1.082-.481-.934-.639c-.372-.257-.652-.423-.834-.497m-.876-1.095a.524.524 0 0 1-.174.307c-.09.083-.355.224-.784.415l-.67.298-.504-1.144.703-.316c.371-.157.595-.257.669-.273a.6.6 0 0 1 .421.025.601.601 0 0 1 .281.306c.058.141.083.266.058.382" fill="#252627" fill-rule="evenodd" data-name="Path 8945"/><path d="M58.472 55.903c-.628 0-1.19.249-1.702.763-.281.29-.488.581-.612.896a2.052 2.052 0 0 0-.132.763c.008.274.058.547.157.804.132.341.38.697.735 1.046.554.555 1.14.837 1.76.846.62.008 1.19-.249 1.702-.772.512-.514.76-1.086.744-1.708-.017-.622-.306-1.211-.868-1.775-.57-.564-1.165-.855-1.784-.863m1.305 3.749c-.281.282-.611.415-.991.39-.389-.017-.777-.224-1.174-.614-.396-.406-.611-.788-.636-1.169-.016-.374.116-.705.405-.996.281-.298.611-.431.983-.406.372.016.752.224 1.157.622.405.406.62.796.636 1.178.025.381-.099.713-.38.995" fill="#252627" fill-rule="evenodd" data-name="Path 8946"/><path d="m60.62 52.004 2.701 1.866-3.842-.207-.554.796 4.05 2.795.52-.763-2.636-1.816 3.76.182.561-.82-4.04-2.796-.52.763Z" fill="#252627" fill-rule="evenodd" data-name="Path 8947"/><path d="m65.742 51.208-1.215-.572 1.05-2.24-.752-.356-1.041 2.247-.992-.464 1.124-2.414-.752-.348-1.545 3.31 4.453 2.09 1.579-3.4-.752-.35-1.157 2.497Z" fill="#252627" fill-rule="evenodd" data-name="Path 8948"/><path d="M68.881 44.813a1.374 1.374 0 0 0-.347-.796 1.407 1.407 0 0 0-.694-.44 1.41 1.41 0 0 0-.801-.033c-.24.075-.455.199-.628.39-.182.191-.397.497-.637.937-.239.431-.429.697-.57.788a.379.379 0 0 1-.322.058.351.351 0 0 1-.248-.232c-.074-.191-.066-.431.009-.705.082-.274.19-.456.338-.564.141-.1.339-.141.595-.108l.231-.97c-.437-.108-.834-.05-1.173.174-.347.224-.603.638-.776 1.227-.1.365-.133.697-.1.987.034.282.141.531.306.722.174.199.38.332.62.406.372.1.735.05 1.074-.166.248-.157.504-.472.777-.945.206-.373.355-.606.421-.713.107-.141.206-.241.306-.282a.445.445 0 0 1 .314-.017c.173.05.297.174.388.365.083.191.083.448-.008.755-.083.29-.223.497-.413.63-.199.124-.455.174-.785.141l-.174.962c.545.083 1 .008 1.372-.232.363-.241.636-.664.801-1.261.124-.414.157-.771.124-1.078" fill="#252627" fill-rule="evenodd" data-name="Path 8949"/></g></g></g><defs><clipPath id="a"><path d="M0 0h72.971v73.254H0V0z" data-name="Rectangle 3603"/></clipPath><clipPath id="b"><path d="M0 0h72.971v73.254H0V0z" data-name="Rectangle 3604"/></clipPath></defs></svg>