<svg width="192" height="68" viewBox="0 0 192 68" fill="none" xmlns="http://www.w3.org/2000/svg">
<path d="M51.2 67.9361C48.7169 67.6391 46.3283 66.8052 44.2 65.4921C41.0386 63.6741 38.0938 61.5032 35.422 59.0211C32.4018 56.3745 29.9137 53.1764 28.091 49.5981C27.1978 47.8715 26.6972 45.9688 26.625 44.0261C26.6153 42.3052 27.2418 40.6413 28.384 39.3541C29.8462 37.7466 31.6677 36.5076 33.7 35.7381C35.6837 34.8997 37.7564 34.2897 39.878 33.9201C41.735 33.5881 43.612 33.3141 45.508 33.1201C47.15 32.9201 48.808 32.8661 50.608 32.7491C52.348 32.8861 54.225 32.9641 56.062 33.2181C58.3852 33.4232 60.6024 34.2844 62.455 35.7011C63.7089 36.7369 64.6666 38.0858 65.231 39.6111C66.3565 42.7253 66.7643 46.0533 66.424 49.3471C66.2485 52.148 65.6622 54.9078 64.684 57.5381C63.597 60.8763 61.5334 63.8116 58.76 65.9641C56.9373 67.3101 54.7257 68.0255 52.46 68.0021C52.046 68.0008 51.626 67.9788 51.2 67.9361ZM7.429 62.9511C4.94741 61.6849 2.85864 59.7653 1.388 57.3991C0.61225 56.2935 0.158736 54.9943 0.078 53.6461C0.078 53.5871 0.019 53.5291 0 53.4701V52.9231C0.078 52.4731 0.156 52.0431 0.274 51.6131C0.801127 49.9511 1.8076 48.4819 3.167 47.3901C5.30981 45.5872 7.70783 44.1115 10.283 43.0111C11.651 42.3851 13.04 41.7791 14.447 41.2911C16.4333 40.5078 18.5803 40.2192 20.703 40.4501C21.6387 40.5281 22.5222 40.9139 23.2154 41.5471C23.9087 42.1803 24.3727 43.0253 24.535 43.9501C24.8513 45.4682 24.8247 47.0377 24.457 48.5441C23.577 52.7692 21.7373 56.7354 19.08 60.1361C17.9375 61.7575 16.3671 63.0298 14.544 63.8111C14.0316 63.9902 13.5 64.1084 12.96 64.1631C12.6494 64.2002 12.3368 64.2189 12.024 64.2191C10.4113 64.1815 8.8328 63.7459 7.429 62.9511ZM16.4 38.8861C14.152 38.4951 11.9 38.0861 9.675 37.5371C7.90218 37.1538 6.24258 36.3641 4.827 35.2301C2.892 33.6471 1.973 31.6921 1.973 28.4071C2.16311 26.2609 2.93287 24.2067 4.2 22.4641C5.24428 20.8147 6.72643 19.488 8.481 18.6321C9.51818 18.1127 10.6824 17.9011 11.836 18.0223C12.9896 18.1435 14.0844 18.5925 14.991 19.3161C16.6579 20.616 18.0696 22.2132 19.155 24.0271C20.6267 26.2958 21.9084 28.6823 22.987 31.1621C23.5705 32.4297 23.9097 33.7959 23.987 35.1891C24.0731 36.0682 23.8128 36.9461 23.2615 37.6362C22.7102 38.3262 21.9114 38.774 21.035 38.8841C20.3236 39.0344 19.5981 39.1084 18.871 39.1051C18.0427 39.0996 17.2163 39.0263 16.4 38.8861ZM28.012 34.9571C27.1507 34.7379 26.3602 34.3008 25.7166 33.6879C25.073 33.0749 24.5979 32.3067 24.337 31.4571C23.7297 29.5907 23.4588 27.6313 23.537 25.6701C23.5297 20.511 24.4984 15.3971 26.392 10.5981C27.3413 8.16372 28.7483 5.93383 30.537 4.02911C32.0231 2.42437 33.9689 1.31822 36.108 0.862109C37.7153 0.582433 39.3616 0.61639 40.956 0.96211C43.3653 1.45198 45.6646 2.37894 47.74 3.69711C49.8344 4.93296 51.6248 6.62317 52.979 8.64311C53.8924 9.96939 54.4433 11.5114 54.577 13.1163C54.7106 14.7211 54.4224 16.333 53.741 17.7921C52.4323 20.7512 50.5601 23.4273 48.229 25.6711C45.7278 28.3118 42.7999 30.5126 39.568 32.1811C37.151 33.4701 34.5646 34.4127 31.885 34.9811C31.214 35.1087 30.533 35.1756 29.85 35.1811C29.231 35.1844 28.6141 35.1092 28.014 34.9571H28.012Z" fill="#95C12B"/>
<path d="M89.3396 66.4502C89.0213 66.3952 88.7213 66.263 88.4657 66.0654C88.2102 65.8677 88.0069 65.6105 87.8736 65.3162C87.371 64.3289 87.0654 63.2533 86.9736 62.1492C86.6999 59.4211 86.6411 56.6756 86.7976 53.9382C86.8566 50.9862 86.9146 48.0382 86.9146 45.0822C86.9146 38.5332 86.8556 31.9642 86.8366 25.4152C86.8324 24.7635 86.9382 24.1157 87.1496 23.4992C87.3054 23.0323 87.6143 22.6316 88.0264 22.3622C88.4384 22.0928 88.9294 21.9706 89.4196 22.0152C89.9186 21.9388 90.4286 22.0372 90.8632 22.2939C91.2979 22.5505 91.6305 22.9495 91.8046 23.4232C92.0402 24.0906 92.1783 24.7885 92.2146 25.4952C92.2736 26.3752 92.2346 27.2742 92.2346 28.1542C92.2834 28.2157 92.3355 28.2745 92.3906 28.3302C92.7036 27.9582 93.0166 27.5872 93.3096 27.2162C94.7709 25.3243 96.684 23.8298 98.8733 22.8697C101.063 21.9095 103.458 21.5147 105.84 21.7212C108.648 21.8752 111.369 22.7515 113.74 24.2652C116.371 25.9048 118.416 28.3338 119.585 31.2052C120.741 33.8296 121.31 36.6747 121.253 39.5419C121.196 42.4091 120.513 45.2292 119.253 47.8052C117.682 51.0633 114.989 53.6456 111.668 55.0782C109.609 56.0954 107.355 56.6556 105.06 56.7202C101.789 56.7239 98.6128 55.6215 96.0476 53.5922C94.9726 52.7712 93.9756 51.8332 92.9396 50.9532C92.7046 50.7532 92.4896 50.5622 92.1966 50.3082C92.1766 50.5432 92.1576 50.6602 92.1576 50.7972C92.1776 54.5702 92.2166 58.3432 92.2166 62.1162C92.2262 62.9261 92.167 63.7354 92.0396 64.5352C91.9668 65.0872 91.6907 65.5921 91.2653 65.9512C90.84 66.3104 90.2959 66.498 89.7396 66.4772C89.6058 66.4768 89.4722 66.4678 89.3396 66.4502ZM102.616 26.5112C100.935 26.7468 99.3192 27.3217 97.8674 28.201C96.4155 29.0802 95.1577 30.2456 94.1702 31.6262C93.1828 33.0067 92.4864 34.5737 92.1234 36.2317C91.7604 37.8898 91.7384 39.6044 92.0586 41.2712C92.4652 43.8891 93.6664 46.3187 95.4996 48.2312C96.998 49.774 98.8953 50.8706 100.98 51.3986C103.065 51.9267 105.255 51.8657 107.308 51.2222C109.116 50.8115 110.785 49.9348 112.15 48.6793C113.515 47.4238 114.528 45.8331 115.088 44.0652C115.523 42.4746 115.708 40.8258 115.635 39.1782C115.557 38.1032 115.498 37.0282 115.361 35.9522C115.014 33.7849 113.995 31.7813 112.448 30.2242C111.461 29.0301 110.224 28.0671 108.824 27.4033C107.425 26.7394 105.897 26.3909 104.348 26.3822C103.768 26.3835 103.189 26.4266 102.616 26.5112ZM130.865 55.7182C129.034 55.1152 127.408 54.0121 126.171 52.5336C124.934 51.055 124.135 49.26 123.865 47.3512C123.492 45.2329 123.833 43.0508 124.835 41.1473C125.836 39.2437 127.441 37.7264 129.398 36.8332C131.242 35.9879 133.218 35.4656 135.24 35.2892C139.453 34.8959 143.702 35.2535 147.791 36.3452C148.01 36.4022 148.232 36.4479 148.456 36.4822C148.593 32.2202 146.814 27.9192 141.633 26.8442C138.596 26.2866 135.467 26.5429 132.562 27.5872C131.408 27.9582 130.216 28.1932 129.062 28.4872C128.881 28.5135 128.697 28.5202 128.515 28.5072C128.125 28.5412 127.734 28.4517 127.397 28.2515C127.061 28.0512 126.796 27.7503 126.64 27.3912C126.446 26.9778 126.379 26.5168 126.445 26.0652C126.511 25.6136 126.707 25.1913 127.011 24.8502C127.591 24.2591 128.3 23.8107 129.083 23.5402C130.741 22.9208 132.478 22.539 134.244 22.4062C136.577 22.2109 138.916 22.0872 141.262 22.0352C147.462 21.8792 151.525 25.6122 153.031 30.9692C153.502 32.6885 153.732 34.4648 153.715 36.2472C153.734 41.5846 153.734 46.9149 153.715 52.2382C153.716 52.9938 153.637 53.7473 153.48 54.4862C153.391 54.9474 153.15 55.3655 152.796 55.6736C152.441 55.9818 151.994 56.1623 151.525 56.1862C151.478 56.1855 151.432 56.1923 151.388 56.2062C149.629 56.4062 148.749 55.6982 148.588 53.9382C148.51 53.0972 148.488 52.2572 148.451 51.2602C147.962 51.7102 147.532 52.0422 147.161 52.4332C144.813 54.9143 141.581 56.3687 138.168 56.4802C137.458 56.5302 136.749 56.5632 136.043 56.5632C134.279 56.6012 132.524 56.3148 130.865 55.7182ZM133.211 40.0982C131.78 40.5915 130.56 41.5567 129.751 42.8352C129.066 44.1204 128.865 45.6084 129.185 47.029C129.504 48.4495 130.322 49.7085 131.491 50.5772C134.032 52.4932 136.945 52.5322 139.878 52.2002C141.724 51.8966 143.476 51.1745 145 50.0892C146.492 49.1882 147.567 47.7333 147.991 46.0422C148.407 44.2891 148.571 42.4857 148.48 40.6862C148.463 40.6154 148.43 40.5498 148.382 40.4951C148.334 40.4405 148.274 40.3986 148.206 40.3732C145.378 39.5207 142.44 39.0923 139.487 39.1022H139.208C137.164 39.0605 135.131 39.3982 133.211 40.0982ZM161.577 55.9332C161.093 55.7184 160.685 55.3629 160.406 54.9131C160.127 54.4633 159.99 53.94 160.013 53.4112C160.052 44.0272 160.033 34.6442 160.013 25.2792C160.002 24.4405 160.285 23.6246 160.813 22.9722C161.083 22.6386 161.432 22.3778 161.829 22.2134C162.226 22.049 162.658 21.9864 163.085 22.0311C163.512 22.0758 163.921 22.2264 164.275 22.4694C164.629 22.7123 164.917 23.0398 165.113 23.4222C165.381 24.0338 165.534 24.6899 165.563 25.3572C165.622 26.5692 165.583 27.8012 165.583 29.0322C165.583 29.1692 165.583 29.3252 165.603 29.5992C166.072 28.9732 166.444 28.4652 166.835 27.9372C168.537 25.4283 170.975 23.5091 173.814 22.4442C175.002 21.9546 176.311 21.8388 177.567 22.1122C178.105 22.2216 178.596 22.4983 178.968 22.9029C179.34 23.3074 179.575 23.8192 179.64 24.3652C179.669 24.8899 179.537 25.4109 179.261 25.858C178.985 26.3051 178.578 26.6567 178.096 26.8652C177.183 27.2311 176.242 27.5188 175.281 27.7252C173.756 28.026 172.307 28.6331 171.024 29.5097C169.74 30.3863 168.648 31.5143 167.813 32.8252C166.844 34.4924 166.208 36.3317 165.94 38.2412C165.537 41.4896 165.436 44.7683 165.64 48.0352C165.77 49.8765 165.685 51.7268 165.386 53.5482C165.289 54.0076 165.138 54.4537 164.936 54.8772C164.742 55.2841 164.439 55.6286 164.059 55.8715C163.68 56.1144 163.24 56.246 162.79 56.2512C162.365 56.2474 161.948 56.1381 161.577 55.9332ZM74.0726 53.4652C74.0726 48.4412 74.0926 43.4362 74.0926 38.4322C74.0926 34.6982 74.0726 30.9842 74.0726 27.2502C74.0726 26.3122 74.0136 25.3502 74.0726 24.3962C74.0585 24.0951 74.1049 23.7941 74.2091 23.5111C74.3133 23.2282 74.4731 22.969 74.6791 22.7488C74.8851 22.5286 75.1331 22.3519 75.4085 22.2292C75.6839 22.1065 75.9811 22.0402 76.2826 22.0342C76.9342 21.9361 77.5991 22.0812 78.1507 22.4417C78.7023 22.8022 79.102 23.353 79.2736 23.9892C79.3231 24.1937 79.3429 24.4042 79.3326 24.6142V53.5872C79.3869 54.1835 79.2163 54.7785 78.8545 55.2555C78.4926 55.7325 77.9655 56.0569 77.3766 56.1652C77.1158 56.2171 76.8506 56.2439 76.5846 56.2452C75.0306 56.2482 74.0726 55.2222 74.0726 53.4652ZM186.873 21.6972C186.293 21.6982 185.719 21.5839 185.183 21.3608C184.648 21.1378 184.163 20.8105 183.755 20.3981C183.348 19.9856 183.026 19.4962 182.81 18.9584C182.593 18.4206 182.486 17.845 182.494 17.2652C182.49 16.6813 182.602 16.1023 182.823 15.562C183.045 15.0217 183.372 14.5308 183.785 14.1178C184.198 13.7048 184.688 13.378 185.229 13.1563C185.769 12.9346 186.348 12.8225 186.932 12.8264C187.516 12.8303 188.093 12.9502 188.631 13.1791C189.168 13.408 189.654 13.7413 190.062 14.1598C190.469 14.5783 190.789 15.0735 191.004 15.6167C191.218 16.16 191.322 16.7404 191.311 17.3242C191.309 18.4832 190.849 19.5944 190.031 20.415C189.212 21.2357 188.103 21.6992 186.944 21.7042L186.873 21.6972ZM183.179 17.2652C183.174 18.0024 183.388 18.7243 183.794 19.3396C184.2 19.955 184.779 20.436 185.458 20.7219C186.138 21.0077 186.887 21.0855 187.611 20.9453C188.334 20.8051 189 20.4534 189.524 19.9345C190.047 19.4157 190.405 18.7531 190.552 18.0307C190.699 17.3084 190.628 16.5587 190.348 15.8767C190.069 15.1946 189.593 14.6109 188.981 14.1994C188.37 13.788 187.65 13.5672 186.913 13.5652H186.877C185.897 13.5692 184.958 13.9604 184.265 14.6534C183.573 15.3465 183.182 16.2853 183.179 17.2652ZM187.715 19.1652C187.559 18.8722 187.363 18.5982 187.207 18.3052C187.058 18.0529 186.828 17.859 186.554 17.7559C186.28 17.6527 185.979 17.6465 185.702 17.7382V19.6882H185.002V15.0552C185.882 15.0552 186.742 15.0162 187.582 15.0752C187.856 15.1008 188.113 15.2255 188.302 15.4261C188.492 15.6266 188.602 15.8894 188.613 16.1652C188.628 16.4469 188.553 16.7262 188.399 16.9621C188.244 17.1979 188.017 17.3778 187.753 17.4752C187.636 17.5142 187.499 17.5532 187.46 17.5752C187.949 18.2592 188.437 18.9432 188.946 19.6862C188.763 19.7115 188.578 19.7275 188.394 19.7342C188.056 19.7362 187.981 19.6092 187.715 19.1652ZM185.701 16.7412C185.681 16.9952 185.779 17.1132 186.033 17.0932C186.156 17.0773 186.28 17.0707 186.405 17.0732V17.0932C186.673 17.0874 186.94 17.0613 187.205 17.0152C187.292 17.0126 187.379 16.992 187.458 16.955C187.538 16.9179 187.609 16.865 187.668 16.7995C187.726 16.734 187.771 16.6574 187.799 16.5741C187.827 16.4909 187.838 16.4028 187.831 16.3152C187.828 16.1463 187.762 15.9843 187.647 15.8613C187.531 15.7382 187.373 15.663 187.205 15.6502C187.089 15.6276 186.971 15.6146 186.853 15.6112C186.494 15.6112 186.245 15.5962 186.074 15.5962C185.574 15.5872 185.73 15.7172 185.701 16.7362V16.7412ZM73.6036 15.0352C73.7493 14.4964 74.0668 14.0197 74.5078 13.6776C74.9489 13.3354 75.4895 13.1464 76.0476 13.1392C76.7248 13.1175 77.4019 13.1847 78.0616 13.3392C78.4862 13.4113 78.8731 13.6268 79.1578 13.9499C79.4425 14.273 79.6076 14.684 79.6256 15.1142C79.6646 15.5642 79.6846 16.0142 79.7036 16.4632H79.6836V16.6002C79.731 16.9637 79.6973 17.3332 79.585 17.6821C79.4728 18.031 79.2847 18.3507 79.0342 18.6184C78.7838 18.886 78.4772 19.0949 78.1365 19.2301C77.7958 19.3653 77.4294 19.4234 77.0636 19.4002C76.9136 19.4129 76.7686 19.4192 76.6286 19.4192C73.8016 19.4142 73.0636 16.8652 73.6036 15.0352Z" fill="#3E3E54"/>
</svg>
