<svg xmlns="http://www.w3.org/2000/svg" width="71.735" height="70.457" viewBox="511.896 2721.814 71.735 70.457"><g data-name="Group 8053"><g data-name="Group 8091" transform="translate(511.891 2721.808)" clip-path="url(&quot;#a&quot;)"><path d="M21.608 61.587c-1.1 0-1.977.264-2.632.782-.651.518-.982 1.215-.982 2.087 0 .797.275 1.439.822 1.932.546.489 1.264.738 2.151.738.342 0 .672-.045.997-.135.331-.085.661-.214.992-.393v.049c0 .797-.177 1.435-.518 1.908-.346.473-.805.707-1.372.707-.088 0-.18-.005-.274-.02a2.715 2.715 0 0 1-.294-.079c.17-.095.294-.21.377-.339a.921.921 0 0 0 .118-.468c0-.289-.124-.533-.367-.727-.246-.2-.562-.294-.944-.294-.418 0-.748.104-1.001.314-.247.204-.371.488-.371.841 0 .583.273 1.056.826 1.425.552.363 1.274.548 2.173.548 1.387 0 2.493-.419 3.309-1.251.82-.836 1.228-1.962 1.228-3.381 0-1.315-.377-2.351-1.131-3.108-.749-.758-1.785-1.136-3.107-1.136m.928 3.78c-.184.274-.422.414-.726.414-.3 0-.538-.14-.713-.414-.18-.279-.269-.647-.269-1.105 0-.459.089-.827.269-1.101.175-.279.413-.414.713-.414.304 0 .542.135.726.404.181.274.27.642.27 1.111 0 .463-.089.836-.27 1.105m8.741-3.78c-1.27 0-2.304.408-3.083 1.22-.784.812-1.176 1.883-1.176 3.213s.392 2.401 1.171 3.212c.78.812 1.802 1.216 3.061 1.216 1.276 0 2.307-.404 3.092-1.216.784-.811 1.172-1.882 1.172-3.212 0-1.325-.388-2.396-1.172-3.213-.785-.812-1.807-1.22-3.065-1.22m.876 6.809c-.181.473-.474.712-.888.712-.418 0-.711-.239-.897-.722-.181-.483-.274-1.27-.274-2.366 0-1.091.093-1.883.279-2.366.186-.483.485-.727.904-.727.407 0 .695.244.876.732.187.483.275 1.275.275 2.361 0 1.106-.088 1.897-.275 2.376m8.374-6.809c-1.27 0-2.298.408-3.083 1.22-.784.812-1.176 1.883-1.176 3.213s.392 2.401 1.171 3.212c.779.812 1.802 1.216 3.061 1.216 1.28 0 2.307-.404 3.092-1.216.784-.811 1.178-1.882 1.178-3.212 0-1.325-.394-2.396-1.178-3.213-.785-.812-1.807-1.22-3.065-1.22m.882 6.809c-.18.473-.48.712-.894.712-.412 0-.711-.239-.897-.722-.181-.483-.273-1.27-.273-2.366 0-1.091.092-1.883.278-2.366.185-.483.486-.727.904-.727.406 0 .702.244.882.732.181.483.268 1.275.268 2.361 0 1.106-.087 1.897-.268 2.376m10.112.493c-.124-.07-.186-.224-.186-.454v-6.609h-2.26c-.119.314-.352.563-.687.742-.34.174-.8.289-1.383.334v1.225h1.486v4.089c0 .369-.073.593-.212.673-.14.074-.433.114-.883.114h-.391v1.211h5.668v-1.211h-.326c-.423 0-.696-.04-.826-.114M35.886 10.305c-14.014.005-25.372 10.967-25.376 24.49.004 13.523 11.362 24.481 25.376 24.486 14.015-.005 25.375-10.963 25.375-24.486 0-13.523-11.36-24.485-25.375-24.49m14.107 6.684a23.452 23.452 0 0 1-4.347 2.546c-.242-.612-.5-1.201-.773-1.764-.894-1.843-1.951-3.442-3.159-4.687a23.619 23.619 0 0 1 8.279 3.905m-14.107-4.621c2.447-.046 5.073 2.17 7.055 6.275.26.528.497 1.086.728 1.669a23.905 23.905 0 0 1-7.783 1.299c-2.736 0-5.348-.463-7.784-1.299a25.66 25.66 0 0 1 .728-1.669c1.976-4.105 4.608-6.321 7.056-6.275m-5.829.716c-1.208 1.245-2.265 2.844-3.158 4.687a28.44 28.44 0 0 0-.774 1.764c-1.549-.693-3-1.555-4.347-2.546a23.619 23.619 0 0 1 8.279-3.905m-8.279 39.518a23.582 23.582 0 0 1 4.347-2.551c.248.613.5 1.201.774 1.764.893 1.843 1.95 3.441 3.158 4.687a23.54 23.54 0 0 1-8.279-3.9m14.108 4.617c-2.448.045-5.08-2.167-7.056-6.276a25.506 25.506 0 0 1-.728-1.664 23.914 23.914 0 0 1 7.784-1.305c2.735 0 5.352.469 7.783 1.305a22.624 22.624 0 0 1-.728 1.664c-1.982 4.109-4.608 6.321-7.055 6.276m5.828-.717c1.208-1.246 2.265-2.844 3.159-4.687.273-.563.531-1.151.773-1.764a23.418 23.418 0 0 1 4.347 2.551 23.54 23.54 0 0 1-8.279 3.9m9.941-5.255a25.77 25.77 0 0 0-5.312-3.143c.372-1.151.692-2.381.965-3.656h-2.177a35.28 35.28 0 0 1-.775 2.884 26.12 26.12 0 0 0-8.47-1.415 26.13 26.13 0 0 0-8.471 1.415 35.832 35.832 0 0 1-.775-2.884h-2.173c.269 1.275.589 2.505.961 3.656a25.55 25.55 0 0 0-5.312 3.143c-4.588-4.094-7.464-9.947-7.474-16.452.01-6.51 2.886-12.362 7.474-16.455a25.547 25.547 0 0 0 5.312 3.142 38.27 38.27 0 0 0-.961 3.657h2.173a34.96 34.96 0 0 1 .775-2.88 26.293 26.293 0 0 0 8.471 1.415c2.968 0 5.817-.508 8.47-1.415.29.911.547 1.873.775 2.88h2.177a37.676 37.676 0 0 0-.965-3.657 25.713 25.713 0 0 0 5.317-3.142c4.584 4.093 7.459 9.945 7.469 16.455-.01 6.51-2.885 12.358-7.474 16.452M17.71 30.249h.651c.465 0 .764.059.893.178.128.121.197.42.197.898v6.918c0 .487-.069.791-.202.91-.134.12-.429.18-.888.18h-.651v1.798h7.811v-1.798h-.64c-.465 0-.764-.06-.898-.18-.135-.119-.202-.423-.202-.91v-6.918c0-.478.067-.777.197-.898.128-.119.428-.178.903-.178h.64V28.46H17.71v1.789Zm15.992 2.664c-.196-.045-.474-.1-.83-.175-1.456-.288-2.179-.717-2.179-1.285 0-.373.186-.687.568-.946.377-.258.862-.389 1.445-.389 1.002 0 1.801.219 2.4.659.599.438 1.006 1.109 1.224 2.007h2.208v-4.399h-1.884l-.35.638a9.179 9.179 0 0 0-2.06-.712 10.644 10.644 0 0 0-2.281-.229c-1.605 0-2.901.389-3.878 1.17-.974.783-1.466 1.809-1.466 3.078 0 .594.124 1.121.378 1.585.253.462.64.885 1.171 1.265.222.168.583.348 1.089.537.501.189 1.219.418 2.149.693.288.084.681.194 1.186.324 1.548.407 2.324.92 2.324 1.529 0 .392-.176.711-.537.955-.357.239-.831.364-1.426.364-.981 0-1.831-.279-2.554-.826-.724-.548-1.239-1.316-1.554-2.291h-1.894v4.721h1.8l.486-.703a10.2 10.2 0 0 0 2.143.772c.717.17 1.466.254 2.245.254 1.703 0 3.056-.378 4.056-1.14 1.007-.757 1.508-1.778 1.508-3.057 0-1.152-.408-2.057-1.224-2.726-.814-.667-2.239-1.225-4.263-1.673m8.652-3.044c-1.353 1.192-2.029 2.839-2.029 4.937 0 2.082.676 3.721 2.023 4.91 1.347 1.196 3.201 1.793 5.564 1.793 2.39 0 4.264-.592 5.611-1.783 1.353-1.184 2.029-2.829 2.029-4.92 0-2.098-.676-3.745-2.024-4.937-1.347-1.195-3.205-1.787-5.574-1.787-2.385 0-4.253.592-5.6 1.787m7.521 1.28c.402.762.604 1.989.604 3.671 0 1.674-.202 2.884-.604 3.637-.403.746-1.049 1.125-1.942 1.125-.877 0-1.517-.379-1.919-1.136-.403-.757-.604-1.981-.604-3.681 0-1.662.201-2.874.609-3.626.403-.757 1.047-1.13 1.935-1.13.878 0 1.518.379 1.921 1.14M1.312 43.641l.397 1.31 4.393-1.235-.399-1.31-4.391 1.235Zm.841-1.579c.355-.06.625-.234.805-.523.181-.289.288-.742.325-1.355.016-.373.061-.617.14-.732a.41.41 0 0 1 .289-.199.439.439 0 0 1 .351.105.668.668 0 0 1 .217.418c.046.259-.011.473-.172.643-.092.104-.246.184-.459.249l.311 1.265c.449-.11.795-.334 1.036-.668.248-.333.305-.871.177-1.613-.079-.419-.203-.758-.377-1.017a1.55 1.55 0 0 0-.671-.557 1.516 1.516 0 0 0-.842-.099 1.37 1.37 0 0 0-.635.284c-.181.148-.314.362-.403.636-.087.279-.15.723-.175 1.33-.01.244-.036.409-.088.478a.239.239 0 0 1-.175.13.314.314 0 0 1-.269-.075c-.083-.069-.14-.179-.17-.338-.031-.19-.011-.344.062-.469.073-.124.206-.219.408-.284l-.304-1.254c-.456.13-.77.358-.93.687-.166.328-.196.772-.098 1.325.083.453.202.801.366 1.041.165.244.361.408.589.508.233.094.46.124.692.084m.257-4.796c.532-.009.976-.12 1.333-.328.35-.204.609-.473.764-.803.16-.329.236-.741.226-1.239-.009-.493-.107-.903-.305-1.226a1.9 1.9 0 0 0-.81-.738c-.346-.168-.79-.249-1.32-.244-.739.015-1.306.221-1.709.624-.403.407-.599.975-.583 1.712.01.713.226 1.271.65 1.664.422.398 1.006.589 1.754.578m-1.053-2.944c.196-.169.511-.259.945-.268.511-.005.868.07 1.064.224.2.16.305.383.309.677a.835.835 0 0 1-.289.683c-.201.168-.532.253-.99.264-.471.004-.806-.07-1.007-.235a.814.814 0 0 1-.315-.658.86.86 0 0 1 .283-.687m-.181-5.204c.213.183.47.308.764.368.44.09.827.03 1.173-.18.34-.203.558-.502.64-.89.046-.2.046-.38.011-.548a1.483 1.483 0 0 0-.239-.508c.47.139.774.258.903.369.181.148.248.322.203.513a.39.39 0 0 1-.166.253c-.087.06-.222.084-.402.084l-.103 1.227a1.77 1.77 0 0 0 .659-.186c.187-.099.342-.238.471-.418.124-.184.226-.443.305-.786.129-.583.041-1.076-.264-1.485-.305-.403-.862-.688-1.667-.852-.553-.114-1.013-.13-1.378-.04-.372.086-.662.245-.872.474-.212.233-.362.563-.46.995-.078.36-.082.668-.011.932.072.264.218.489.433.678m.362-1.485a.568.568 0 0 1 .3-.389c.165-.089.366-.109.609-.058.238.049.407.139.511.279a.54.54 0 0 1-.187.826c-.159.084-.361.099-.609.049-.252-.055-.422-.144-.526-.274a.498.498 0 0 1-.098-.433m3.423-5.748a4.636 4.636 0 0 0-1.049-.233 2.302 2.302 0 0 0-.5.004 1.7 1.7 0 0 0-.46.139 1.446 1.446 0 0 0-.444.344 2.022 2.022 0 0 0-.365.653c-.218.577-.218 1.07.004 1.469.218.399.738.737 1.554 1.026.335.116.651.194.945.234.293.041.542.035.737-.01a1.53 1.53 0 0 0 .708-.349c.197-.174.357-.438.491-.787.231-.622.217-1.125-.053-1.509-.262-.378-.788-.706-1.568-.981m.804 2.207c-.066.179-.222.279-.453.304-.237.02-.63-.06-1.178-.255-.542-.189-.897-.357-1.062-.513-.171-.159-.222-.328-.15-.523.071-.184.222-.289.454-.313.232-.025.634.059 1.202.259.392.134.672.259.843.363.164.106.278.214.329.329a.45.45 0 0 1 .015.349m1.27-6.137a4.571 4.571 0 0 0-1-.368 1.778 1.778 0 0 0-.496-.059c-.156 0-.315.024-.48.074a1.454 1.454 0 0 0-.485.284c-.161.135-.31.333-.455.593-.299.548-.366 1.035-.207 1.459.165.423.631.832 1.4 1.221.314.158.613.279.897.358.29.08.533.104.734.089.284-.025.531-.109.753-.259.218-.144.419-.382.595-.712.32-.587.376-1.086.165-1.499-.213-.414-.682-.807-1.421-1.181m.486 2.291c-.087.171-.253.249-.49.24-.238-.005-.614-.139-1.13-.403-.511-.26-.838-.474-.981-.652-.146-.176-.172-.355-.072-.534.098-.175.257-.258.494-.254.233.005.615.144 1.157.419.367.183.625.343.775.467.154.125.247.249.283.369a.426.426 0 0 1-.036.348m-.247-6.573-.609.827c.154.268.242.551.258.845.02.3-.037.658-.176 1.076l.847.583c.098-.279.164-.523.196-.732.036-.203.05-.434.041-.688l2.482 1.715.743-1.012-3.782-2.614Zm6.255-.812c.542.004 1.075-.22 1.59-.669.352-.303.6-.602.739-.9.102 0 .267-.015.501-.046.231-.03.454-.075.665-.129l-.232-.827a4.7 4.7 0 0 1-.351.099c-.062.01-.201.03-.413.055-.021-.508-.258-1.001-.712-1.489-.506-.548-1.048-.832-1.627-.862-.583-.025-1.155.205-1.718.693-.558.478-.853 1.001-.883 1.569-.032.567.207 1.12.707 1.663.517.558 1.094.843 1.734.843m-.847-3.303c.222-.195.465-.274.724-.244.262.029.546.214.851.547.269.289.429.538.48.758a3.05 3.05 0 0 1-.185.024 4.76 4.76 0 0 0-.481.075c-.071.02-.164.065-.273.13l.175.508c.258-.095.471-.134.636-.13-.053.07-.115.135-.181.194a.889.889 0 0 1-.728.235c-.263-.035-.557-.235-.894-.593-.284-.309-.427-.588-.432-.847a.807.807 0 0 1 .308-.657m4.332-.339c.139.119.319.209.536.274.213.065.419.09.62.075.197-.015.419-.075.656-.185.243-.109.453-.224.645-.338.325-.195.578-.409.753-.633.13-.159.227-.359.28-.598a1.45 1.45 0 0 0 .004-.717 2.118 2.118 0 0 0-.3-.691l-1.45-2.232-1.192.727 1.482 2.281c.133.204.181.403.133.588-.041.184-.169.338-.371.463-.212.124-.407.164-.603.119-.192-.04-.352-.169-.486-.368L16.24 5.699l-1.198.722 1.451 2.23c.118.184.289.374.521.568m5.72-1.977-.088-.757 1.476-.603.506.583 1.363-.557-3.372-3.417-1.419.583.207 4.71 1.327-.542Zm.732-2.126-.924.377-.186-1.653 1.11 1.276Zm6.51-.17-.28-1.055-2.136.532-.862-3.222-1.368.338 1.141 4.274 3.505-.867Zm2.085-.264L31.406.309l-1.399.199.654 4.369 1.4-.195Zm2.043-3.507.104 3.322 1.415-.04-.103-3.322 1.439-.045-.03-1.084-4.3.124.036 1.085 1.439-.04Zm4.92 3.432 1.405.169.237-1.838L42.75.597 41.202.419l-1.105 1.369L39.369.2 37.811.015l1.446 2.759-.233 1.833Zm8.011-1.772-.423 3.45.976.364 2.091-2.834-1.255 3.143 1.078.398 1.643-4.118-1.73-.643-1.667 2.261.33-2.76-1.735-.642-1.647 4.12 1.084.403 1.255-3.142Zm4.119 5.453.583-.513 1.374.801-.196.743 1.269.737.899-4.636-1.322-.773-3.841 2.918 1.234.723Zm2.638-2.281-.417 1.608-.862-.503 1.279-1.105Zm1.76 5.164 1.631-1.837-.329 2.913 1.01.837 2.979-3.352-1.011-.837-1.652 1.858.341-2.939-1.001-.831-2.979 3.357 1.011.831Zm7.233.614-4.605 1.578.93 1.061.722-.304 1.032 1.186-.429.638.955 1.095 2.39-4.119-.995-1.135Zm-1.354 2.689-.645-.742 1.58-.653-.935 1.395Zm4.677 5.259-1.125-1.808-.816.47.485.786-.366.215a2.598 2.598 0 0 1-.453-.295 1.436 1.436 0 0 1-.296-.338c-.169-.28-.211-.544-.123-.808.087-.259.34-.508.764-.757.402-.229.743-.323 1.023-.274a.919.919 0 0 1 .654.449c.11.175.155.338.15.493a.739.739 0 0 1-.196.439l.908 1.005a1.82 1.82 0 0 0 .439-.671c.077-.235.093-.479.041-.729-.046-.254-.201-.587-.464-1.011-.268-.433-.548-.742-.831-.92a2.032 2.032 0 0 0-1.187-.334c-.424.015-.847.144-1.276.389-.407.238-.722.522-.939.861a1.8 1.8 0 0 0-.299 1.07c.015.375.165.787.444 1.236.227.363.469.657.723.871.252.214.608.423 1.069.629l1.671-.968Zm-.407 2.934.841-.319.815 1.968.867-.334-.82-1.967.676-.264.883 2.126.908-.348-1.409-3.397-4.247 1.639 1.428 3.456.966-.368-.908-2.192Zm.448 4.348 3.418-.696-3.232 1.538.217.991 3.598.145-3.417.697.242 1.091 4.481-.912-.387-1.752-2.87-.12 2.575-1.231-.382-1.758-4.48.917.237 1.09Zm1.022 8.363 1.033-.039-.093-2.352.903-.035.083 2.123.934-.035-.082-2.122.722-.025.093 2.287.976-.035-.145-3.657-4.573.17.149 3.72Zm-.175 2.027 2.493.289-2.7 1.355-.16 1.275 4.548.528.155-1.28-2.514-.289 2.72-1.359.16-1.265-4.547-.528-.155 1.274Zm2.427 5.758-3.315-.916-.387 1.314 3.314.917-.398 1.335 1.084.304 1.182-3.99-1.084-.299-.396 1.335" fill="#2e2a2b" fill-rule="evenodd" data-name="Path 8950"/></g></g><defs><clipPath id="a"><path d="M0 0h71.348v70.767H0V0z" data-name="Rectangle 3605"/></clipPath></defs></svg>