<svg xmlns="http://www.w3.org/2000/svg" width="13.773" height="31.986" viewBox="15.613 6.507 13.773 31.986"><path d="M22.097 6.662c-.71.53-2.036 2.884-2.475 4.39a9.765 9.765 0 0 0-.335 3.642c.045.23.042.233-.144.184-1.252-.331-2.677-.276-3.142.123-.64.55-.455 4.424.314 6.612l.277.789-.218.049c-.611.138-.77.716-.722 2.641.125 5.184 2.18 8.174 5.622 8.178h.361v2.125c0 2.62.133 3.098.862 3.098.743 0 .869-.448.869-3.098V33.27h.36c3.459-.005 5.497-2.97 5.623-8.178.047-1.925-.113-2.503-.722-2.641l-.218-.05.277-.788c.8-2.273.95-6.028.268-6.729-.302-.311-1.82-.34-2.897-.053-.408.109-.382.15-.315-.493.216-2.098-.561-4.61-2.104-6.79-.729-1.03-1.08-1.232-1.543-.885m.72 3.208c1.608 2.574 1.6 5.08-.023 7.569l-.293.449-.293-.449c-1.182-1.812-1.516-3.677-.98-5.481.245-.826 1.1-2.517 1.272-2.517.12.12.227.265.317.429Zm-4.67 7.28c2.197.214 3.456 2.319 3.487 5.83 0 .095-.104.106-.59.063-2.307-.2-3.52-1.941-3.663-5.257l-.032-.756.167.038c.092.021.376.058.631.08m9.47.649c-.154 3.33-1.36 5.055-3.663 5.246l-.595.05.03-.402c.017-.22.046-.627.064-.903.182-2.783 1.424-4.424 3.532-4.672.31-.036.587-.071.616-.08.043.247.048.504.017.755m-9.127 7.17c1.974.427 2.907 2.01 3.116 5.28l.04.605-.57-.05c-2.327-.206-3.538-1.918-3.691-5.214l-.037-.804.369.046c.203.025.55.085.771.133m9.147.255c0 2.308-.74 4.23-1.918 4.993-.663.43-2.352.817-2.352.54 0-3.838 1.258-5.636 4.169-5.952.084-.01.1.06.1.423" fill="#fff" fill-rule="evenodd" data-name="Path 8160"/></svg>