<svg width="27" height="42" viewBox="0 0 27 42" fill="none" xmlns="http://www.w3.org/2000/svg">
<path fill-rule="evenodd" clip-rule="evenodd" d="M12.903 1.19505C11.656 1.85505 9.32302 4.78105 8.55102 6.65405C7.95822 8.08488 7.755 9.64719 7.96202 11.1821C8.04102 11.4671 8.03601 11.472 7.70801 11.411C5.50801 10.999 3.00102 11.068 2.18402 11.564C1.05702 12.247 1.38401 17.064 2.73601 19.785L3.22301 20.7651L2.84002 20.826C1.76502 20.9981 1.48701 21.7171 1.56901 24.1101C1.79001 30.5551 5.40501 34.2731 11.457 34.2781H12.091V36.9201C12.091 40.1781 12.325 40.772 13.606 40.772C14.914 40.772 15.135 40.215 15.135 36.9201V34.2781H15.769C21.85 34.2721 25.435 30.5851 25.657 24.1101C25.739 21.7171 25.457 20.9981 24.386 20.826L24.003 20.7651L24.49 19.785C25.897 16.958 26.16 12.2901 24.962 11.4181C24.431 11.0311 21.762 10.9961 19.868 11.3521C19.149 11.4871 19.196 11.5381 19.313 10.7391C19.693 8.13005 18.326 5.00805 15.613 2.29705C14.332 1.01605 13.713 0.765052 12.9 1.19705M14.166 5.18505C16.993 8.38505 16.98 11.5011 14.125 14.5961L13.61 15.1541L13.095 14.5961C11.017 12.3431 10.43 10.0241 11.371 7.78105C11.802 6.75405 13.306 4.65205 13.609 4.65205C13.8191 4.80197 14.0074 4.98149 14.166 5.18505ZM5.95302 14.2371C9.81702 14.5031 12.032 17.1201 12.086 21.4861C12.086 21.6031 11.903 21.617 11.048 21.564C6.99102 21.314 4.85902 19.1501 4.60702 15.0271L4.55002 14.0881L4.84402 14.1351C5.00602 14.1611 5.50502 14.2071 5.95402 14.2351M22.608 15.0411C22.336 19.1811 20.217 21.326 16.166 21.564L15.12 21.6261L15.173 21.1261C15.202 20.8521 15.252 20.3471 15.284 20.0031C15.604 16.5431 17.789 14.5031 21.495 14.1941C22.041 14.1491 22.528 14.1061 22.579 14.0941C22.6538 14.402 22.6637 14.7221 22.608 15.034M6.55902 23.9481C10.03 24.4791 11.671 26.4481 12.039 30.5141L12.107 31.2651L11.107 31.203C7.01502 30.947 4.88402 28.8191 4.61502 24.7211L4.55002 23.7211L5.19902 23.7781C5.55602 23.8091 6.16701 23.8841 6.55601 23.9431M22.64 24.2611C22.64 27.1301 21.34 29.5191 19.268 30.4691C18.102 31.0031 15.131 31.4841 15.131 31.1391C15.131 26.3681 17.343 24.1331 22.462 23.7391C22.611 23.7271 22.639 23.8131 22.639 24.2651" fill="white"/>
<path d="M12.903 1.19505C11.656 1.85505 9.32302 4.78105 8.55102 6.65405C7.95822 8.08488 7.755 9.64719 7.96202 11.1821C8.04102 11.4671 8.03601 11.472 7.70801 11.411C5.50801 10.999 3.00102 11.068 2.18402 11.564C1.05702 12.247 1.38401 17.064 2.73601 19.785L3.22301 20.7651L2.84002 20.826C1.76502 20.998 1.48701 21.7171 1.56901 24.1101C1.79001 30.5551 5.40501 34.2731 11.457 34.2781H12.091V36.9201C12.091 40.1781 12.325 40.772 13.606 40.772C14.914 40.772 15.135 40.2151 15.135 36.9201V34.2781H15.769C21.85 34.2721 25.435 30.5851 25.657 24.1101C25.739 21.7171 25.457 20.998 24.386 20.826L24.003 20.7651L24.49 19.785C25.897 16.958 26.16 12.2901 24.962 11.4181C24.431 11.0311 21.762 10.9961 19.868 11.3521C19.149 11.4871 19.196 11.5381 19.313 10.7391C19.693 8.13005 18.326 5.00805 15.613 2.29705C14.332 1.01605 13.713 0.765052 12.9 1.19705M5.95302 14.2371C9.81702 14.5031 12.032 17.1201 12.086 21.4861C12.086 21.6031 11.903 21.617 11.048 21.564C6.99102 21.314 4.85902 19.1501 4.60702 15.0271L4.55002 14.0881L4.84402 14.1351C5.00602 14.1611 5.50502 14.2071 5.95402 14.2351M22.608 15.0411C22.336 19.1811 20.217 21.326 16.166 21.564L15.12 21.6261L15.173 21.1261C15.202 20.8521 15.252 20.3471 15.284 20.0031C15.604 16.5431 17.789 14.5031 21.495 14.1941C22.041 14.1491 22.528 14.1061 22.579 14.0941C22.6538 14.402 22.6637 14.7221 22.608 15.034M6.55902 23.9481C10.03 24.4791 11.671 26.4481 12.039 30.5141L12.107 31.2651L11.107 31.203C7.01502 30.947 4.88402 28.8191 4.61502 24.7211L4.55002 23.7211L5.19902 23.7781C5.55602 23.8091 6.16701 23.8841 6.55601 23.9431M22.64 24.2611C22.64 27.1301 21.34 29.5191 19.268 30.4691C18.102 31.0031 15.131 31.4841 15.131 31.1391C15.131 26.3681 17.343 24.1331 22.462 23.7391C22.611 23.7271 22.639 23.8131 22.639 24.2651M14.166 5.18505C16.993 8.38505 16.98 11.5011 14.125 14.5961L13.61 15.1541L13.095 14.5961C11.017 12.3431 10.43 10.0241 11.371 7.78105C11.802 6.75405 13.306 4.65205 13.609 4.65205C13.8191 4.80197 14.0074 4.98149 14.166 5.18505Z" stroke="#3E3E54" stroke-width="1.4" stroke-miterlimit="10"/>
</svg>
