<svg xmlns="http://www.w3.org/2000/svg" width="25.344" height="34.307" viewBox="467.391 1292.626 25.344 34.307"><g data-name="list"><path d="M483.261 1299.807V1293H468.8c-.778 0-1.408.63-1.408 1.408v31.117c0 .778.63 1.408 1.408 1.408h22.528c.777 0 1.408-.63 1.408-1.408v-23.087h-6.842a2.635 2.635 0 0 1-2.632-2.631Zm-5.686 19.805-2.995 2.996a.991.991 0 0 1-1.406 0l-1.244-1.244a.994.994 0 1 1 1.406-1.406l.54.541 2.293-2.293a.994.994 0 1 1 1.406 1.406Zm0-6.627-2.995 2.995a.991.991 0 0 1-1.406 0l-1.244-1.243a.994.994 0 1 1 1.406-1.406l.54.54 2.293-2.292a.994.994 0 1 1 1.406 1.406Zm0-7.134-2.995 2.996a.991.991 0 0 1-1.406 0l-1.244-1.244a.994.994 0 1 1 1.406-1.406l.54.54 2.293-2.292a.994.994 0 1 1 1.406 1.406Zm9.917 15.55h-6.362a.994.994 0 0 1 0-1.988h6.362a.994.994 0 0 1 0 1.988Zm-7.356-7.621c0-.55.445-.995.994-.995h6.334a.994.994 0 0 1 0 1.989h-6.334a.994.994 0 0 1-.994-.994Zm8.322-6.628a.994.994 0 0 1-.994.994h-6.334a.994.994 0 0 1 0-1.988h6.334c.549 0 .994.445.994.994Z" fill-rule="evenodd" data-name="Path 3191"/><path d="M484.64 1299.5c0 .355.289.643.643.643h6.939l-7.582-7.517v6.874Z" fill-rule="evenodd" data-name="Path 3192"/></g></svg>