<svg xmlns="http://www.w3.org/2000/svg" width="50" height="50" viewBox="445.5 3660.5 50 50"><g data-name="XMLID_289_"><path d="M482.961 3661h-23.922c-7.201 0-13.039 5.838-13.039 13.039v23.923c0 7.2 5.837 13.037 13.038 13.038h23.924c7.2 0 13.037-5.837 13.038-13.038v-23.923c0-7.201-5.838-13.039-13.039-13.039Zm-14.061 29.931-7.212 7.212 3.908-.558a2 2 0 1 1 .566 3.96l-9.847 1.406a1.925 1.925 0 0 1-.67-.017c-.039-.008-.075-.024-.113-.034a2.142 2.142 0 0 1-.259-.078c-.048-.02-.091-.049-.137-.072a2 2 0 0 1-.209-.111 1.953 1.953 0 0 1-.582-.598c-.022-.035-.038-.073-.058-.109a2.013 2.013 0 0 1-.13-.279c-.017-.047-.029-.1-.042-.143a2.191 2.191 0 0 1-.073-.43 1.99 1.99 0 0 1 .007-.289v-.1l1.407-9.848a2 2 0 1 1 3.96.567l-.558 3.908 7.212-7.212a2 2 0 1 1 2.83 2.825Zm19.052-19.619-1.407 9.847a2 2 0 0 1-3.582.917 2 2 0 0 1-.381-1.484l.558-3.907-7.21 7.215a2.001 2.001 0 1 1-2.83-2.831l7.213-7.212-3.908.558a2 2 0 1 1-.566-3.96l9.849-1.405c.032-.005.064 0 .1 0 .097-.01.194-.012.291-.008.054 0 .107.008.161.015.09.013.18.031.269.056.05.014.1.026.148.044.095.035.187.079.275.129.037.02.076.036.112.059a1.9 1.9 0 0 1 .618.618c.022.035.037.073.057.109.05.09.095.183.131.28.017.047.029.094.042.142a2.007 2.007 0 0 1 .073.431c.005.096.002.193-.007.289-.007.031-.001.064-.006.098Z" fill="#95c12b" fill-rule="evenodd"/><path d="M482.961 3661h-23.922c-7.201 0-13.039 5.838-13.039 13.039v23.923c0 7.2 5.837 13.037 13.038 13.038h23.924c7.2 0 13.037-5.837 13.038-13.038v-23.923c0-7.201-5.838-13.039-13.039-13.039Zm-14.061 29.931-7.212 7.212 3.908-.558a2 2 0 1 1 .566 3.96l-9.847 1.406a1.925 1.925 0 0 1-.67-.017c-.039-.008-.075-.024-.113-.034a2.142 2.142 0 0 1-.259-.078c-.048-.02-.091-.049-.137-.072a2 2 0 0 1-.209-.111 1.953 1.953 0 0 1-.582-.598c-.022-.035-.038-.073-.058-.109a2.013 2.013 0 0 1-.13-.279c-.017-.047-.029-.1-.042-.143a2.191 2.191 0 0 1-.073-.43 1.99 1.99 0 0 1 .007-.289v-.1l1.407-9.848a2 2 0 1 1 3.96.567l-.558 3.908 7.212-7.212a2 2 0 1 1 2.83 2.825Zm19.052-19.619-1.407 9.847a2 2 0 0 1-3.582.917 2 2 0 0 1-.381-1.484l.558-3.907-7.21 7.215a2.001 2.001 0 1 1-2.83-2.831l7.213-7.212-3.908.558a2 2 0 1 1-.566-3.96l9.849-1.405c.032-.005.064 0 .1 0 .097-.01.194-.012.291-.008.054 0 .107.008.161.015.09.013.18.031.269.056.05.014.1.026.148.044.095.035.187.079.275.129.037.02.076.036.112.059a1.9 1.9 0 0 1 .618.618c.022.035.037.073.057.109.05.09.095.183.131.28.017.047.029.094.042.142a2.007 2.007 0 0 1 .073.431c.005.096.002.193-.007.289-.007.031-.001.064-.006.098Z" stroke-linejoin="round" stroke-linecap="round" stroke="rgba(0,0,0,0 )" fill="transparent"/></g></svg>