<svg xmlns="http://www.w3.org/2000/svg" width="70.883" height="70.887" viewBox="-2202.615 -2562.555 70.883 70.887"><g data-name="Multiple Layers (9)"><g data-name="Group 167515" clip-path="url(&quot;#a&quot;)" transform="translate(-2421.292 -2878.542)"><g data-name="Group 167514" clip-path="url(&quot;#b&quot;)"><path d="M218.676 315.988h70.883v70.887h-70.883v-70.887Zm0 0" fill="#303030" fill-rule="evenodd" data-name="Path 47823"/></g></g><path d="M-2144.729-2520.046a.735.735 0 0 1-.223.539.733.733 0 0 1-.539.223.723.723 0 0 1-.535-.223.732.732 0 0 1-.223-.54c0-.21.075-.39.223-.538a.726.726 0 0 1 .535-.223c.211 0 .39.075.54.223a.735.735 0 0 1 .222.539Zm0 0" fill="#fff" fill-rule="evenodd" data-name="Path 47828"/><g data-name="Group 167516" clip-path="url(&quot;#c&quot;)" transform="translate(-2421.292 -2878.542)"><path d="M237.039 356.469c0 .211-.074.39-.223.539a.734.734 0 0 1-.539.222.733.733 0 0 1-.535-.222.736.736 0 0 1-.222-.539c0-.211.074-.387.222-.535a.73.73 0 0 1 .535-.223c.211 0 .391.074.539.223a.723.723 0 0 1 .223.535Zm0 0" fill="#fff" fill-rule="evenodd" data-name="Path 47829"/></g><path d="M-2179.187-2506.87a.732.732 0 0 1-.222.535.734.734 0 0 1-.534.223.735.735 0 0 1-.54-.223.729.729 0 0 1-.223-.535c0-.211.074-.391.224-.54a.731.731 0 0 1 .539-.222.73.73 0 0 1 .534.223.734.734 0 0 1 .222.539Zm0 0" fill="#fff" fill-rule="evenodd" data-name="Path 47831"/><path d="M-2152.839-2507.886a.732.732 0 0 1-.222.539.729.729 0 0 1-.535.223.733.733 0 0 1-.54-.223.734.734 0 0 1-.222-.54c0-.21.074-.385.223-.534a.737.737 0 0 1 .539-.223c.207 0 .386.075.535.223a.724.724 0 0 1 .222.535Zm0 0" fill="#fff" fill-rule="evenodd" data-name="Path 47834"/><path d="M-2147.264-2513.206a2.03 2.03 0 0 0-2.028 2.027c0 1.117.91 2.028 2.028 2.028a2.031 2.031 0 0 0 2.027-2.028 2.03 2.03 0 0 0-2.027-2.027Zm0 0" fill="#fff" fill-rule="evenodd" data-name="Path 47835"/><g data-name="Group 167519" clip-path="url(&quot;#d&quot;)" transform="translate(-2421.292 -2878.542)"><path d="M257.016 342.027h-21.254c.265 5.633 4.929 10.137 10.629 10.137 5.695 0 10.359-4.504 10.625-10.137Zm-11.364 2.536h-5.574a.509.509 0 0 1 0-1.016h5.574a.509.509 0 0 1 0 1.016Zm0 0" fill="#fff" fill-rule="evenodd" data-name="Path 47839"/></g><g data-name="Group 167520" clip-path="url(&quot;#e&quot;)" transform="translate(-2421.292 -2878.542)"><path d="M274.695 341.164a8.085 8.085 0 0 0-5.734-2.371 8.085 8.085 0 0 0-5.734 2.371l-8.239 8.238 11.465 11.469 8.242-8.242c3.16-3.16 3.16-8.305 0-11.465Zm0 0" fill="#fff" fill-rule="evenodd" data-name="Path 47841"/></g><path d="M-2175.26-2520.18a8.056 8.056 0 0 0-2.375 5.732 8.06 8.06 0 0 0 2.375 5.734c3.16 3.16 8.304 3.16 11.464 0l8.243-8.242-11.468-11.465-8.24 8.242Zm10.41 8.138 4.562-4.562a.506.506 0 1 1 .715.718l-4.559 4.559a.512.512 0 0 1-.719 0 .503.503 0 0 1 0-.715Zm0 0" fill="#fff" fill-rule="evenodd" data-name="Path 47843"/></g><defs><clipPath id="b"><path d="M254.117 315.988c-19.574 0-35.441 15.867-35.441 35.442 0 19.574 15.867 35.445 35.441 35.445s35.442-15.871 35.442-35.445c0-19.575-15.868-35.442-35.442-35.442Zm0 0" data-name="Path 47824"/></clipPath><clipPath id="a"><path d="M218.676 315.988h70.883v70.887h-70.883v-70.887Zm0 0" data-name="Path 47825"/></clipPath><clipPath id="c"><path d="M235.516 355H238v3h-2.484v-3Zm0 0" data-name="Path 47830"/></clipPath><clipPath id="d"><path d="M235.516 342H258v11h-22.484v-11Zm0 0" data-name="Path 47840"/></clipPath><clipPath id="e"><path d="M254 338h23.516v23H254v-23Zm0 0" data-name="Path 47842"/></clipPath></defs></svg>