<svg xmlns="http://www.w3.org/2000/svg" width="80.43" height="75.578" viewBox="3164.212 1068.411 80.43 75.578"><g data-name="Multiple Layers (7)"><g data-name="Group 44"><g data-name="Group 43" transform="translate(3164 1068.406)" clip-path="url(&quot;#a&quot;)"><path d="M40.427 75.583a1.456 1.456 0 1 1 0-2.911c19.281 0 34.969-15.646 34.969-34.881 0-.802.656-1.453 1.458-1.453a1.46 1.46 0 0 1 1.464 1.453c0 20.839-17 37.792-37.891 37.792" fill-rule="evenodd" data-name="Path 33"/></g></g><g data-name="Group 48"><g data-name="Group 47" transform="translate(3164 1068.406)" clip-path="url(&quot;#b&quot;)"><path d="M40.427 65.084c-15.089 0-27.359-12.245-27.359-27.292 0-15.047 12.27-27.286 27.359-27.286 15.083 0 27.359 12.239 27.359 27.286S55.51 65.084 40.427 65.084m0-51.667c-13.479 0-24.443 10.938-24.443 24.375 0 13.443 10.964 24.38 24.443 24.38 13.474 0 24.437-10.937 24.437-24.38 0-13.437-10.963-24.375-24.437-24.375" fill-rule="evenodd" data-name="Path 35"/><path d="M76.854 39.813a1.458 1.458 0 0 1-1.458-1.453v-.948a1.458 1.458 0 0 1-1.828-2.271l2.328-2.021a1.467 1.467 0 0 1 1.562-.229c.521.235.86.755.86 1.323v4.146a1.46 1.46 0 0 1-1.464 1.453" fill-rule="evenodd" data-name="Path 36"/></g></g><g data-name="Group 50"><g data-name="Group 49" transform="translate(3164 1068.406)" clip-path="url(&quot;#c&quot;)"><path d="M76.854 39.813a1.458 1.458 0 0 1-1.458-1.453v-4.146c0-.568.333-1.088.854-1.323a1.474 1.474 0 0 1 1.568.229l2.322 2.021c.61.531.672 1.453.141 2.057-.5.579-1.359.662-1.963.214v.948a1.46 1.46 0 0 1-1.464 1.453" fill-rule="evenodd" data-name="Path 37"/></g></g><g data-name="Group 52"><g data-name="Group 51" transform="translate(3164 1068.406)" clip-path="url(&quot;#d&quot;)"><path d="M3.995 39.25a1.459 1.459 0 0 1-1.458-1.458C2.537 16.958 19.531.005 40.427.005c.802 0 1.459.651 1.459 1.453a1.46 1.46 0 0 1-1.459 1.459c-19.286 0-34.974 15.646-34.974 34.875a1.452 1.452 0 0 1-1.458 1.458" fill-rule="evenodd" data-name="Path 38"/></g></g><g data-name="Group 56"><g data-name="Group 55" transform="translate(3164 1068.406)" clip-path="url(&quot;#e&quot;)"><path d="M3.995 42.828a1.454 1.454 0 0 1-1.458-1.458v-4.141a1.458 1.458 0 0 1 2.916 0v.948a1.46 1.46 0 0 1 1.969.214 1.447 1.447 0 0 1-.141 2.052l-2.328 2.026a1.462 1.462 0 0 1-.958.359" fill-rule="evenodd" data-name="Path 40"/></g></g><g data-name="Group 58"><g data-name="Group 57" transform="translate(3164 1068.406)" clip-path="url(&quot;#f&quot;)"><path d="M3.995 42.828c-.344 0-.687-.125-.958-.359L.709 40.443a1.452 1.452 0 0 1-.136-2.052 1.46 1.46 0 0 1 1.964-.214v-.948a1.458 1.458 0 0 1 2.916 0v4.146a1.453 1.453 0 0 1-1.458 1.453" fill-rule="evenodd" data-name="Path 41"/></g></g><g data-name="Group 60"><g data-name="Group 59" transform="translate(3164 1068.406)" clip-path="url(&quot;#g&quot;)"><path d="M40.427 55.078c-6.432 0-11.667-5.219-11.667-11.636.469-11.005 10.162-21.984 10.573-22.447.558-.62 1.625-.62 2.183 0 .411.463 10.109 11.442 10.578 22.385 0 6.479-5.235 11.698-11.667 11.698m0-30.823c-2.495 3.146-8.417 11.406-8.75 19.25 0 4.745 3.927 8.661 8.75 8.661s8.75-3.916 8.75-8.724c-.339-7.791-6.255-16.046-8.75-19.187" fill-rule="evenodd" data-name="Path 42"/></g></g></g><defs><clipPath id="a"><path d="M0 0h40v39.349H0V0z" data-name="Rectangle 44" transform="translate(38.547 36.24)"/></clipPath><clipPath id="b"><path d="M0 0h80.833v75.589H0V0z" data-name="Rectangle 46"/></clipPath><clipPath id="c"><path d="M0 0h6.286v8H0V0z" data-name="Rectangle 47" transform="translate(74.547 32.24)"/></clipPath><clipPath id="d"><path d="M0 0h41.333v40.239H0V0z" data-name="Rectangle 48" transform="translate(1.213)"/></clipPath><clipPath id="e"><path d="M0 0h80.833v75.589H0V0z" data-name="Rectangle 50"/></clipPath><clipPath id="f"><path d="M0 0h6.547v8H0V0z" data-name="Rectangle 51" transform="translate(0 34.906)"/></clipPath><clipPath id="g"><path d="M0 0h80.833v75.589H0V0z" data-name="Rectangle 52"/></clipPath></defs></svg>