<svg xmlns="http://www.w3.org/2000/svg" width="30.766" height="39.607" viewBox="3237.017 5933.259 30.766 39.607"><g data-name="Multiple Layers (9)"><path d="M3257.546 5972.866h-16.586a.618.618 0 0 1-.496-.246.618.618 0 0 1-.094-.55l2.367-7.891a.621.621 0 0 1 .77-.418.624.624 0 0 1 .418.773l-2.129 7.094h14.918l-2.129-7.094a.624.624 0 0 1 .414-.773.622.622 0 0 1 .773.418l2.368 7.89a.634.634 0 0 1-.094.551.632.632 0 0 1-.5.246Zm0 0" fill="#95c12b" fill-rule="evenodd" data-name="Path 336"/><path d="M3250.252 5966.445c-7.297 0-13.235-5.933-13.235-13.23 0-3.18 1.145-6.25 3.223-8.653a13.255 13.255 0 0 1 7.977-4.425.626.626 0 0 1 .707.52.627.627 0 0 1-.52.706c-5.785.895-10.144 5.989-10.144 11.852 0 6.613 5.38 11.996 11.992 11.996a11.95 11.95 0 0 0 9.398-4.54.62.62 0 0 1 .97.77 13.172 13.172 0 0 1-10.368 5.004Zm0 0" fill="#95c12b" fill-rule="evenodd" data-name="Path 337"/><path d="M3267.162 5961.675h-15.828a.618.618 0 0 1-.622-.617v-2.446a.62.62 0 0 1 .622-.617h15.828a.62.62 0 0 1 .621.617v2.446a.622.622 0 0 1-.62.617Zm-15.21-1.235h14.59v-1.207h-14.59v1.207Zm0 0" fill="#95c12b" fill-rule="evenodd" data-name="Path 338"/><path d="M3263.76 5959.23a.622.622 0 0 1-.621-.617v-1.828h-5.832v1.828a.62.62 0 0 1-.621.617.62.62 0 0 1-.622-.617v-2.445c0-.34.278-.621.622-.621h7.074a.62.62 0 0 1 .617.621v2.445c0 .34-.273.617-.617.617Zm0 0" fill="#95c12b" fill-rule="evenodd" data-name="Path 339"/><path d="M3246.412 5938.245a.757.757 0 0 1-.161-.02.633.633 0 0 1-.375-.288l-1.441-2.497a.62.62 0 0 1 .23-.843l2.172-1.254a.614.614 0 0 1 .844.226l1.442 2.493a.628.628 0 0 1-.227.847l-2.172 1.254a.634.634 0 0 1-.312.082Zm-.594-2.887.82 1.422 1.102-.633-.821-1.421-1.101.632Zm0 0" fill="#95c12b" fill-rule="evenodd" data-name="Path 340"/><path d="M3252.112 5949.687a.619.619 0 0 1-.535-.31l-6.363-11.026a.613.613 0 0 1 .226-.844l3.621-2.09a.614.614 0 0 1 .844.227l6.363 11.023a.613.613 0 0 1-.226.844l-3.62 2.09a.596.596 0 0 1-.31.086Zm-5.519-11.418 5.746 9.953 2.547-1.473-5.743-9.95-2.55 1.47Zm0 0" fill="#95c12b" fill-rule="evenodd" data-name="Path 341"/><path d="M3253.203 5968.323h-7.941a.62.62 0 1 1 0-1.238h7.94a.62.62 0 0 1 0 1.238Zm0 0" fill="#95c12b" fill-rule="evenodd" data-name="Path 342"/><path d="M3253.203 5971.112h-7.941a.619.619 0 1 1 0-1.238h7.94a.62.62 0 0 1 0 1.238Zm0 0" fill="#95c12b" fill-rule="evenodd" data-name="Path 343"/><path d="M3255.304 5951.758a.61.61 0 0 1-.535-.309l-1.44-2.496a.613.613 0 0 1 .225-.844l2.172-1.254a.615.615 0 0 1 .844.227l1.441 2.496a.615.615 0 0 1-.226.844l-2.172 1.254a.591.591 0 0 1-.309.082Zm-.593-2.887.82 1.422 1.101-.633-.824-1.422-1.097.633Zm0 0" fill="#95c12b" fill-rule="evenodd" data-name="Path 344"/></g></svg>