<svg xmlns="http://www.w3.org/2000/svg" width="42.835" height="47.594" viewBox="698.835 2771.75 42.835 47.594"><g data-name="Grupo 165929"><path d="M705.974 2809.825h19.038" stroke-linejoin="round" stroke-linecap="round" stroke-width="4" stroke="#000" fill="transparent" data-name="Caminho 43734"/><path d="M698.835 2819.344h42.835" stroke-linejoin="round" stroke-linecap="round" stroke-width="4" stroke="#000" fill="transparent" data-name="Caminho 43735"/><path d="M722.632 2786.028h2.38a16.658 16.658 0 1 1 0 33.316" stroke-linejoin="round" stroke-linecap="round" stroke-width="4" stroke="#000" fill="transparent" data-name="Caminho 43736"/><path d="M713.113 2800.306h4.759" stroke-linejoin="round" stroke-linecap="round" stroke-width="4" stroke="#000" fill="transparent" data-name="Caminho 43737"/><path d="M713.113 2795.547a4.759 4.759 0 0 1-4.76-4.759v-9.519h14.279v9.519a4.759 4.759 0 0 1-4.76 4.759h-4.76Z" stroke-linejoin="round" stroke-linecap="round" stroke-width="4" stroke="#000" fill="transparent" data-name="Caminho 43738"/><path d="M710.734 2781.269v-7.139a2.38 2.38 0 0 1 2.38-2.38h4.759a2.38 2.38 0 0 1 2.38 2.38v7.139" stroke-linejoin="round" stroke-linecap="round" stroke-width="4" stroke="#000" fill="transparent" data-name="Caminho 43739"/></g></svg>