<svg xmlns="http://www.w3.org/2000/svg" width="35.146" height="40.121" viewBox="579.37 3402.086 35.146 40.121"><path d="M589.303 3402.236c-.862.4-1.136.974-1.136 2.381 0 1.024.004 1.05.202 1.237l.202.19h6.27l.189-.22c.177-.206.19-.28.189-1.136-.001-1.408-.254-1.961-1.092-2.386l-.425-.216-2.043.002c-1.824.002-2.076.017-2.356.148m-2.164 5.32c-1.076.561-1.087.62-1.088 5.681v4.216l.207.192.208.192h10.312l.22-.19.22-.188.021-4.133c.025-4.829.034-4.752-.636-5.403-.615-.599-.508-.586-5.047-.586h-3.998l-.42.219m11.565 2.089-.193.192v6.816l.177.195c.118.13.378.248.795.36 3.343.892 5.597 3.798 5.757 7.425.045 1.02.065 1.13.228 1.293l.179.178h6.826l.2-.232.199-.231-.042-1.336c-.162-5.15-2.68-9.667-6.953-12.468-2.454-1.61-6.515-2.85-7.173-2.192m-13.044 9.565c-1.708.535-1.91 3.342-.303 4.232l.42.233h5.878c5.257 0 5.906-.013 6.157-.127 1.65-.75 1.725-3.387.122-4.245l-.324-.173-5.799-.015c-4.802-.013-5.859.004-6.15.095m1.602 5.95c-.392.393-.155 1.127.527 1.629.512.377.544.38 3.913.356l3.177-.022.383-.237c.798-.494 1.105-1.328.637-1.73l-.218-.188h-8.227l-.192.192m16.028 2.31a2.88 2.88 0 0 0-1.712 1.483l-.207.442-.024 2.942c-.024 2.885-.021 2.947.14 3.151l.164.208 5.462.023 5.463.024.549.227c1.384.573 1.371.602 1.371-3.004 0-3.988-.182-4.601-1.589-5.353l-.33-.177-4.546-.014c-2.5-.008-4.633.013-4.74.047m-21.587 3.082c-.328.285-.352.701-.057.996l.239.238h2.278c2.172 0 2.279.007 2.279.146 0 .83 1.272 2.189 2.369 2.53.732.228 10.76.224 11.041-.004.183-.148.186-.17.21-1.883l.023-1.733-.233-.233-.234-.233h-17.713l-.202.176m27.163.118a2.277 2.277 0 0 1 .08 4.15c-1.473.723-3.247-.398-3.247-2.05 0-1.623 1.7-2.75 3.167-2.1m-1.313 1.15c-.806.35-.796 1.556.018 1.896.705.294 1.438-.19 1.438-.95 0-.771-.745-1.256-1.456-.947m-25.97 5.218c-.802.136-1.545.689-1.947 1.45-.306.579-.368 3.23-.083 3.533l.177.188h34.424l.177-.188c.286-.304.224-2.954-.083-3.534a2.746 2.746 0 0 0-2.018-1.455c-.53-.087-30.134-.082-30.648.006" fill="#fff" fill-rule="evenodd" data-name="path0"/></svg>