<svg xmlns="http://www.w3.org/2000/svg" width="70.883" height="70.887" viewBox="-2376.292 -2562.555 70.883 70.887"><g data-name="Multiple Layers (4)"><g data-name="Group 167505" clip-path="url(&quot;#a&quot;)" transform="translate(-2421.292 -2878.542)"><g data-name="Group 167504" clip-path="url(&quot;#b&quot;)"><path d="M45 315.988h70.883v70.887H45v-70.887Zm0 0" fill="#303030" fill-rule="evenodd" data-name="Path 47800"/></g></g><g data-name="Group 167506" clip-path="url(&quot;#c&quot;)" transform="translate(-2421.292 -2878.542)"><path d="M77.398 352.719c.602.601 1.625.636 2.262.035l3.89-3.856 2.548 2.653c.25.285.71.285.992.035a.717.717 0 0 0 .035-.988l-.777-.813 4.28-4.14a5.395 5.395 0 0 1-.816-1.168l-4.386 4.246-5.13-5.379 10.048-9.797c.355-.32.777-.496 1.238-.496.496 0 .957.211 1.309.566l2.582 2.723c.355.355.496.812.496 1.273.496.176.922.426 1.344.742a3.297 3.297 0 0 0-.493-2.617l2.688-2.617c.918-.883.953-2.371.07-3.324l-.21-.25-.04-.035c-.422-.457-1.023-.707-1.66-.742-.637 0-1.238.21-1.664.671l-2.758 2.653a3.246 3.246 0 0 0-1.629-.457c-.812 0-1.625.316-2.226.918l-10.153 9.836-.957-.993a.722.722 0 0 0-.992-.035.722.722 0 0 0-.035.992l2.621 2.723-3.895 3.891c-.636.601-.671 1.629-.035 2.23 0 .035 1.453 1.52 1.453 1.52Zm19.633-22.25c.176-.176.426-.285.672-.25.246 0 .461.109.637.285l.21.246.036.035c.355.391.355.992-.035 1.348l-2.653 2.582-1.52-1.629 2.653-2.617Zm-20.094 19.527 3.926-3.891 1.7 1.77-3.891 3.855c-.035.071-.07.071-.11.071-.035 0-.105 0-.14-.071l-1.45-1.488c-.07-.035-.07-.07-.07-.105 0-.071.035-.106.035-.141Zm0 0" fill="#fff" fill-rule="evenodd" data-name="Path 47803"/></g><g data-name="Group 167509" clip-path="url(&quot;#d&quot;)" transform="translate(-2421.292 -2878.542)"><path d="M71.242 341.539a.712.712 0 0 0-.707-.707H58.508a.71.71 0 0 0 0 1.418h.351v28.336c0 1.945 1.594 3.5 3.575 3.5h4.21c1.946 0 3.57-1.59 3.57-3.5V342.25h.356c.352 0 .672-.32.672-.711Zm-2.476 2.125h-.356a.71.71 0 0 0-.707.707c0 .391.32.707.707.707h.356v.707h-.356a.712.712 0 0 0-.707.707c0 .391.32.707.707.707h.356v.711h-.356a.71.71 0 0 0-.707.707c0 .387.32.707.707.707h.356v.707h-.356a.71.71 0 0 0-.707.707c0 .391.32.707.707.707h.356v.707h-.356a.712.712 0 0 0-.707.707c0 .391.32.711.707.711h.356v.707h-.356a.71.71 0 0 0-.707.707c0 .387.32.707.707.707h.356v.707h-.356a.712.712 0 0 0-.707.707c0 .391.32.708.707.708h.356v.707h-.356a.712.712 0 0 0-.707.71c0 .387.32.708.707.708h.356v.707h-.356a.71.71 0 0 0-.707.707c0 .39.32.707.707.707h.356v.707h-.356a.712.712 0 0 0-.707.707c0 .39.32.707.707.707h.356v.711h-.356a.71.71 0 0 0-.707.707c0 .386.32.707.707.707h.356v.707h-.356a.71.71 0 0 0-.707.707c0 .39.32.707.707.707h.356v.707h-.356a.712.712 0 0 0-.707.707c0 .39.32.711.707.711h.356v.035c0 1.164-.957 2.086-2.157 2.086h-4.175c-1.168 0-2.16-.957-2.16-2.086v-.035h.355a.71.71 0 0 0 0-1.418h-.356v-.707h.356a.707.707 0 0 0 0-1.414h-.356v-.707h.356a.707.707 0 1 0 0-1.414h-.356v-.711h.356a.707.707 0 0 0 0-1.414h-.356v-.707h.356a.707.707 0 0 0 0-1.414h-.356v-.707h.356a.71.71 0 0 0 0-1.418h-.356v-.707h.356a.707.707 0 0 0 0-1.415h-.356v-.707h.356a.707.707 0 0 0 0-1.414h-.356v-.707h.356a.71.71 0 0 0 0-1.418h-.356v-.707h.356a.707.707 0 1 0 0-1.414h-.356v-.707h.356a.707.707 0 0 0 0-1.414h-.356v-.711h.356a.707.707 0 1 0 0-1.414h-.356v-.707h.356a.707.707 0 1 0 0-1.414h-.356v-1.414h8.493v1.414Zm0 0" fill="#fff" fill-rule="evenodd" data-name="Path 47810"/></g><g data-name="Group 167510" clip-path="url(&quot;#e&quot;)" transform="translate(-2421.292 -2878.542)"><path d="M96.71 369.133h-4.808c6.473-2.016 11.176-8.028 11.176-15.176 0-4.031-1.484-7.781-4.031-10.613a4.489 4.489 0 0 1-.602 1.488 14.556 14.556 0 0 1 3.219 9.125c0 6.262-3.996 11.641-9.586 13.621a4.758 4.758 0 0 1-.46 1.59 4.955 4.955 0 0 1-.99 1.383h6.083c.39 0 .707.316.707.707v.707a.71.71 0 0 1-.707.707H76.195a.71.71 0 0 1-.707-.707v-.707c0-.391.317-.707.707-.707h7.5c-.425-.391-.746-.887-.992-1.383a4.303 4.303 0 0 1-.46-1.625 14.631 14.631 0 0 1-7.817-6.898h2.226a12.22 12.22 0 0 0 5.805 4.808c.14-.457.352-.883.637-1.273-1.84-.707-3.504-1.91-4.707-3.535h2.406a.707.707 0 0 0 0-1.415h-9.2v1.415h1.274a15.877 15.877 0 0 0 9.695 8.488h-6.367a2.132 2.132 0 0 0-2.125 2.125v.707c0 1.168.957 2.121 2.125 2.121h20.516a2.129 2.129 0 0 0 2.125-2.121v-.707a2.132 2.132 0 0 0-2.125-2.125Zm0 0" fill="#fff" fill-rule="evenodd" data-name="Path 47816"/></g></g><defs><clipPath id="b"><path d="M80.441 315.988C60.867 315.988 45 331.855 45 351.43c0 19.574 15.867 35.445 35.441 35.445 19.575 0 35.442-15.871 35.442-35.445 0-19.575-15.867-35.442-35.442-35.442Zm0 0" data-name="Path 47801"/></clipPath><clipPath id="a"><path d="M45 315.988h70.883v70.887H45v-70.887Zm0 0" data-name="Path 47802"/></clipPath><clipPath id="c"><path d="M75 328.77h26V354H75v-25.23Zm0 0" data-name="Path 47804"/></clipPath><clipPath id="d"><path d="M57.781 340H72v33.77H57.781V340Zm0 0" data-name="Path 47811"/></clipPath><clipPath id="e"><path d="M71 343h31.781v30.77H71V343Zm0 0" data-name="Path 47817"/></clipPath></defs></svg>