<svg xmlns="http://www.w3.org/2000/svg" width="30" height="30" viewBox="53.889 53.75 30 30"><path d="M68.125 54.038c-.458.458-.211 2.89.322 3.173.942.503 1.49-.214 1.39-1.813-.087-1.37-.988-2.085-1.713-1.36m-6.28 1.38c-.223.58.864 2.888 1.468 3.123 1.085.416 1.395-.64.613-2.073-.776-1.415-1.752-1.907-2.078-1.05m12.12.9c-.8 1.426-.693 2.176.309 2.176.653 0 1.976-2.351 1.71-3.04-.35-.905-1.24-.525-2.02.865Zm-17.083 2.783c-.446.447-.112 1.237.867 2.046 1.18.976 2.132 1.025 2.261.118.143-.998-2.48-2.812-3.128-2.164Zm21.896.733c-1.173.999-1.314 1.964-.316 2.105.822.116 2.716-1.544 2.61-2.286-.132-.924-1.085-.848-2.294.181Zm-12.535-.392c-7.14 2.339-9.408 11.124-4.218 16.31a9.822 9.822 0 0 0 15.646-2.585c3.73-7.076-3.874-16.202-11.433-13.724m6.044 2.251c4.857 2.148 6.05 8.974 2.235 12.787-3.816 3.813-10.651 2.62-12.812-2.256a7.95 7.95 0 0 1 1.62-8.941 7.963 7.963 0 0 1 8.954-1.59m-7.617 3.238c-.28.729.112 1.33.802 1.232a.803.803 0 0 0 0-1.583.701.701 0 0 0-.802.351Zm7.02 0c-.28.728.112 1.33.802 1.231.465-.066.634-.277.634-.788 0-.828-1.151-1.182-1.436-.437m-17.613.066a1.023 1.023 0 0 0 .304 1.454c1.694.89 3.78.492 3.346-.638-.252-.654-3.16-1.305-3.65-.816Zm27.108.124c-1.895.559-1.353 2.101.623 1.778 1.634-.27 2.176-.62 2.075-1.336-.102-.716-1.185-.888-2.698-.437m-16.273 2.949c-.54.216-.415 2.091.209 3.113 2.174 3.563 8.14 2.144 8.147-1.938 0-1.75-1.43-1.719-1.782.038a2.55 2.55 0 0 1-3.806 1.81 2.552 2.552 0 0 1-1.07-1.22c-.843-1.978-.956-2.102-1.696-1.803m-9.576 2.898c-1.153.272-1.531.625-1.402 1.304.176.921 3.417.63 3.79-.34.384-.996-.59-1.39-2.388-.962m24.965.122c-.554.667-.16 1.225 1.115 1.565 1.58.425 2.36.275 2.466-.475.15-1.05-2.853-1.965-3.58-1.09ZM57.73 76.617c-1.14.941-1.334 1.992-.403 2.169.767.146 2.782-1.582 2.68-2.299-.13-.911-1.083-.857-2.277.13Zm20.21-.679c-.456.454-.102 1.241.937 2.057 1.236.978 2.063 1.017 2.194.103.148-1.034-2.453-2.83-3.127-2.158M62.59 80.013c-1.06 1.718-1.064 2.756-.008 2.756.7 0 2.123-2.496 1.752-3.087-.476-.762-1.149-.635-1.745.332m10.95-.475c-.547.659.82 3.09 1.736 3.09.89 0 .947-.849.15-2.242-.708-1.24-1.33-1.518-1.887-.848Zm-5.174 1.074c-.925.676-.501 3.137.54 3.137.818 0 .846-.044.927-1.456.096-1.653-.525-2.363-1.467-1.68Z" fill-rule="evenodd" data-name="Path 8374"/></svg>