<svg xmlns="http://www.w3.org/2000/svg" width="30" height="30" viewBox="53.116 53 30 30"><g data-name="Grupo 165752"><path d="M83.116 68c0-8.285-6.716-15-15-15-8.284 0-15 6.715-15 15 0 8.284 6.716 15 15 15 8.284 0 15-6.716 15-15Z" fill-rule="evenodd" data-name="Path 8159"/><path d="M67.713 59.589c-.71.282-2.036 1.531-2.475 2.331a2.903 2.903 0 0 0-.335 1.934c.045.122.042.124-.144.098-1.251-.176-2.677-.146-3.142.065-.64.292-.455 2.35.314 3.512l.277.418-.218.026c-.61.074-.769.381-.722 1.403.125 2.753 2.181 4.34 5.623 4.343h.36v1.128c0 1.392.133 1.646.862 1.646.743 0 .87-.238.87-1.646V73.72h.36c3.458-.003 5.496-1.577 5.623-4.343.046-1.022-.114-1.33-.723-1.403l-.218-.026.277-.418c.8-1.208.95-3.201.268-3.574-.302-.165-1.82-.18-2.896-.028-.41.058-.383.08-.316-.262.216-1.114-.561-2.448-2.104-3.606-.729-.547-1.08-.654-1.543-.47m.72 1.704c1.608 1.367 1.6 2.698-.023 4.02l-.293.238-.293-.238c-1.182-.963-1.515-1.953-.98-2.911.245-.439 1.1-1.337 1.272-1.337.12.064.227.141.317.228Zm-4.67 3.866c2.197.114 3.457 1.232 3.487 3.096 0 .05-.104.056-.59.034-2.307-.107-3.52-1.031-3.663-2.792l-.032-.401.167.02c.092.01.376.03.631.042m9.47.345c-.154 1.768-1.359 2.684-3.663 2.786l-.594.026.03-.213c.016-.117.045-.333.063-.48.182-1.478 1.424-2.35 3.532-2.481.31-.02.587-.038.616-.043a.739.739 0 0 1 .017.402m-9.127 3.807c1.974.227 2.907 1.068 3.117 2.804l.038.321-.568-.026c-2.327-.11-3.54-1.019-3.692-2.769l-.037-.427.369.024c.203.014.55.046.772.07m9.146.137c0 1.225-.74 2.245-1.918 2.651-.663.228-2.352.434-2.352.286 0-2.038 1.258-2.992 4.169-3.16.084-.006.1.031.1.224" fill="#fff" fill-rule="evenodd" data-name="Path 8160"/></g></svg>