<svg xmlns="http://www.w3.org/2000/svg" width="42.594" height="42.532" viewBox="575.203 5376.234 42.594 42.532"><g data-name="path0"><path d="M586.68 5376.837c-6.978 1.442-12.482 9.306-10.607 15.152.941 2.933 2.93 4.71 8.917 7.964 5.955 3.238 7.198 4.424 8.302 7.924 1.777 5.635 4.699 9.551 8.108 10.866 8.259 3.185 19.894-8.886 16.188-16.794-1.583-3.378-5.377-6.041-11.189-7.851-2.853-.889-5.45-3.87-8.06-9.258-2.206-4.553-4.638-7.068-7.66-7.918-.725-.204-3.172-.256-4-.085m2.577 2.921c2.456.355 4.349 2.296 6.434 6.593 3.05 6.29 5.965 9.41 10.007 10.717 5.208 1.684 8.517 4.083 9.377 6.798 1.412 4.456-4.797 11.895-10.339 12.387-3.421.304-6.62-3.216-8.61-9.477-.685-2.156-1.27-3.148-2.785-4.728-1.75-1.824-4.963-4.028-7.674-5.266-4.063-1.855-6.26-3.832-6.808-6.125-1.144-4.792 5.376-11.625 10.398-10.899m-2.282 1.051c-3.072.8-6.364 4.116-7.155 7.207-.799 3.125.88 5.407 5.68 7.72 6.885 3.32 10.002 6.299 11.559 11.049 1.623 4.95 4.114 8.153 6.644 8.542 4.834.744 12.077-7.123 10.472-11.373-.91-2.408-3.954-4.538-8.54-5.974-4.457-1.395-7.424-4.53-10.854-11.471-2.454-4.965-4.602-6.533-7.806-5.7m14.892 4.436c-.498.16-1.612.881-1.696 1.099-.052.135.45 1.024 1.283 2.269 1.734 2.593 3.422 4.112 5.14 4.624.62.186 1.754.57 2.266.769.332.128.872-1.26.872-2.24 0-1.457-.232-1.831-2.59-4.17-2.586-2.565-3.43-2.941-5.275-2.351m-16.979 16.46c-.897 1.22-1.052 2.689-.42 3.963.472.951 3.81 4.276 4.73 4.71.95.45 2.246.434 3.201-.038l.664-.328-.392-1.198c-.916-2.803-1.078-3.109-2.285-4.294-.976-.957-2.032-1.677-4.652-3.17l-.413-.236-.433.59" fill="#fff" fill-rule="evenodd"/><path d="M586.68 5376.837c-6.978 1.442-12.482 9.306-10.607 15.152.941 2.933 2.93 4.71 8.917 7.964 5.955 3.238 7.198 4.424 8.302 7.924 1.777 5.635 4.699 9.551 8.108 10.866 8.259 3.185 19.894-8.886 16.188-16.794-1.583-3.378-5.377-6.041-11.189-7.851-2.853-.889-5.45-3.87-8.06-9.258-2.206-4.553-4.638-7.068-7.66-7.918-.725-.204-3.172-.256-4-.085m2.577 2.921c2.456.355 4.349 2.296 6.434 6.593 3.05 6.29 5.965 9.41 10.007 10.717 5.208 1.684 8.517 4.083 9.377 6.798 1.412 4.456-4.797 11.895-10.339 12.387-3.421.304-6.62-3.216-8.61-9.477-.685-2.156-1.27-3.148-2.785-4.728-1.75-1.824-4.963-4.028-7.674-5.266-4.063-1.855-6.26-3.832-6.808-6.125-1.144-4.792 5.376-11.625 10.398-10.899m-2.282 1.051c-3.072.8-6.364 4.116-7.155 7.207-.799 3.125.88 5.407 5.68 7.72 6.885 3.32 10.002 6.299 11.559 11.049 1.623 4.95 4.114 8.153 6.644 8.542 4.834.744 12.077-7.123 10.472-11.373-.91-2.408-3.954-4.538-8.54-5.974-4.457-1.395-7.424-4.53-10.854-11.471-2.454-4.965-4.602-6.533-7.806-5.7m14.892 4.436c-.498.16-1.612.881-1.696 1.099-.052.135.45 1.024 1.283 2.269 1.734 2.593 3.422 4.112 5.14 4.624.62.186 1.754.57 2.266.769.332.128.872-1.26.872-2.24 0-1.457-.232-1.831-2.59-4.17-2.586-2.565-3.43-2.941-5.275-2.351m-16.979 16.46c-.897 1.22-1.052 2.689-.42 3.963.472.951 3.81 4.276 4.73 4.71.95.45 2.246.434 3.201-.038l.664-.328-.392-1.198c-.916-2.803-1.078-3.109-2.285-4.294-.976-.957-2.032-1.677-4.652-3.17l-.413-.236-.433.59" stroke-linejoin="round" stroke-linecap="round" stroke="#95c12b" fill="transparent"/></g></svg>