<svg xmlns="http://www.w3.org/2000/svg" width="34.067" height="34" viewBox="14 14 34.067 34"><g data-name="people"><path d="M26.194 27.91H35.911c.528 0 .955-.43.955-.96v-1.045a5.096 5.096 0 0 0-5.142-5.108 3.43 3.43 0 0 0 2.747-3.365A3.425 3.425 0 0 0 31.053 14a3.425 3.425 0 0 0-3.419 3.432 3.43 3.43 0 0 0 2.747 3.365 5.096 5.096 0 0 0-5.142 5.108v1.045c0 .53.428.96.955.96Z" fill-rule="evenodd" data-name="Path 3185"/><path d="M18.293 30.585a.998.998 0 0 0 1.16-.806c.245-1.354.71-2.67 1.38-3.91a13.126 13.126 0 0 1 2.414-3.197 1.004 1.004 0 0 0 .026-1.415.994.994 0 0 0-1.41-.026 15.125 15.125 0 0 0-2.782 3.682 15.149 15.149 0 0 0-1.59 4.508 1 1 0 0 0 .802 1.164Z" fill-rule="evenodd" data-name="Path 3186"/><path d="M41.272 25.869a13.144 13.144 0 0 1 1.381 3.91.998.998 0 0 0 1.16.806 1 1 0 0 0 .802-1.164 15.148 15.148 0 0 0-1.59-4.508 15.124 15.124 0 0 0-2.783-3.682.994.994 0 0 0-1.41.026 1.004 1.004 0 0 0 .026 1.415 13.124 13.124 0 0 1 2.414 3.197Z" fill-rule="evenodd" data-name="Path 3187"/><path d="M35.08 38.231c-1.286.425-2.64.642-4.027.647h-.055c-1.356 0-2.686-.203-3.949-.604a1.001 1.001 0 0 0-.6 1.909c1.457.463 2.988.698 4.55.698h.054c1.599-.006 3.162-.257 4.65-.748a1.001 1.001 0 0 0-.623-1.902Z" fill-rule="evenodd" data-name="Path 3188"/><path d="M20.484 40.888a3.43 3.43 0 0 0 2.747-3.366 3.426 3.426 0 0 0-3.418-3.432 3.426 3.426 0 0 0-3.418 3.432 3.43 3.43 0 0 0 2.747 3.366A5.096 5.096 0 0 0 14 45.996v1.045c0 .53.427.959.955.959H24.672c.527 0 .955-.43.955-.959v-1.045a5.096 5.096 0 0 0-5.143-5.108Z" fill-rule="evenodd" data-name="Path 3189"/><path d="M42.924 40.888a3.43 3.43 0 0 0 2.747-3.366 3.426 3.426 0 0 0-3.418-3.432 3.425 3.425 0 0 0-3.418 3.432 3.43 3.43 0 0 0 2.747 3.366 5.095 5.095 0 0 0-5.142 5.108v1.045c0 .53.427.959.955.959h9.716c.528 0 .956-.43.956-.959v-1.045a5.096 5.096 0 0 0-5.143-5.108Z" fill-rule="evenodd" data-name="Path 3190"/></g></svg>