<svg xmlns="http://www.w3.org/2000/svg" width="30" height="30" viewBox="53.116 92.569 30 30"><g data-name="Grupo 165720"><path d="M68.116 92.57c8.284 0 15 6.715 15 15 0 8.284-6.716 15-15 15-8.284 0-15-6.716-15-15 0-8.285 6.716-15 15-15Z" fill-rule="evenodd" data-name="Retângulo 150700"/><path d="M68.11 115.07c-1.926 0-4.265-1.481-5.106-3.234-.142-.299-.17-.342-.459-.476-1.142-.531-1.842-1.798-1.923-3.476-.147-3.138 2.314-5.446 6.128-5.744.196-.015.355-.022.49-.022.608 0 .653.138.653.35 0 .213 0 .324-.726.36-2.647.13-4.597 1.264-5.353 3.111a4.848 4.848 0 0 0 .208 3.88c.093.156.155.26.307.26.207 0 .226-.18.232-.246.012-.074.017-.183.024-.322v-.027c.098-2.04 1.247-3.293 4.547-4.97 1.214-.617 1.812-.994 2.139-1.342a1.15 1.15 0 0 0 .32-.608 1.033 1.033 0 0 0-.104-.653c-.13-.342-.407-.637-.784-.832a2.615 2.615 0 0 0-1.198-.287 2.17 2.17 0 0 0-.942.187c-.287.13-.523.32-.682.55a.424.424 0 0 1-.162.105.526.526 0 0 1-.204.03.436.436 0 0 1-.213-.047.369.369 0 0 1-.165-.168.278.278 0 0 1-.009-.214c.109-.404.84-.947 1.835-1.12a3.53 3.53 0 0 1 2.256.385c.497.278.875.67 1.084 1.125.526 1.257-.022 2.107-2.019 3.138-2.326 1.203-2.634 1.383-3.288 1.926a4.5 4.5 0 0 0-1.28 1.697 3.685 3.685 0 0 0-.254 1.969c.095.688.377 1.351.829 1.943a5.429 5.429 0 0 0 1.784 1.48 4.344 4.344 0 0 0 2.056.566 4.178 4.178 0 0 0 2.091-.607c.947-.526 1.683-1.257 2.12-2.106a4.389 4.389 0 0 0 .392-2.794c-.232-1.393-.8-1.924-2.901-2.707-.653-.244-.637-.397-.543-.572.093-.175.216-.201.336-.201.179.01.353.047.514.11 2.586.891 3.413 1.825 3.536 3.994l.064 1.118.45-.752c.612-1.12.72-2.375.304-3.551-.315-1.147-1.173-2.152-2.396-2.808-.462-.22-.615-.443-.604-.577.011-.121.16-.195.282-.234a.38.38 0 0 1 .116-.016c.65 0 2.133 1.006 2.874 2.136.735 1.182 1.003 2.513.767 3.819-.226 1.313-.905 2.322-1.861 2.766a.767.767 0 0 0-.283.174.564.564 0 0 0-.153.257c-.826 1.776-3.175 3.277-5.126 3.277Zm2.245-5.256a2.079 2.079 0 0 1-.697-.124 1.733 1.733 0 0 1-.573-.34.365.365 0 0 1-.111-.155.301.301 0 0 1 .078-.322.52.52 0 0 1 .336-.127.61.61 0 0 1 .36.136c.156.138.37.224.602.243.243-.021.468-.112.633-.255a.61.61 0 0 1 .343-.111c.086 0 .17.02.242.057a.4.4 0 0 1 .165.152.28.28 0 0 1 .021.204.337.337 0 0 1-.127.178c-.159.145-.354.26-.573.34-.22.08-.457.123-.698.124Zm-4.49 0a2.077 2.077 0 0 1-.698-.124 1.732 1.732 0 0 1-.573-.34.365.365 0 0 1-.11-.156.302.302 0 0 1 .078-.32.515.515 0 0 1 .336-.127.615.615 0 0 1 .36.135c.156.137.37.224.6.243.244-.02.47-.111.637-.255a.608.608 0 0 1 .342-.111c.086 0 .17.02.242.057a.4.4 0 0 1 .166.152.28.28 0 0 1 .021.204.337.337 0 0 1-.128.178c-.159.145-.354.26-.574.34-.219.08-.457.123-.699.124Z" fill="#fff" fill-rule="evenodd" data-name="Subtração 375"/></g></svg>