<svg xmlns="http://www.w3.org/2000/svg" width="32.984" height="32.984" viewBox="463 1656.626 32.984 32.984"><g data-name="return"><path d="m477.124 1661.264 2.239 1.138v-5.776h-5.347v5.776l2.237-1.137a.962.962 0 0 1 .87-.001Zm0 0" fill-rule="evenodd" data-name="Path 3225"/><path d="M490.379 1668.302v-10.71a.966.966 0 0 0-.966-.966h-8.117v7.348a.965.965 0 0 1-1.466.828l-3.14-1.596-3.206 1.629a.965.965 0 0 1-1.398-.86l-.003-7.349h-8.117a.966.966 0 0 0-.966.967v25.446c0 .534.433.966.966.966h10.71a12.01 12.01 0 0 1 .033-9.132c2.536-6.122 9.53-9.063 15.67-6.571Zm0 0" fill-rule="evenodd" data-name="Path 3226"/><path d="M493.016 1672.317a10.099 10.099 0 0 0-7.163-2.968c-2.797 0-5.33 1.134-7.163 2.968a10.098 10.098 0 0 0-2.967 7.163c0 2.797 1.134 5.33 2.967 7.163a10.098 10.098 0 0 0 7.163 2.967c2.798 0 5.33-1.134 7.163-2.967a10.099 10.099 0 0 0 2.968-7.163c0-2.798-1.134-5.33-2.968-7.163Zm-3.089 10.335a3.725 3.725 0 0 1-2.64 1.096h-4.51a.966.966 0 1 1 0-1.933h4.51c.992 0 1.804-.812 1.804-1.804 0-.537-.168-.976-.53-1.338a1.797 1.797 0 0 0-1.274-.53h-2.692l.574.573a.963.963 0 1 1-1.359 1.366l-2.22-2.216a.963.963 0 0 1-.004-1.363l2.216-2.22a.964.964 0 0 1 1.366 1.359l-.567.568h2.686a3.742 3.742 0 0 1 3.736 3.737c0 1.072-.385 1.993-1.096 2.705Zm0 0" fill-rule="evenodd" data-name="Path 3227"/></g></svg>