<svg xmlns="http://www.w3.org/2000/svg" width="54.126" height="53.418" viewBox="645 1369.009 54.126 53.418"><path d="M654.43 1421.942a1.657 1.657 0 0 1 0-2.341l5.621-5.625a1.647 1.647 0 0 1 2.335 0c.646.644.646 1.693.003 2.337l-5.62 5.63a1.647 1.647 0 0 1-1.17.484c-.422 0-.845-.161-1.168-.485Zm-6.805-2.144a1.655 1.655 0 0 1 0-2.341l6.557-6.562a1.646 1.646 0 0 1 2.335 0c.646.643.646 1.69.003 2.337l-6.557 6.566a1.648 1.648 0 0 1-2.338 0Zm27.9-1.45a2.12 2.12 0 0 1-.89-1.607l-.46-7.318a59.071 59.071 0 0 1-8.323 2.896 5.75 5.75 0 0 1-3.748-.23 11.002 11.002 0 0 1-5.995-6.003 5.78 5.78 0 0 1-.233-3.75 59.305 59.305 0 0 1 2.897-8.337l-7.312-.458a2.11 2.11 0 0 1-1.607-.893 2.122 2.122 0 0 1-.31-1.812c4.222-13.855 16.36-11.522 18.778-10.902 10.194-9.836 22.678-10.955 28.033-10.924a2.786 2.786 0 0 1 2.77 2.774c.03 5.362-1.087 17.858-10.906 28.071.615 2.421 2.948 14.579-10.888 18.803a2.108 2.108 0 0 1-1.807-.31Zm-.05-36.004a7.326 7.326 0 0 0 0 10.347 7.301 7.301 0 0 0 10.337 0 7.326 7.326 0 0 0 0-10.347 7.282 7.282 0 0 0-5.168-2.145c-1.871 0-3.741.715-5.17 2.145Zm-29.99 30.64a1.653 1.653 0 0 1 0-2.34l5.617-5.627a1.65 1.65 0 0 1 2.338 0 1.657 1.657 0 0 1 0 2.341l-5.618 5.625a1.647 1.647 0 0 1-1.169.485c-.423 0-.846-.161-1.168-.485Z" fill="#95c12b" fill-rule="evenodd" data-name="Union 207"/></svg>