<svg xmlns="http://www.w3.org/2000/svg" width="36.97" height="36.436" viewBox="572.943 3985.764 36.97 36.436"><path d="M579.384 4021.871a1.129 1.129 0 0 1 0-1.598l3.838-3.837a1.129 1.129 0 0 1 1.597 1.594l-3.838 3.838a1.13 1.13 0 0 1-1.597.001Zm-4.65-1.463a1.129 1.129 0 0 1 .001-1.596l4.479-4.478a1.13 1.13 0 0 1 1.596 1.596l-4.478 4.478a1.13 1.13 0 0 1-1.597 0Zm19.057-.99a1.447 1.447 0 0 1-.608-1.095l-.313-4.993a40.35 40.35 0 0 1-5.686 1.977 3.932 3.932 0 0 1-2.558-.159 7.514 7.514 0 0 1-4.095-4.093 3.939 3.939 0 0 1-.158-2.56 40.4 40.4 0 0 1 1.978-5.685l-4.995-.314a1.45 1.45 0 0 1-1.308-1.846c2.883-9.449 11.174-7.858 12.825-7.436 6.963-6.71 15.49-7.472 19.148-7.45a1.902 1.902 0 0 1 1.892 1.892c.02 3.657-.742 12.18-7.45 19.148.42 1.651 2.013 9.943-7.437 12.826a1.435 1.435 0 0 1-1.238-.214Zm-.033-24.559a4.99 4.99 0 1 0 7.06 7.052 4.99 4.99 0 0 0-7.06-7.05Zm-20.485 20.9a1.13 1.13 0 0 1 0-1.595l3.838-3.838a1.129 1.129 0 1 1 1.597 1.597l-3.838 3.838a1.126 1.126 0 0 1-1.597 0Z" fill="#fff" fill-rule="evenodd" data-name="União 207"/></svg>