<svg xmlns="http://www.w3.org/2000/svg" width="51.763" height="51.755" viewBox="445.5 3952.831 51.763 51.755"><g data-name="settings"><path d="m496.536 3973.316-3.978-.865a21.648 21.648 0 0 0-1.28-3.086l2.206-3.426c.39-.61.305-1.411-.207-1.925l-6.2-6.2a1.547 1.547 0 0 0-1.93-.207l-3.426 2.2a21.65 21.65 0 0 0-3.083-1.276l-.867-3.98a1.547 1.547 0 0 0-1.511-1.22h-8.76c-.727 0-1.356.507-1.511 1.217l-.868 3.983c-1.06.347-2.092.775-3.086 1.28l-3.426-2.2a1.547 1.547 0 0 0-1.925.21l-6.2 6.2a1.547 1.547 0 0 0-.207 1.924l2.2 3.426a21.649 21.649 0 0 0-1.277 3.081l-3.978.865a1.547 1.547 0 0 0-1.222 1.514v8.76c0 .727.507 1.356 1.217 1.511l3.979.865c.347 1.06.774 2.092 1.28 3.086l-2.2 3.426a1.547 1.547 0 0 0 .207 1.93l6.205 6.2a1.547 1.547 0 0 0 1.925.207l3.426-2.2c.994.506 2.026.934 3.086 1.28l.865 3.978a1.547 1.547 0 0 0 1.51 1.212h8.76c.727 0 1.356-.507 1.511-1.217l.865-3.979a21.649 21.649 0 0 0 3.086-1.28l3.426 2.2a1.547 1.547 0 0 0 1.93-.207l6.2-6.2a1.547 1.547 0 0 0 .209-1.93l-2.2-3.426c.506-.994.933-2.026 1.28-3.086l3.978-.865a1.547 1.547 0 0 0 1.218-1.51v-8.755c0-.728-.508-1.357-1.219-1.51Zm-15.381 5.893a9.28 9.28 0 1 1-18.56 0 9.28 9.28 0 0 1 18.56 0Zm0 0" fill="#95c12b" fill-rule="evenodd"/><path d="m496.536 3973.316-3.978-.865a21.648 21.648 0 0 0-1.28-3.086l2.206-3.426c.39-.61.305-1.411-.207-1.925l-6.2-6.2a1.547 1.547 0 0 0-1.93-.207l-3.426 2.2a21.65 21.65 0 0 0-3.083-1.276l-.867-3.98a1.547 1.547 0 0 0-1.511-1.22h-8.76c-.727 0-1.356.507-1.511 1.217l-.868 3.983c-1.06.347-2.092.775-3.086 1.28l-3.426-2.2a1.547 1.547 0 0 0-1.925.21l-6.2 6.2a1.547 1.547 0 0 0-.207 1.924l2.2 3.426a21.649 21.649 0 0 0-1.277 3.081l-3.978.865a1.547 1.547 0 0 0-1.222 1.514v8.76c0 .727.507 1.356 1.217 1.511l3.979.865c.347 1.06.774 2.092 1.28 3.086l-2.2 3.426a1.547 1.547 0 0 0 .207 1.93l6.205 6.2a1.547 1.547 0 0 0 1.925.207l3.426-2.2c.994.506 2.026.934 3.086 1.28l.865 3.978a1.547 1.547 0 0 0 1.51 1.212h8.76c.727 0 1.356-.507 1.511-1.217l.865-3.979a21.649 21.649 0 0 0 3.086-1.28l3.426 2.2a1.547 1.547 0 0 0 1.93-.207l6.2-6.2a1.547 1.547 0 0 0 .209-1.93l-2.2-3.426c.506-.994.933-2.026 1.28-3.086l3.978-.865a1.547 1.547 0 0 0 1.218-1.51v-8.755c0-.728-.508-1.357-1.219-1.51Zm-15.381 5.893a9.28 9.28 0 1 1-18.56 0 9.28 9.28 0 0 1 18.56 0Zm0 0" stroke-linejoin="round" stroke-linecap="round" stroke="rgba(0,0,0,0 )" fill="transparent"/></g></svg>