<svg width="35" height="35" viewBox="0 0 35 35" fill="none" xmlns="http://www.w3.org/2000/svg">
<path d="M18.05 6.42794C19.5395 6.42794 20.747 5.22045 20.747 3.73094C20.747 2.24142 19.5395 1.03394 18.05 1.03394C16.5605 1.03394 15.353 2.24142 15.353 3.73094C15.353 5.22045 16.5605 6.42794 18.05 6.42794Z" stroke="white" stroke-width="2"/>
<path d="M23.4003 29.089C23.9198 28.6481 24.4872 28.1276 25.0848 27.5167C27.5819 24.9645 29.6815 21.7941 31.3251 18.0929C32.1942 16.1373 32.6532 14.0968 32.6903 12.0289C32.7196 10.3585 32.4774 8.65784 31.9677 6.97375C31.7108 6.12268 31.41 5.3595 31.1122 4.70471C30.1718 5.76331 28.8573 6.90686 27.0829 7.79309L27.0702 7.79895C26.9159 7.87463 26.7382 7.95959 26.5311 8.05774C25.5223 8.53772 23.6434 9.43176 22.7704 10.1945C21.4052 11.3854 20.8768 12.6407 21.1542 14.0319C21.3759 15.1451 22.0282 15.9816 22.0966 16.0665L22.1561 16.1329L22.2313 16.2433C22.3553 16.4269 25.2675 20.8185 23.994 27.005C23.8368 27.7697 23.6337 28.462 23.4003 29.089ZM18.6971 34.1769C18.496 34.1769 18.3309 34.1246 18.2147 34.0084C17.2372 33.0284 20.9169 32.0333 22.035 26.6017C23.1532 21.1705 20.5751 17.3649 20.5751 17.3649C20.5751 17.3649 16.6884 12.8478 21.455 8.68762C22.7196 7.58313 25.205 6.48645 26.1893 6.00354C29.9491 4.1261 31.2587 0.925415 31.2587 0.925415C31.2587 0.925415 37.5009 9.11633 33.1532 18.9049C28.8046 28.693 22.6376 32.1715 21.6444 32.8234C20.5516 33.5421 19.4003 34.1769 18.6971 34.1769Z" fill="white"/>
<path d="M11.6003 29.0885C11.3679 28.4615 11.1638 27.7692 11.0066 27.0045C9.73411 20.818 12.6472 16.4269 12.7722 16.2428L12.823 16.1593L12.906 16.0665C12.9724 15.984 13.6267 15.1466 13.8493 14.0319C14.1267 12.6407 13.5974 11.3859 12.2312 10.194C11.3562 9.4303 9.47532 8.53577 8.46555 8.0553C8.26145 7.95813 8.08469 7.87415 7.93235 7.79944L7.91868 7.79309C6.14524 6.90735 4.83079 5.76379 3.89036 4.7052C3.59251 5.36047 3.29173 6.12317 3.03489 6.97375C2.5261 8.65784 2.28294 10.3585 2.31223 12.0289C2.34934 14.0968 2.80833 16.1373 3.67747 18.0934C5.32102 21.7941 7.41965 24.9645 9.91673 27.5162C10.5144 28.1271 11.0808 28.6476 11.6003 29.0885ZM16.3044 34.1769C15.6013 34.1769 14.4499 33.5421 13.3572 32.8234C12.364 32.1715 6.19602 28.693 1.84934 18.9049C-2.49831 9.11633 3.74485 0.925415 3.74485 0.925415C3.74485 0.925415 5.05247 4.1261 8.81223 6.00354C9.79758 6.48645 12.282 7.58313 13.5466 8.68762C18.3161 12.8478 14.4275 17.3649 14.4275 17.3649C14.4275 17.3649 11.8484 21.1705 12.9656 26.6017C14.0847 32.0333 17.7644 33.0284 16.7868 34.0084C16.6706 34.1246 16.5056 34.1769 16.3044 34.1769Z" fill="white"/>
</svg>
