<svg width="29" height="27" viewBox="0 0 29 27" fill="none" xmlns="http://www.w3.org/2000/svg">
<path d="M15.9 1.35371L19 7.63372C19.1062 7.84878 19.2631 8.0348 19.4572 8.17574C19.6512 8.31668 19.8767 8.4083 20.114 8.44272L27.045 9.44971C27.3182 9.48952 27.5748 9.60494 27.7859 9.78293C27.9969 9.96093 28.1539 10.1944 28.2392 10.457C28.3245 10.7195 28.3347 11.0007 28.2686 11.2687C28.2024 11.5368 28.0627 11.781 27.865 11.9737L22.85 16.8617C22.6783 17.0293 22.5499 17.2361 22.4759 17.4643C22.4018 17.6925 22.3844 17.9353 22.425 18.1717L23.609 25.0717C23.6556 25.3438 23.6252 25.6236 23.5211 25.8793C23.4171 26.135 23.2436 26.3565 23.0202 26.5188C22.7969 26.6811 22.5326 26.7776 22.2573 26.7976C21.9819 26.8176 21.7065 26.7601 21.462 26.6317L15.262 23.3727C15.0497 23.2612 14.8134 23.2029 14.5735 23.2029C14.3337 23.2029 14.0974 23.2612 13.885 23.3727L7.68504 26.6317C7.44063 26.7601 7.16519 26.8176 6.88983 26.7976C6.61448 26.7776 6.3502 26.6811 6.12685 26.5188C5.90351 26.3565 5.73001 26.135 5.62596 25.8793C5.52191 25.6236 5.49145 25.3438 5.53804 25.0717L6.72204 18.1717C6.76269 17.9353 6.74524 17.6925 6.6712 17.4643C6.59717 17.2361 6.46876 17.0293 6.29704 16.8617L1.28204 11.9737C1.08442 11.781 0.944648 11.5368 0.878527 11.2687C0.812406 11.0007 0.822569 10.7195 0.90787 10.457C0.99317 10.1944 1.15021 9.96093 1.36123 9.78293C1.57226 9.60494 1.82886 9.48952 2.10204 9.44971L9.03304 8.44272C9.27041 8.4083 9.49584 8.31668 9.68992 8.17574C9.88399 8.0348 10.0409 7.84878 10.147 7.63372L13.247 1.35371C13.3691 1.10612 13.5581 0.897636 13.7925 0.751854C14.0269 0.606071 14.2975 0.528809 14.5735 0.528809C14.8496 0.528809 15.1202 0.606071 15.3546 0.751854C15.589 0.897636 15.778 1.10612 15.9 1.35371Z" fill="#FFC43B"/>
</svg>
