<svg xmlns="http://www.w3.org/2000/svg" width="50.002" height="50" viewBox="52.5 3660.5 50.002 50"><g data-name="Subtraction 390"><path d="M78.002 3711a24.933 24.933 0 0 1-17.679-7.323A24.916 24.916 0 0 1 53 3686c0-3.375.661-6.648 1.965-9.73a24.913 24.913 0 0 1 5.358-7.948 24.922 24.922 0 0 1 17.68-7.322 24.917 24.917 0 0 1 17.678 7.322A24.92 24.92 0 0 1 103 3686a24.92 24.92 0 0 1-7.322 17.677A24.928 24.928 0 0 1 78.002 3711Zm1.792-31.335c-.277 0-.537.107-.733.304l-10.927 10.914a2.754 2.754 0 0 0-.79 1.66l-.33 3.198c-.038.318.066.638.283.877.215.24.522.376.842.376.02 0 .041 0 .062-.002h.032l.028-.003 3.2-.33a2.776 2.776 0 0 0 1.66-.794l10.93-10.909c.4-.404.4-1.061 0-1.466l-3.524-3.521a1.028 1.028 0 0 0-.733-.304Zm5.813-4.798c-.943 0-1.829.367-2.495 1.033l-.917.92a.684.684 0 0 0-.203.49c0 .185.072.359.203.489l4.008 4.009a.697.697 0 0 0 .982-.005l.917-.915a3.509 3.509 0 0 0 1.032-2.494 3.5 3.5 0 0 0-1.035-2.494 3.5 3.5 0 0 0-2.492-1.033Z" fill="#95c12b" fill-rule="evenodd"/><path d="M78.002 3711a24.933 24.933 0 0 1-17.679-7.323A24.916 24.916 0 0 1 53 3686c0-3.375.661-6.648 1.965-9.73a24.913 24.913 0 0 1 5.358-7.948 24.922 24.922 0 0 1 17.68-7.322 24.917 24.917 0 0 1 17.678 7.322A24.92 24.92 0 0 1 103 3686a24.92 24.92 0 0 1-7.322 17.677A24.928 24.928 0 0 1 78.002 3711Zm1.792-31.335c-.277 0-.537.107-.733.304l-10.927 10.914a2.754 2.754 0 0 0-.79 1.66l-.33 3.198c-.038.318.066.638.283.877.215.24.522.376.842.376.02 0 .041 0 .062-.002h.032l.028-.003 3.2-.33a2.776 2.776 0 0 0 1.66-.794l10.93-10.909c.4-.404.4-1.061 0-1.466l-3.524-3.521a1.028 1.028 0 0 0-.733-.304Zm5.813-4.798c-.943 0-1.829.367-2.495 1.033l-.917.92a.684.684 0 0 0-.203.49c0 .185.072.359.203.489l4.008 4.009a.697.697 0 0 0 .982-.005l.917-.915a3.509 3.509 0 0 0 1.032-2.494 3.5 3.5 0 0 0-1.035-2.494 3.5 3.5 0 0 0-2.492-1.033Z" stroke-linejoin="round" stroke-linecap="round" stroke="rgba(0,0,0,0 )" fill="transparent"/></g></svg>