<svg xmlns="http://www.w3.org/2000/svg" width="71.151" height="67.507" viewBox="2288.256 1076.909 71.151 67.507"><g data-name="Multiple Layers (4)"><g data-name="Group 3"><g data-name="Group 2" transform="translate(2283.063 1072)" clip-path="url(&quot;#a&quot;)"><path d="M24.593 41.734c-9.27 0-16.815-7.16-16.815-15.959 0-8.798 7.545-15.957 16.815-15.957 9.277 0 16.822 7.16 16.822 15.957 0 8.8-7.545 15.959-16.822 15.959m0-29.466c-7.84 0-14.23 6.06-14.23 13.507 0 7.44 6.39 13.5 14.23 13.5 7.848 0 14.23-6.06 14.23-13.5 0-7.447-6.382-13.507-14.23-13.507" fill-rule="evenodd" data-name="Path 1"/><path d="m22.28 18.742-.764-2.347c.999-.297 2.03-.444 3.077-.444v2.459c-.789 0-1.563.11-2.312.332" fill-rule="evenodd" data-name="Path 2"/><path d="M16.838 25.776h-2.593c0-3.122 1.514-5.986 4.146-7.86l1.555 1.964c-1.976 1.401-3.108 3.557-3.108 5.896" fill-rule="evenodd" data-name="Path 3"/></g></g><g data-name="Group 9"><g data-name="Group 8" transform="translate(2283.063 1072)" clip-path="url(&quot;#b&quot;)"><path d="M42.703 23.318a6.652 6.652 0 0 1-4.357-1.602l1.74-1.815c.72.62 1.649.96 2.617.96 2.14 0 3.883-1.648 3.883-3.684 0-2.03-1.743-3.676-3.883-3.676-2.14 0-3.882 1.645-3.882 3.676 0 .125.01.25.024.368l-2.577.237c-.023-.2-.03-.398-.03-.598 0-3.388 2.904-6.14 6.465-6.14 3.57 0 6.468 2.752 6.468 6.14 0 3.38-2.899 6.134-6.468 6.134" fill-rule="evenodd" data-name="Path 6"/><path d="M12.957 47.867c-3.569 0-6.475-2.753-6.475-6.133 0-3.389 2.906-6.14 6.475-6.14.735 0 1.453.117 2.14.345l-.86 2.311a4.134 4.134 0 0 0-1.28-.206c-2.14 0-3.882 1.652-3.882 3.683 0 2.036 1.742 3.683 3.882 3.683s3.882-1.647 3.882-3.683a3.59 3.59 0 0 0-.915-2.37l1.977-1.58a5.95 5.95 0 0 1 1.522 3.95c0 3.387-2.905 6.14-6.466 6.14" fill-rule="evenodd" data-name="Path 7"/><path d="M36.238 47.867c-3.569 0-6.466-2.753-6.466-6.133 0-1.447.538-2.842 1.507-3.941l1.984 1.571a3.585 3.585 0 0 0-.907 2.37c0 2.03 1.742 3.683 3.882 3.683s3.882-1.654 3.882-3.683c0-2.03-1.743-3.683-3.882-3.683-.446 0-.874.066-1.28.207l-.867-2.319a6.814 6.814 0 0 1 2.147-.346c3.568 0 6.465 2.752 6.465 6.14 0 3.38-2.897 6.134-6.465 6.134" fill-rule="evenodd" data-name="Path 8"/><path d="M40.118 68.734c-3.568 0-6.465-2.754-6.465-6.134h2.583c0 2.03 1.743 3.677 3.882 3.677v2.457Z" fill-rule="evenodd" data-name="Path 9"/></g></g><g data-name="Group 15"><g data-name="Group 14" transform="translate(2343.375 1113.373)" clip-path="url(&quot;#c&quot;)"><path d="M8.266 15.76C3.985 15.76.5 12.26.5 7.965.5 3.667 3.985.167 8.266.167c4.281 0 7.766 3.5 7.766 7.797s-3.485 7.797-7.766 7.797m0-13.86c-3.328 0-6.036 2.72-6.036 6.063 0 3.343 2.708 6.063 6.036 6.063 3.328 0 6.042-2.72 6.042-6.063 0-3.343-2.714-6.062-6.042-6.062" fill-rule="evenodd" data-name="Path 12"/></g></g><g data-name="Group 17"><g data-name="Group 16" transform="translate(2283.063 1072)" clip-path="url(&quot;#d&quot;)"><path d="m37.963 33.282 1.203-2.17 18.368 9.182-1.202 2.177-18.369-9.189Z" fill-rule="evenodd" data-name="Path 13"/><path d="m48.655 57.087 7.2-4.222 1.359 2.082-7.2 4.221-1.36-2.081Z" fill-rule="evenodd" data-name="Path 14"/><path d="M60.814 4.91H63.4v2.45h-2.585V4.91z" fill-rule="evenodd" data-name="Rectangle 16"/><path d="M65.992 7.36h2.585v2.457h-2.585V7.359z" fill-rule="evenodd" data-name="Rectangle 17"/><path d="M53.051 12.269h2.593v2.457H53.05v-2.457z" fill-rule="evenodd" data-name="Rectangle 18"/><path d="M68.577 12.269h2.585v2.457h-2.585v-2.457z" fill-rule="evenodd" data-name="Rectangle 19"/><path d="M60.814 19.635H63.4v2.457h-2.585v-2.457z" fill-rule="evenodd" data-name="Rectangle 20"/><path d="M55.644 17.183h2.585v2.45h-2.585v-2.45z" fill-rule="evenodd" data-name="Rectangle 21"/><path d="M65.992 17.183h2.585v2.45h-2.585v-2.45z" fill-rule="evenodd" data-name="Rectangle 22"/><path d="M55.644 7.36h2.585v2.457h-2.585V7.359z" fill-rule="evenodd" data-name="Rectangle 23"/><path d="M12.957 55.233h2.585v2.45h-2.585v-2.45z" fill-rule="evenodd" data-name="Rectangle 24"/><path d="M18.126 57.685h2.585v2.457h-2.585v-2.457z" fill-rule="evenodd" data-name="Rectangle 25"/><path d="M5.193 62.6h2.585v2.45H5.193V62.6z" fill-rule="evenodd" data-name="Rectangle 26"/><path d="M20.712 62.6h2.593v2.45h-2.593V62.6z" fill-rule="evenodd" data-name="Rectangle 27"/><path d="M12.957 69.96h2.585v2.457h-2.585v-2.458z" fill-rule="evenodd" data-name="Rectangle 28"/><path d="M7.778 67.509h2.585v2.45H7.778v-2.45z" fill-rule="evenodd" data-name="Rectangle 29"/><path d="M18.126 67.509h2.585v2.45h-2.585v-2.45z" fill-rule="evenodd" data-name="Rectangle 30"/><path d="M7.778 57.685h2.585v2.457H7.778v-2.457z" fill-rule="evenodd" data-name="Rectangle 31"/></g></g></g><defs><clipPath id="a"><path d="M0 0h76.349v73.642H0V0z" data-name="Rectangle 9"/></clipPath><clipPath id="b"><path d="M0 0h76.349v73.642H0V0z" data-name="Rectangle 12"/></clipPath><clipPath id="c"><path d="M0 0h16.036v16H0V0z" data-name="Rectangle 15"/></clipPath><clipPath id="d"><path d="M0 0h76.349v73.642H0V0z" data-name="Rectangle 32"/></clipPath></defs></svg>