<svg xmlns="http://www.w3.org/2000/svg" width="26.687" height="32.024" viewBox="466 2106.627 26.687 32.024"><path d="M489.017 2106.627H469.67a3.672 3.672 0 0 0-3.669 3.67v24.684a3.672 3.672 0 0 0 3.67 3.67h19.347a3.672 3.672 0 0 0 3.67-3.67v-24.685a3.672 3.672 0 0 0-3.67-3.669Zm-19.014 11.675c0-.552.448-1 1-1h7.34c.552 0 1 .448 1 1v1.335a1.001 1.001 0 0 1-2.001 0v-.334h-1.668v5.337a1.001 1.001 0 0 1 0 2.002h-2.002a1.001 1.001 0 0 1 0-2.002v-5.337h-1.668v.334a1.001 1.001 0 0 1-2.001 0v-1.335Zm17.68 16.346h-16.68a1.001 1.001 0 0 1 0-2.002h16.68a1.001 1.001 0 0 1 0 2.002Zm0-4.003h-16.68a1.001 1.001 0 0 1 0-2.002h16.68a1.001 1.001 0 0 1 0 2.002Zm0-4.003h-4.67a1.001 1.001 0 0 1 0-2.002h4.67a1.001 1.001 0 0 1 0 2.002Zm0-3.67h-4.67a1.001 1.001 0 0 1 0-2.001h4.67a1.001 1.001 0 0 1 0 2.001Zm0-3.669h-4.67a1.001 1.001 0 0 1 0-2.001h4.67a1.001 1.001 0 0 1 0 2.001Z" fill-rule="evenodd" data-name="text-format"/></svg>