<svg xmlns="http://www.w3.org/2000/svg" width="61.875" height="80.833" viewBox="891.467 1068.405 61.875 80.833"><g data-name="Group 42"><g data-name="Group 29"><g data-name="Group 28" transform="translate(891.457 1068.405)" clip-path="url(&quot;#a&quot;)"><path d="M14.792 19.609a9.757 9.757 0 0 0 6.948-2.869 9.738 9.738 0 0 0 2.875-6.933 9.726 9.726 0 0 0-2.875-6.932A9.763 9.763 0 0 0 14.792 0a9.76 9.76 0 0 0-6.943 2.875 9.726 9.726 0 0 0-2.875 6.932 9.738 9.738 0 0 0 2.875 6.933 9.779 9.779 0 0 0 6.943 2.869m0-17.458c4.229 0 7.672 3.432 7.672 7.656 0 4.219-3.443 7.657-7.672 7.657-4.224 0-7.667-3.438-7.667-7.657 0-4.224 3.443-7.656 7.667-7.656" fill="#2e2d2c" fill-rule="evenodd" data-name="Path 25"/></g></g><g data-name="Group 31"><g data-name="Group 30" transform="translate(891.457 1068.405)" clip-path="url(&quot;#b&quot;)"><path d="M45.224 50.417a1.045 1.045 0 0 0-.458-.583 1.065 1.065 0 0 0-.724-.151c-.11.015-2.693.406-5.75 1.515-1.808.662-3.412 1.438-4.761 2.308-1.739 1.125-3.073 2.416-3.958 3.843-1.354 2.177-1.802 4.823-1.333 7.865.088.583.64.989 1.229.901.588-.094.995-.646.906-1.229-.391-2.521-.042-4.672 1.031-6.396 1.651-2.656 5.047-4.323 7.599-5.255a31.403 31.403 0 0 1 4.422-1.25c.245.922.63 2.593.844 4.51.297 2.698.302 6.474-1.349 9.13-1.292 2.078-3.573 3.479-6.776 4.157a19.81 19.81 0 0 1-2.74.364l1.657-2.661 4.02-1.006c.276-.067.516-.244.662-.489.146-.245.193-.531.12-.813a1.073 1.073 0 0 0-1.308-.781l-1.859.464 1.323-2.136 4.312-1.38a1.074 1.074 0 0 0 .698-1.354 1.08 1.08 0 0 0-1.359-.698l-1.891.609 2.323-3.734c.151-.25.203-.536.136-.818a1.1 1.1 0 0 0-.485-.672 1.034 1.034 0 0 0-.312-.13 1.172 1.172 0 0 0-.5-.005c-.281.068-.521.24-.672.484L29.922 71.688a1.082 1.082 0 0 0 .286 1.427c.021.016.042.026.058.042l.01.005a1.1 1.1 0 0 0 .781.135c.302-.062.552-.239.709-.495l.276-.458c.906.01 2.593-.047 4.505-.448 1.651-.344 3.135-.88 4.401-1.583 1.63-.906 2.911-2.104 3.807-3.552.891-1.427 1.459-3.193 1.698-5.245.188-1.599.172-3.375-.042-5.287-.359-3.223-1.151-5.708-1.187-5.812" fill="#2e2d2c" fill-rule="evenodd" data-name="Path 26"/></g></g><g data-name="Group 33"><g data-name="Group 32" transform="translate(891.457 1068.405)" clip-path="url(&quot;#c&quot;)"><path d="M43.635 77.505a17.072 17.072 0 0 1-6.312 1.193c-9.501 0-17.23-7.719-17.224-17.209 0-.588-.485-1.067-1.073-1.067h-3.334l3.334-5.761 4.26 7.365c.198.344.557.536.927.536.182 0 .365-.047.537-.14.51-.297.677-.974.38-1.485l-5.177-8.948a1.072 1.072 0 0 0-.927-.536c-.386 0-.74.203-.927.536l-5.188 8.969c-.224.38-.193.87.104 1.219.209.25.521.385.844.385h4.125a19.277 19.277 0 0 0 5.646 12.61 19.254 19.254 0 0 0 6.156 4.14 19.252 19.252 0 0 0 7.542 1.521 19.29 19.29 0 0 0 7.104-1.338c.573-.224.838-.886.578-1.443a1.084 1.084 0 0 0-1.375-.547" fill="#2e2d2c" fill-rule="evenodd" data-name="Path 27"/></g></g><g data-name="Group 35"><g data-name="Group 34" transform="translate(891.457 1068.405)" clip-path="url(&quot;#d&quot;)"><path d="M48.927 74.203c-.479.448-.807.719-1.339 1.109a1.067 1.067 0 0 0-.218 1.495c.208.287.531.432.859.432.224 0 .448-.067.636-.208.593-.437.989-.76 1.531-1.266a1.069 1.069 0 0 0 .047-1.51 1.077 1.077 0 0 0-1.516-.052" fill="#2e2d2c" fill-rule="evenodd" data-name="Path 28"/><path d="M26.219 45.651c-.458.318-.901.661-1.328 1.016a1.067 1.067 0 0 0 .687 1.89c.24 0 .49-.083.688-.25.38-.317.781-.625 1.182-.906a1.065 1.065 0 0 0 .261-1.49 1.065 1.065 0 0 0-1.49-.26" fill="#2e2d2c" fill-rule="evenodd" data-name="Path 29"/></g></g><g data-name="Group 37"><g data-name="Group 36" transform="translate(891.457 1068.405)" clip-path="url(&quot;#e&quot;)"><path d="M61.74 60.963a1.072 1.072 0 0 0-.927-.536h-4.146a19.039 19.039 0 0 0-1.495-6.459 19.293 19.293 0 0 0-4.151-6.151 19.27 19.27 0 0 0-6.156-4.14 19.23 19.23 0 0 0-7.542-1.521c-2.38 0-4.698.422-6.89 1.26a1.067 1.067 0 0 0-.594 1.432l.005.006c.235.515.828.755 1.36.557a17.059 17.059 0 0 1 6.125-1.12c9.5 0 17.229 7.719 17.229 17.208 0 .589.479 1.068 1.067 1.068h3.334l-3.334 5.761-4.26-7.365a1.074 1.074 0 0 0-1.464-.396c-.51.297-.687.953-.39 1.464l5.187 8.968a1.071 1.071 0 0 0 1.855 0l5.192-8.968a1.07 1.07 0 0 0-.005-1.068" fill="#2e2d2c" fill-rule="evenodd" data-name="Path 30"/></g></g><g data-name="Group 39"><g data-name="Group 38" transform="translate(891.457 1068.405)" clip-path="url(&quot;#f&quot;)"><path d="M22.88 35.531c-.599.016-1.062.521-1.062 1.12v6.161a1.099 1.099 0 1 0 2.197 0v-6.187a1.1 1.1 0 0 0-1.135-1.094" fill="#2e2d2c" fill-rule="evenodd" data-name="Path 31"/></g></g><g data-name="Group 41"><g data-name="Group 40" transform="translate(891.457 1068.405)" clip-path="url(&quot;#g&quot;)"><path d="M21.052 76.526a1.106 1.106 0 0 0-1.385.182 4.192 4.192 0 0 1-3.094 1.349h-4.151a4.214 4.214 0 0 1-4.219-4.005L7.177 53.411v-16.76c0-.599-.469-1.104-1.063-1.12a1.1 1.1 0 0 0-1.13 1.099v15.74l-.526-.031a2.409 2.409 0 0 1-2.25-2.396V28.307a5.608 5.608 0 0 1 5.615-5.604h13.359c3.099 0 5.615 2.51 5.615 5.604l-.005 12.031c0 .605.489 1.094 1.099 1.094.604 0 1.098-.489 1.098-1.094l.006-12.031a7.742 7.742 0 0 0-2.266-5.495l-.021-.02a7.773 7.773 0 0 0-5.526-2.287H7.896c-2.089 0-4.11.807-5.589 2.281A7.743 7.743 0 0 0 .01 28.307v21.636c0 2.51 2.047 4.573 4.563 4.593l.469.006.968 19.619a6.417 6.417 0 0 0 6.417 6.099h4.146a6.405 6.405 0 0 0 4.703-2.047 1.101 1.101 0 0 0-.224-1.687" fill="#2e2d2c" fill-rule="evenodd" data-name="Path 32"/></g></g></g><defs><clipPath id="a"><path d="M0 0h21.334v19.781H0V0z" data-name="Rectangle 37" transform="translate(3.745)"/></clipPath><clipPath id="b"><path d="M0 0h61.938v80.833H0V0z" data-name="Rectangle 38"/></clipPath><clipPath id="c"><path d="M0 0h34.666v30.386H0V0z" data-name="Rectangle 39" transform="translate(11.745 50.447)"/></clipPath><clipPath id="d"><path d="M0 0h61.938v80.833H0V0z" data-name="Rectangle 40"/></clipPath><clipPath id="e"><path d="M0 0h32.859v30.667H0V0z" data-name="Rectangle 41" transform="translate(29.078 41.114)"/></clipPath><clipPath id="f"><path d="M0 0h61.938v80.833H0V0z" data-name="Rectangle 42"/></clipPath><clipPath id="g"><path d="M0 0h29.078v61.052H0V0z" data-name="Rectangle 43" transform="translate(0 19.781)"/></clipPath></defs></svg>