<svg xmlns="http://www.w3.org/2000/svg" width="42.819" height="44.713" viewBox="575.033 3685.488 42.819 44.713"><g data-name="XMLID_50_"><path d="M616.77 3708.31c0-2.236 2.102-4.829 1.42-6.91-.688-2.101-3.929-2.951-5.231-4.74-1.289-1.77-1.094-5.118-2.905-6.43-1.749-1.265-4.854-.051-7.018-.75-2.164-.7-3.973-3.492-6.13-3.492-2.236 0-4.038 2.833-6.118 3.516-2.102.688-5.225-.522-7.013.78-1.771 1.288-1.58 4.623-2.89 6.438-1.266 1.745-4.51 2.59-5.21 4.752-.702 2.162 1.44 4.747 1.443 6.905 0 2.236-2.103 4.829-1.421 6.91.688 2.101 3.93 2.946 5.231 4.735 1.289 1.77 1.094 5.119 2.906 6.43 1.748 1.265 4.853.052 7.017.751 2.164.7 3.972 3.497 6.13 3.497 2.236 0 4.037-2.833 6.118-3.516 2.101-.688 5.224.522 7.013-.78 1.77-1.288 1.579-4.623 2.89-6.438 1.265-1.749 4.51-2.594 5.21-4.756.7-2.162-1.44-4.743-1.443-6.902Zm-10.032-4.095-11.046 10.356a3.689 3.689 0 0 1-5.179-.146l-3.44-3.61a1.79 1.79 0 1 1 2.594-2.468l3.44 3.61a.09.09 0 0 0 .14 0l11.042-10.356a1.789 1.789 0 0 1 2.448 2.61Z" fill="#fff" fill-rule="evenodd"/><path d="M616.77 3708.31c0-2.236 2.102-4.829 1.42-6.91-.688-2.101-3.929-2.951-5.231-4.74-1.289-1.77-1.094-5.118-2.905-6.43-1.749-1.265-4.854-.051-7.018-.75-2.164-.7-3.973-3.492-6.13-3.492-2.236 0-4.038 2.833-6.118 3.516-2.102.688-5.225-.522-7.013.78-1.771 1.288-1.58 4.623-2.89 6.438-1.266 1.745-4.51 2.59-5.21 4.752-.702 2.162 1.44 4.747 1.443 6.905 0 2.236-2.103 4.829-1.421 6.91.688 2.101 3.93 2.946 5.231 4.735 1.289 1.77 1.094 5.119 2.906 6.43 1.748 1.265 4.853.052 7.017.751 2.164.7 3.972 3.497 6.13 3.497 2.236 0 4.037-2.833 6.118-3.516 2.101-.688 5.224.522 7.013-.78 1.77-1.288 1.579-4.623 2.89-6.438 1.265-1.749 4.51-2.594 5.21-4.756.7-2.162-1.44-4.743-1.443-6.902Zm-10.032-4.095-11.046 10.356a3.689 3.689 0 0 1-5.179-.146l-3.44-3.61a1.79 1.79 0 1 1 2.594-2.468l3.44 3.61a.09.09 0 0 0 .14 0l11.042-10.356a1.789 1.789 0 0 1 2.448 2.61Z" stroke-linejoin="round" stroke-linecap="round" stroke="rgba(0,0,0,0 )" fill="transparent"/></g></svg>