<svg xmlns="http://www.w3.org/2000/svg" width="75.781" height="73" viewBox="1084.694 2725 75.781 73"><g data-name="Group 8050"><g data-name="Group 8075"><g data-name="Group 8074" transform="translate(1084.694 2725)" clip-path="url(&quot;#a&quot;)"><path d="M37.89 71.264c-19.906 0-36.097-15.596-36.097-34.764 0-19.176 16.191-34.773 36.098-34.773a37.831 37.831 0 0 1 6.17.504c2.521.422 5.001 1.1 7.37 2.025C65.131 9.605 73.978 22.26 73.978 36.5c0 19.168-16.191 34.764-36.088 34.764m31.257-55.403a37.613 37.613 0 0 0-7.481-7.785 38.27 38.27 0 0 0-9.56-5.423A38.895 38.895 0 0 0 44.36.53a38.937 38.937 0 0 0-5.646-.521C38.44 0 38.164 0 37.89 0c-5.123 0-10.082.958-14.75 2.869a37.918 37.918 0 0 0-12.047 7.819 37.014 37.014 0 0 0-4.624 5.405 35.292 35.292 0 0 0-3.493 6.198A35.015 35.015 0 0 0 0 36.501c0 4.926.995 9.702 2.977 14.207a35.585 35.585 0 0 0 3.493 6.2 36.592 36.592 0 0 0 4.624 5.397 38.293 38.293 0 0 0 5.603 4.463 39.199 39.199 0 0 0 6.444 3.364C27.809 72.033 32.768 73 37.89 73c5.114 0 10.072-.967 14.749-2.868 2.24-.918 4.41-2.05 6.435-3.364a37.847 37.847 0 0 0 5.603-4.463 36.528 36.528 0 0 0 4.624-5.398 36.19 36.19 0 0 0 3.501-6.199A35.18 35.18 0 0 0 75.781 36.5c0-7.414-2.3-14.547-6.633-20.639" fill="#2e2a2b" fill-rule="evenodd" data-name="Path 8902"/></g></g><g data-name="Group 8077"><g data-name="Group 8076" transform="translate(1084.694 2725)" clip-path="url(&quot;#b&quot;)"><path d="M16.139 14.745a.894.894 0 0 0-.601-.231.84.84 0 0 0-.608.247.803.803 0 0 0 .008 1.166l44.694 42.318c.164.158.378.24.601.24.232 0 .455-.09.618-.248a.802.802 0 0 0-.018-1.165L16.139 14.745Z" fill="#2e2a2b" fill-rule="evenodd" data-name="Path 8903"/><path d="M19.76 47.253a.96.96 0 0 0-1.321 0 3.602 3.602 0 0 0 0 5.232c.17.174.41.265.66.265.249 0 .489-.091.66-.265a.858.858 0 0 0 .276-.636.868.868 0 0 0-.275-.637 1.857 1.857 0 0 1 0-2.687.87.87 0 0 0 0-1.272" fill="#2e2a2b" fill-rule="evenodd" data-name="Path 8904"/><path d="M63.271 41.071c-.078 2.157-1.793 3.851-3.904 3.851-2.154 0-3.912-1.71-3.912-3.819 0-1.322.48-2.843 1.415-4.52.78-1.406 1.725-2.63 2.385-3.414l.103-.124.103.124c.679.81 1.648 2.075 2.437 3.488.953 1.694 1.415 3.174 1.373 4.414m-.643-6.762c-1.262-1.884-2.523-3.207-2.574-3.264a.945.945 0 0 0-.687-.29v-.132.132c-.257 0-.506.1-.686.282-.206.214-5.106 5.264-5.106 10.066 0 3.1 2.6 5.63 5.792 5.63a5.778 5.778 0 0 0 5.783-5.604c.06-1.935-.781-4.225-2.522-6.82" fill="#2e2a2b" fill-rule="evenodd" data-name="Path 8905"/><path d="m46.342 18.507 7.49 7.215-3.097 2.975-.086-.032a6.814 6.814 0 0 1-1.785-1.215 5.6 5.6 0 0 1-1.416-2.215A7.277 7.277 0 0 0 45.57 22.3a8.094 8.094 0 0 0-1.099-.885c-.18-.125-.36-.24-.549-.347l-.154-.083 2.574-2.48Zm.66-3.927a1.496 1.496 0 0 1 1.047-.42c.394 0 .772.148 1.047.42l8.675 8.349a1.398 1.398 0 0 1 0 2.016 1.502 1.502 0 0 1-1.056.422c-.395 0-.763-.15-1.047-.422l-8.666-8.347a1.374 1.374 0 0 1-.437-1.01c0-.38.154-.743.437-1.008M35.711 28.367c.248 0 .49-.09.66-.264l.095-.091.008.008 5.904-5.695.085.041a6.593 6.593 0 0 1 1.802 1.215 5.636 5.636 0 0 1 1.407 2.215 7.235 7.235 0 0 0 1.88 2.927c.334.322.703.62 1.097.884.18.124.361.24.55.347l.146.083-5.37 5.183a.878.878 0 0 0 0 1.28.934.934 0 0 0 .66.257c.248 0 .48-.091.66-.257l9.996-9.637.086.032c.42.182.867.273 1.338.273.884 0 1.751-.346 2.377-.941a3.157 3.157 0 0 0 0-4.57l-8.675-8.35a3.364 3.364 0 0 0-2.368-.95c-.893 0-1.742.339-2.367.95a3.172 3.172 0 0 0-.961 1.951c-.07.62.05 1.249.343 1.802l.05.083-3.594 3.463-6.47 6.224a.905.905 0 0 0-.275.636c0 .496.42.901.936.901" fill="#2e2a2b" fill-rule="evenodd" data-name="Path 8906"/><path d="M37.307 42.013a.94.94 0 0 0-.66.265L24.96 53.535a5.396 5.396 0 0 1-3.75 1.488 5.36 5.36 0 0 1-3.74-1.488 4.971 4.971 0 0 1 0-7.216l11.565-11.14a.875.875 0 0 0 .292-.646c0-.495-.42-.9-.935-.9a.948.948 0 0 0-.67.263l-11.575 11.15c-1.354 1.307-2.1 3.042-2.1 4.885 0 1.844.746 3.571 2.1 4.877a7.248 7.248 0 0 0 5.063 2.025c1.914 0 3.716-.719 5.072-2.025l11.685-11.257a.858.858 0 0 0 .275-.637c0-.239-.094-.47-.275-.636a.923.923 0 0 0-.66-.265" fill="#2e2a2b" fill-rule="evenodd" data-name="Path 8907"/></g></g></g><defs><clipPath id="a"><path d="M0 0h75.78v73H0V0z" data-name="Rectangle 3598"/></clipPath><clipPath id="b"><path d="M0 0h75.78v73H0V0z" data-name="Rectangle 3599"/></clipPath></defs></svg>