<svg xmlns="http://www.w3.org/2000/svg" width="70.887" height="70.887" viewBox="-2069.295 -2433 70.887 70.887"><g data-name="Multiple Layers (9)"><g data-name="Group 167522" transform="translate(-2374.866 -2748.988)" clip-path="url(&quot;#a&quot;)"><g data-name="Group 167521" clip-path="url(&quot;#b&quot;)"><path d="M305.57 315.988h70.887v70.887H305.57v-70.887Zm0 0" fill="#303030" fill-rule="evenodd" data-name="Path 47844"/></g></g><path d="M-2021.424-2389.836c.977 0 1.746-.766 1.746-1.676 0-.98-.769-1.746-1.746-1.746-.98 0-1.746.766-1.746 1.746 0 .91.766 1.676 1.746 1.676" fill="#fff" fill-rule="evenodd" data-name="Path 47847"/><path d="M-2045.998-2389.836c.973 0 1.742-.766 1.742-1.676 0-.98-.769-1.746-1.742-1.746-.98 0-1.746.766-1.746 1.746.066.91.836 1.676 1.746 1.676" fill="#fff" fill-rule="evenodd" data-name="Path 47848"/><path d="M-2025.963-2402.754a.682.682 0 0 0-.98 0 .681.681 0 0 0 0 .98l1.816 1.813a.676.676 0 0 0 .981 0 .678.678 0 0 0 0-.977l-1.817-1.816" fill="#fff" fill-rule="evenodd" data-name="Path 47849"/><path d="m-2041.463-2402.684-1.816 1.817a.675.675 0 0 0 0 .976.68.68 0 0 0 .98 0l1.813-1.816a.671.671 0 0 0 0-.977.672.672 0 0 0-.977 0" fill="#fff" fill-rule="evenodd" data-name="Path 47851"/><g data-name="Group 167524" transform="translate(-2375.166 -2752.086)" clip-path="url(&quot;#c&quot;)"><path d="M333.633 370.352c-.422 0-.699-.286-.699-.7a3.755 3.755 0 0 0-3.766-3.773 3.758 3.758 0 0 0-3.773 3.773c0 .414-.278.7-.7.7-.414 0-.699-.286-.699-.7a5.158 5.158 0 0 1 5.172-5.168 5.156 5.156 0 0 1 5.164 5.168.7.7 0 0 1-.699.7Zm-4.465-12.922c1.672 0 3.07 1.394 3.07 3.144a3.056 3.056 0 0 1-3.07 3.071c-1.68 0-3.145-1.395-3.145-3.071.071-1.75 1.465-3.144 3.145-3.144Zm0-3.418c-5.449 0-9.848 4.468-9.848 9.91a9.835 9.835 0 0 0 9.848 9.848 9.833 9.833 0 0 0 9.84-9.848c0-5.442-4.399-9.91-9.84-9.91" fill="#fff" fill-rule="evenodd" data-name="Path 47854"/></g><path d="M-2039.787-2404.012a14.22 14.22 0 0 1 2.023 3.426h3.352v-5.867l-2.164-2.168a.672.672 0 0 1 0-.977.677.677 0 0 1 .976 0l1.887 1.887 1.883-1.887a.682.682 0 0 1 .98 0c.278.278.278.7 0 .977l-2.168 2.168v5.867h3.422c.493-1.258 1.192-2.38 2.028-3.426 4.117-5.097.488-12.566-5.797-12.777-6.844-.277-10.684 7.613-6.422 12.777" fill="#fff" fill-rule="evenodd" data-name="Path 47858"/><g data-name="Group 167525" transform="translate(-2375.444 -2753.361)" clip-path="url(&quot;#d&quot;)"><path d="M358.207 370.352c-.414 0-.695-.286-.695-.7a3.758 3.758 0 0 0-3.77-3.773 3.76 3.76 0 0 0-3.773 3.773c0 .414-.344.7-.699.7-.415 0-.696-.286-.696-.7a5.157 5.157 0 0 1 5.168-5.168 5.153 5.153 0 0 1 5.164 5.168.7.7 0 0 1-.699.7Zm-4.465-12.922a3.127 3.127 0 0 1 3.141 3.144c0 1.742-1.395 3.071-3.141 3.071s-3.14-1.395-3.14-3.071a3.126 3.126 0 0 1 3.14-3.144Zm0-3.418c-5.445 0-9.847 4.468-9.847 9.91a9.837 9.837 0 0 0 9.847 9.848 9.834 9.834 0 0 0 9.844-9.848c0-5.442-4.398-9.91-9.844-9.91" fill="#fff" fill-rule="evenodd" data-name="Path 47859"/></g><path d="M-2029.939-2398.004v-1.187h-7.543v1.187c0 .766.558 1.465 1.324 1.606.211 1.187 1.191 2.093 2.445 2.093 1.258 0 2.305-.906 2.442-2.093a1.595 1.595 0 0 0 1.332-1.606" fill="#fff" fill-rule="evenodd" data-name="Path 47862"/></g><defs><clipPath id="b"><path d="M341.012 315.988c-19.574 0-35.442 15.867-35.442 35.442 0 19.574 15.868 35.445 35.442 35.445 19.574 0 35.445-15.871 35.445-35.445 0-19.575-15.871-35.442-35.445-35.442Zm0 0" data-name="Path 47845"/></clipPath><clipPath id="a"><path d="M305.57 315.988h70.887v70.887H305.57v-70.887Zm0 0" data-name="Path 47846"/></clipPath><clipPath id="c"><path d="M319.117 354H340v20h-20.883v-20Zm0 0" data-name="Path 47855"/></clipPath><clipPath id="d"><path d="M343.695 354h19.891v19.77h-19.891V354Zm0 0" data-name="Path 47860"/></clipPath></defs></svg>