<svg xmlns="http://www.w3.org/2000/svg" width="70.887" height="70.887" viewBox="-2289.515 -2562.555 70.887 70.887"><g data-name="Multiple Layers (2)"><g data-name="Group 167512" clip-path="url(&quot;#a&quot;)" transform="translate(-2421.292 -2878.542)"><g data-name="Group 167511" clip-path="url(&quot;#b&quot;)"><path d="M131.777 315.988h70.887v70.887h-70.887v-70.887Zm0 0" fill="#303030" fill-rule="evenodd" data-name="Path 47818"/></g></g><g data-name="Group 167513" clip-path="url(&quot;#c&quot;)" transform="translate(-2421.292 -2878.542)"><path d="m186.813 335.582-19.754-8.465a.78.78 0 0 0-.621 0l-19.754 8.465a.79.79 0 0 0-.477.723v15.972c0 5.879 2.012 11.254 5.816 15.555 3.665 4.141 8.848 6.977 14.59 7.977a.85.85 0 0 0 .27 0c5.742-1.004 10.922-3.836 14.59-7.977 3.804-4.301 5.816-9.676 5.816-15.555v-15.972a.79.79 0 0 0-.476-.723Zm-1.098 16.695c0 10.938-7.793 19.946-18.969 21.957-11.172-2.011-18.965-11.019-18.965-21.957v-15.453l18.965-8.129 18.969 8.129v15.453Zm-19.277-20.672-15.997 6.856a.79.79 0 0 0-.476.723v12.933c0 4.797 1.64 9.188 4.746 12.696 2.992 3.378 7.219 5.691 11.902 6.507a.748.748 0 0 0 .27 0c4.683-.816 8.91-3.129 11.902-6.507 3.106-3.508 4.746-7.899 4.746-12.696v-12.933a.79.79 0 0 0-.476-.723l-15.996-6.856a.788.788 0 0 0-.621 0Zm15.519 8.098v12.414c0 8.774-6.246 16.004-15.211 17.629-8.961-1.625-15.207-8.855-15.207-17.629v-12.414l15.207-6.519 15.211 6.519Zm-16.992-1.691c-.192.144-.363.273-.516.39-.601.453-.902.684-1.168.782-.265.093-.644.113-1.398.152-.192.008-.406.019-.645.031a2.956 2.956 0 0 0-2.73 2.293l-.145.629c-.168.738-.254 1.106-.394 1.352-.141.242-.418.5-.973 1.015-.141.129-.297.274-.473.438a2.958 2.958 0 0 0-.617 3.511c.11.215.203.403.293.575.344.672.52 1.011.567 1.289.05.277 0 .652-.094 1.402-.024.192-.051.402-.078.641a2.954 2.954 0 0 0 1.785 3.086c.219.093.414.179.59.254l.058.023-2.769 5.953a.778.778 0 0 0 .09.809.778.778 0 0 0 .757.297l3.04-.532 1.55 2.668a.784.784 0 0 0 .68.391h.035a.788.788 0 0 0 .676-.457l2.781-5.973c.418-.125.672-.187.879-.187.281 0 .645.113 1.367.336.075.019.149.043.227.066l1.988 4.621a.782.782 0 0 0 .723.477.794.794 0 0 0 .668-.371l1.629-2.621 3.019.617a.796.796 0 0 0 .77-.274.788.788 0 0 0 .109-.808l-2.254-5.235c.043-.015.082-.035.125-.054a2.953 2.953 0 0 0 1.785-3.086c-.031-.239-.054-.449-.082-.641-.093-.75-.14-1.125-.09-1.402.047-.278.223-.617.567-1.289.086-.172.183-.36.293-.575a2.954 2.954 0 0 0-.621-3.511 30.892 30.892 0 0 0-.469-.438c-.555-.515-.832-.773-.973-1.015-.14-.246-.226-.614-.394-1.352l-.145-.629a2.955 2.955 0 0 0-2.73-2.293c-.242-.012-.453-.023-.645-.031-.754-.039-1.133-.059-1.398-.152-.266-.098-.567-.329-1.172-.782-.152-.117-.32-.246-.512-.39a2.958 2.958 0 0 0-3.566 0Zm-2.668 24.965-1.067-1.84a.79.79 0 0 0-.816-.379l-2.094.367 2.082-4.477c.168.196.36.493.661.957.105.165.222.34.351.543a2.957 2.957 0 0 0 2.504 1.348l-1.621 3.481Zm10.828-3.278a.793.793 0 0 0-.828.356l-1.121 1.808-1.039-2.414a2.957 2.957 0 0 0 1.945-1.301c.129-.203.246-.378.348-.543.41-.632.617-.953.832-1.132.078-.067.172-.125.289-.188l1.656 3.84-2.082-.426Zm-5.031-20.043c1.457 1.102 1.617 1.16 3.441 1.25.188.008.399.02.633.032a1.38 1.38 0 0 1 1.289 1.082c.055.23.098.433.141.617.406 1.781.492 1.929 1.832 3.172.136.129.293.269.465.433a1.37 1.37 0 0 1 .289 1.653l-.286.566c-.835 1.625-.863 1.793-.636 3.605.023.188.051.399.078.633a1.374 1.374 0 0 1-.84 1.453l-.586.25c-1.684.707-1.812.817-2.805 2.352-.101.16-.214.336-.343.531a1.372 1.372 0 0 1-1.582.574c-.223-.066-.426-.129-.606-.183-.871-.27-1.351-.406-1.832-.406-.476 0-.957.136-1.828.406-.18.054-.383.117-.609.183a1.368 1.368 0 0 1-1.579-.574 36.215 36.215 0 0 1-.343-.531c-.992-1.535-1.121-1.645-2.805-2.352l-.586-.25a1.374 1.374 0 0 1-.84-1.453l.078-.633c.227-1.812.196-1.98-.636-3.605-.086-.168-.18-.356-.289-.566a1.375 1.375 0 0 1 .293-1.653c.171-.164.324-.304.464-.433 1.34-1.243 1.426-1.391 1.832-3.172.04-.184.086-.387.141-.617a1.38 1.38 0 0 1 1.289-1.082c.235-.012.445-.024.633-.032 1.824-.09 1.984-.148 3.441-1.25.149-.117.317-.242.504-.383a1.375 1.375 0 0 1 1.68 0c.191.141.359.266.508.383Zm-8.258 8.801c0 3.809 3.102 6.91 6.91 6.91 3.813 0 6.914-3.101 6.914-6.91a6.922 6.922 0 0 0-6.914-6.914c-3.808 0-6.91 3.102-6.91 6.914Zm12.25 0a5.345 5.345 0 0 1-5.34 5.336 5.344 5.344 0 0 1-5.336-5.336 5.345 5.345 0 0 1 5.336-5.34 5.345 5.345 0 0 1 5.34 5.34Zm-6.238.469 2.879-2.61a.781.781 0 0 1 1.109.055.781.781 0 0 1-.055 1.109l-3.429 3.114a.786.786 0 0 1-1.086-.024l-1.582-1.582a.791.791 0 0 1 0-1.113.784.784 0 0 1 1.113 0l1.051 1.051Zm0 0" fill="#fff" fill-rule="evenodd" data-name="Path 47821"/></g></g><defs><clipPath id="b"><path d="M167.219 315.988c-19.574 0-35.442 15.867-35.442 35.442 0 19.574 15.868 35.445 35.442 35.445 19.574 0 35.445-15.871 35.445-35.445 0-19.575-15.871-35.442-35.445-35.442Zm0 0" data-name="Path 47819"/></clipPath><clipPath id="a"><path d="M131.777 315.988h70.887v70.887h-70.887v-70.887Zm0 0" data-name="Path 47820"/></clipPath><clipPath id="c"><path d="M146.199 327.035h41.25v48.75h-41.25v-48.75Zm0 0" data-name="Path 47822"/></clipPath></defs></svg>