<svg xmlns="http://www.w3.org/2000/svg" width="30" height="30" viewBox="120.029 2513.825 30 30"><g data-name="Grupo 165719"><path d="M135.029 2513.825c8.284 0 15 6.716 15 15 0 8.284-6.716 15-15 15-8.284 0-15-6.716-15-15 0-8.284 6.716-15 15-15Z" fill-rule="evenodd" data-name="Retângulo 150701"/><g data-name="Grupo 165718"><g data-name="Elipse 1737"><path d="M136.96 2522.595c0 1.33-1.13 2.41-2.526 2.41s-2.527-1.08-2.527-2.41c0-1.331 1.131-2.41 2.527-2.41 1.395 0 2.526 1.079 2.526 2.41Z" stroke-linejoin="round" stroke-linecap="round" stroke-width="2" stroke="#fff" fill="transparent" data-name="Vector"/></g><g data-name="Caminho 43708"><path d="M139.645 2538.741c.324-.276.68-.603 1.053-.986 1.56-1.6 2.873-3.59 3.9-5.91a9.785 9.785 0 0 0 .853-3.804 10.349 10.349 0 0 0-.451-3.171 11.43 11.43 0 0 0-.535-1.423 8.36 8.36 0 0 1-2.519 1.937l-.007.004-.337.162c-.63.301-1.805.862-2.35 1.34-.854.747-1.184 1.535-1.011 2.407.138.698.546 1.223.589 1.276l.037.042.047.07c.078.114 1.898 2.869 1.102 6.75a8.87 8.87 0 0 1-.371 1.306Zm-2.94 3.192c-.125 0-.229-.033-.301-.106-.611-.615 1.689-1.239 2.387-4.646.7-3.406-.912-5.793-.912-5.793s-2.43-2.834.55-5.443c.79-.693 2.344-1.38 2.959-1.684 2.35-1.177 3.168-3.185 3.168-3.185s3.902 5.138 1.185 11.278c-2.718 6.139-6.573 8.32-7.194 8.73-.683.45-1.402.849-1.842.849Z" fill="#fff" fill-rule="evenodd" data-name="Vector"/></g><g data-name="Caminho 43709"><path d="M130.114 2538.741a8.145 8.145 0 0 1-.421-1.307c-.902-3.88 1.163-6.635 1.251-6.75l.036-.053.06-.058c.046-.051.51-.577.668-1.276.197-.872-.179-1.66-1.147-2.407-.62-.48-1.954-1.04-2.67-1.342-.144-.06-.27-.113-.378-.16l-.01-.004a9.422 9.422 0 0 1-2.855-1.937c-.212.411-.425.89-.607 1.423a9.232 9.232 0 0 0-.512 3.17c.026 1.298.351 2.578.968 3.805 1.165 2.32 2.653 4.31 4.423 5.91.424.383.825.71 1.194.986Zm3.335 3.192c-.499 0-1.315-.399-2.09-.85-.704-.408-5.077-2.59-8.158-8.73-3.083-6.14 1.343-11.277 1.343-11.277s.927 2.008 3.593 3.185c.699.303 2.46.991 3.356 1.684 3.382 2.61.625 5.443.625 5.443s-1.829 2.387-1.036 5.793c.793 3.407 3.402 4.031 2.709 4.646a.502.502 0 0 1-.342.106Z" fill="#fff" fill-rule="evenodd" data-name="Vector"/></g></g></g></svg>