<svg xmlns="http://www.w3.org/2000/svg" width="30.3" height="28.553" viewBox="464.211 1384.767 30.3 28.553"><g data-name="warning"><g data-name="Group 4638"><path d="m493.882 1406.616-10.704-19.676c-1.72-2.895-5.912-2.9-7.634 0l-10.703 19.676c-1.758 2.958.37 6.704 3.816 6.704h21.408c3.442 0 5.575-3.743 3.817-6.704Zm-14.52 3.153a1.778 1.778 0 0 1-1.776-1.775c0-.979.796-1.775 1.775-1.775.979 0 1.776.796 1.776 1.775 0 .979-.797 1.775-1.776 1.775Zm1.775-7.101c0 .978-.797 1.775-1.776 1.775a1.778 1.778 0 0 1-1.775-1.775v-8.877c0-.979.796-1.776 1.775-1.776.979 0 1.776.797 1.776 1.776v8.877Z" fill-rule="evenodd" data-name="Path 3224"/></g></g></svg>