<svg width="63" height="64" viewBox="0 0 63 64" fill="none" xmlns="http://www.w3.org/2000/svg">
<path d="M47.811 63.211C45.491 62.9301 43.2605 62.1451 41.276 60.911C38.321 59.2014 35.57 57.1613 33.076 54.83C30.2528 52.3394 27.9295 49.3343 26.23 45.975C25.3956 44.351 24.9282 42.5635 24.861 40.739C24.8512 39.1233 25.436 37.5604 26.504 36.348C27.867 34.8382 29.5686 33.673 31.469 32.948C33.3206 32.1604 35.2561 31.5874 37.238 31.24C38.972 30.928 40.725 30.671 42.496 30.487C44.029 30.303 45.581 30.248 47.261 30.138C48.886 30.267 50.638 30.338 52.354 30.579C54.5252 30.7726 56.596 31.582 58.323 32.912C59.4952 33.8873 60.3893 35.1546 60.915 36.586C61.9662 39.5139 62.3468 42.6404 62.029 45.735C61.8655 48.3671 61.318 50.9612 60.404 53.435C59.3923 56.5674 57.4659 59.3251 54.873 61.353C53.1727 62.6176 51.1049 63.2903 48.986 63.268C48.6 63.2693 48.2083 63.2503 47.811 63.211ZM6.937 58.526C4.61802 57.3327 2.66892 55.5288 1.3 53.309C0.573702 52.2689 0.149063 51.0483 0.073 49.782C0.073 49.727 0.018 49.672 0 49.617V49.1C0.073 48.677 0.146 48.273 0.256 47.869C0.746411 46.3097 1.68554 44.9295 2.956 43.901C4.95489 42.2087 7.19397 40.8226 9.6 39.788C10.878 39.2 12.174 38.631 13.488 38.171C15.3418 37.4351 17.3474 37.1639 19.33 37.381C20.2064 37.4561 21.0333 37.8196 21.6811 38.4148C22.3288 39.0099 22.761 39.803 22.91 40.67C23.2053 42.0966 23.1804 43.5711 22.837 44.987C22.0173 48.9539 20.3001 52.6805 17.817 55.881C16.7529 57.4027 15.2866 58.5985 13.582 59.335C13.1038 59.5033 12.6073 59.6144 12.103 59.666C11.813 59.7006 11.5211 59.718 11.229 59.718C9.72168 59.6823 8.24683 59.2727 6.937 58.526ZM15.316 35.911C13.216 35.544 11.116 35.158 9.036 34.643C7.37899 34.282 5.82895 33.5397 4.509 32.475C2.7 30.988 1.844 29.151 1.844 26.065C2.02128 24.0497 2.74034 22.1199 3.925 20.48C4.89857 18.9322 6.28353 17.6857 7.925 16.88C8.89244 16.3927 9.97966 16.1942 11.0569 16.308C12.1341 16.4219 13.1558 16.8433 14 17.522C15.5587 18.7454 16.8776 20.2466 17.89 21.95C19.2647 24.0829 20.4614 26.3255 21.468 28.655C22.0121 29.847 22.3279 31.1305 22.399 32.439C22.4813 33.2626 22.2394 34.0859 21.7247 34.7341C21.21 35.3824 20.4629 35.8045 19.642 35.911C18.9777 36.0523 18.3002 36.122 17.621 36.119C16.8483 36.1132 16.0774 36.043 15.316 35.911ZM26.16 32.219C25.354 32.0113 24.6149 31.5998 24.0138 31.024C23.4128 30.4481 22.97 29.7274 22.728 28.931C22.1602 27.1765 21.9066 25.3356 21.979 23.493C21.9718 18.6463 22.8762 13.8414 24.645 9.32897C25.5299 7.04353 26.8435 4.94828 28.515 3.15597C29.8998 1.64969 31.7176 0.609938 33.718 0.179971C35.2187 -0.0834853 36.7563 -0.0522372 38.245 0.271971C40.4965 0.733509 42.644 1.60536 44.58 2.84397C46.5381 4.00755 48.2098 5.59596 49.472 7.49197C50.3258 8.74082 50.8404 10.1902 50.9652 11.6978C51.09 13.2055 50.8208 14.7197 50.184 16.092C48.9631 18.8686 47.2147 21.3817 45.036 23.492C42.7034 25.9714 39.9694 28.0398 36.949 29.61C34.6934 30.8192 32.2781 31.7036 29.775 32.237C29.1487 32.3578 28.5128 32.4218 27.875 32.428C27.2968 32.4316 26.7204 32.3614 26.16 32.219Z" fill="white"/>
</svg>
