<svg xmlns="http://www.w3.org/2000/svg" width="209.027" height="162.485" viewBox="701.5 4827.606 209.027 162.485"><g data-name="undraw_workout_wqgp"><path d="M906.482 4870.852a50.962 50.962 0 0 0-8.29-13.21l-115.025-1.133 94.704-13.302a53.79 53.79 0 0 0-19.216-3.813c-18.604-14.87-44.766-15.755-64.333-2.177a53.624 53.624 0 0 0-24.617-5.932c-25.558 0-46.855 17.7-51.632 41.174l188.41-1.607Z" fill="#f2f2f2" fill-rule="evenodd" data-name="Path 46595"/><path d="M910.527 4890.538a49.72 49.72 0 0 0-3.585-18.58l-199.353 20.926a49.904 49.904 0 0 0-4.68 11.8l61.734 9.204-63.143 6.714c1.9 26.572 24.68 47.556 52.508 47.556 14.008 0 26.738-5.318 36.168-13.989 9.462 8.836 22.312 14.268 36.47 14.268 21.009 0 39.14-11.96 47.583-29.256 16.942-5.375 30.1-18.876 34.605-35.765l-78.06-12.117h79.753c-.004-.255 0-.507 0-.761Z" fill="#f2f2f2" fill-rule="evenodd" data-name="Path 46596"/><path d="M713.652 4982.47a46.183 7.57 0 1 1 0 .1z" fill="#95c12b" fill-rule="evenodd" data-name="Ellipse 1973"/><path d="M344.453 234.023c-2.077.521-4.21-.492-4.21-.492s-1.818-2.106-3.352-2.39c-1.534-.285-2.128 2.207-3.04 2.848-.63.45-5.18.128-7.934-.112l-.475-.043c-.046-.035-.093-.071-.144-.104 0 0-2.645-.814-3.196-1.534-.552-.72-4.236-2.053-5.38-1.975-1.143.077-4.522.26-4.522.26s-1.325-1.507-1.923-1.35c-.598.156-2.677-.013-2.677-.013s-.572-1.469-1.144-3.575c-.266-.982-1.153-1.672-2.022-2.126.781-2.644-.61-10.188-4.931-11.663-.942-.322-1.425-1.39-2.226-1.976-.718-.523-1.894-1.756-1.319-3.984.814-3.118 2.832-8.03 2.832-8.03l1.504-3.003c-.14.213-.3.413-.476.596.203-.26.407-.516.582-.732a12.64 12.64 0 0 0 4.813 1.327c1.697.685 3.392 1.29 4.051 1.267 1.508-.053 5.353 1.872 5.353 1.872s9.25 2.645 11.173 2.858c1.923.214 2.859-2.287 2.859-2.287s.999-4.93-.775-6.235c-1.774-1.306-2.806 4.68-2.806 4.68l-12.103-4.363-.747-.393a6.785 6.785 0 0 0 1.357-2.111c.187-.466.358-1 .804-1.231.12-.06.25-.098.382-.112a2.58 2.58 0 0 1 .332 0c2.1.128 3.904 1.78 6.008 1.788h.232a2.022 2.022 0 0 0 1.125-.346c.38-.309.613-.76.647-1.249-.03.066-.065.13-.102.191.055-.299.055-.606 0-.905-.13-.714-.502-1.355-.836-2a1.017 1.017 0 0 1-.155-.5.69.69 0 0 1 .263-.474l.012.057c.158-.15.335-.279.525-.385a4.488 4.488 0 0 0 1.961-2.989c-.05.15-.112.3-.177.446a4.417 4.417 0 0 0-.214-3.125 1.768 1.768 0 0 0-.54-.71c-.76-.533-1.779.034-2.705.095-.813.053-1.603-.31-2.337-.68-1.253-.628-2.5-1.307-3.544-2.237-1.186-1.064-2.067-2.421-3.138-3.6-1.07-1.177-2.443-2.227-4.036-2.345-2.895-.224-5.625 2.645-8.378 1.71-1.343-.455-2.226-1.696-3.16-2.762-.934-1.066-2.217-2.09-3.617-1.86-.973.164-1.815.918-2.8.89-.514-.016-.992-.246-1.48-.407-1.183-.397-2.802-.204-3.223.972a1.734 1.734 0 0 0 .152 1.46c-.062.087-.118.178-.167.274a.94.94 0 0 0-.1.61 6.287 6.287 0 0 0 2.483 10.726c.039.149.077.297.114.448.395 1.662.6 3.534.016 4.795a2.967 2.967 0 0 1-.118.226l-.05.022.022.023-.023-.023-.073-.075-.444-.464c-.024-.484-.297-1.782-2.193-4.191-2.496-3.172-2.964-8.42-2.964-8.42s-.623-2.703 0-3.482c.623-.78 1.664-9.359 1.664-9.359l1.721-4.83s8.368-8.524 4.883-9.562c-2.366-.706-5.188 2.932-6.754 5.337a9.515 9.515 0 0 0-1.457 3.914l-4.73 12.942s-.468 1.56 0 4.262c.468 2.702 1.507 7.485 1.507 7.485l2.645 6.704s.975 2.895.89 4.152c-.117.075-.524.881-.876 1.613l-.258.407-.018.165c-.173.368-.293.633-.293.633s-1.473 4.348-.242 7.015c1.23 2.667 1.28 3.904 1.28 3.904l.917 3.951.382 3.459 3.3 8.16 3.04 4.34s-.285 3.196-.91 3.637c-.624.442-.337 2.729-.337 2.729l-.39 6.002s-1.222 1.794-1.299 4.703c-.077 2.91-.52 3.744-.52 3.744s-.204 2.441.363 3.56c.568 1.12-.909 2.287-.909 2.287l1.268 4.352-.495 5.51s.23.062.61.158l-.077.395-2.067 10.437s-1.117 2.86-1.168 3.534l-3.613 6.524s-3.015 2.989-1.585 3.274c1.43.285 5.589-2.287 5.589-2.287s3.43-3.69 4.781-4.026c1.35-.336 2.848-1.302 2.417-2.704-.431-1.402-1.424-3.534-.468-5.797.61-1.424 1.908-5.29 2.8-7.987l.142-.43c.236-.02.469-.065.696-.131 2.183-.676 3.326-.204 3.326-.204l3.898-15.773.857-7.915 5.458 4.554c1.08.9 2.421 1.43 3.825 1.511 2.15.126 5.506.438 7.935 1.188l1.017-4.236s2.91.106 3.534-.883c.254-.406.505-.752.71-1.017l.472-.073 12.877-1.992c2.39 0 5.666-1.613 5.666-1.613l2.002-.389s2.986-.598 3.255-1.092c.268-.495-2.806-2.137-4.887-1.62Z" fill-rule="evenodd" fill="url(&quot;#a&quot;)" transform="translate(463.146 4699.78)" data-name="Path 46597"/><path d="M749.17 4870.272c.407-1.147 1.998-1.34 3.156-.952.476.159.946.384 1.448.407.965.028 1.789-.712 2.74-.869 1.37-.228 2.625.773 3.539 1.817.913 1.044 1.78 2.258 3.094 2.704 2.692.907 5.365-1.892 8.197-1.675 1.555.12 2.898 1.144 3.945 2.297 1.048 1.154 1.91 2.48 3.07 3.522 1.018.916 2.238 1.58 3.47 2.197.717.36 1.484.716 2.286.664.907-.06 1.904-.61 2.645-.094.233.183.415.422.529.696.911 1.896.177 4.42-1.607 5.536-.312.193-.69.407-.708.779a.98.98 0 0 0 .15.49c.326.63.692 1.26.814 1.957.122.698-.043 1.502-.61 1.925-.371.247-.811.367-1.256.344-2.059-.01-3.825-1.628-5.88-1.752-.262-.03-.529.01-.77.118-.436.226-.61.749-.788 1.205-.952 2.378-3.316 4.032-5.839 4.486-2.523.453-5.157-.185-7.416-1.398a1.75 1.75 0 0 1-.45-.31 1.923 1.923 0 0 1-.388-.787c-.692-2.187-1.627-4.476-3.544-5.739-1.243-.814-2.93-1.271-3.493-2.645-.354-.869-.133-1.855-.222-2.791a4.29 4.29 0 0 0-2.834-3.577c-.334-.112-.7-.191-.944-.445a1.758 1.758 0 0 1-.366-.865c-.303-1.377-.505-2.832-.928-4.177-.323-1.054-1.473-1.861-1.04-3.068Z" fill="#663d5b" fill-rule="evenodd" data-name="Path 46598"/><g data-name="Group 166212"><path d="M785.566 4891.04a2.08 2.08 0 0 1-1.256.336c-2.057 0-3.823-1.628-5.877-1.75-.263-.03-.53.01-.771.116-.438.226-.61.749-.788 1.205-.952 2.38-3.318 4.034-5.84 4.488-2.524.454-5.158-.185-7.415-1.398a1.768 1.768 0 0 1-.45-.31 1.935 1.935 0 0 1-.388-.786c-.692-2.19-1.627-4.476-3.544-5.742-1.245-.824-2.932-1.27-3.493-2.645-.356-.87-.134-1.857-.222-2.791a4.287 4.287 0 0 0-2.836-3.577c-.334-.112-.7-.193-.944-.445a1.743 1.743 0 0 1-.364-.867c-.305-1.375-.505-2.832-.928-4.175-.285-.899-1.182-1.627-1.137-2.588-.027.051-.05.103-.07.157-.435 1.207.717 2.014 1.044 3.052.423 1.343.623 2.8.928 4.175.04.316.166.616.364.866.244.253.61.334.944.446a4.287 4.287 0 0 1 2.836 3.579c.088.933-.134 1.92.222 2.79.562 1.382 2.248 1.832 3.493 2.646 1.913 1.267 2.849 3.552 3.544 5.741.068.289.2.558.389.787.133.126.285.23.45.31 2.256 1.22 4.882 1.85 7.413 1.397 2.531-.451 4.883-2.107 5.841-4.488.184-.455.352-.978.788-1.204.242-.107.508-.147.77-.116 2.056.124 3.822 1.741 5.879 1.75a2.08 2.08 0 0 0 1.255-.342c.372-.301.601-.744.635-1.22a1.512 1.512 0 0 1-.472.603Z" fill-rule="evenodd" data-name="Path 46599"/><path d="M785.92 4885.883c-.312.203-.692.407-.71.78a.62.62 0 0 0 .034.219 2.56 2.56 0 0 1 .513-.377 4.385 4.385 0 0 0 1.918-2.923c-.3.947-.921 1.76-1.755 2.3Z" fill-rule="evenodd" data-name="Path 46600"/></g><path d="M754.495 4970.722c-.942 2.213.026 4.297.457 5.672.432 1.375-1.041 2.313-2.364 2.645-1.322.331-4.679 3.94-4.679 3.94s-4.07 2.517-5.469 2.239c-1.4-.28 1.55-3.205 1.55-3.205l3.536-6.384c.051-.66 1.144-3.459 1.144-3.459l2.022-10.213.269-1.357 7.17-.433s-.377 1.163-.896 2.736c-.873 2.645-2.15 6.437-2.74 7.819Z" fill="#cc818c" fill-rule="evenodd" data-name="Path 46601"/><path d="M811.715 4935.022c-.254.485-3.178 1.068-3.178 1.068l-1.959.38s-3.204 1.58-5.544 1.58l-12.602 1.95-1.69.263v-7.149s.85.09 2.054.203c2.692.236 7.146.55 7.762.11.891-.635 1.475-3.076 2.975-2.795 1.499.28 3.281 2.34 3.281 2.34s2.086.99 4.12.482c2.035-.509 5.035 1.084 4.781 1.568Z" fill="#cc818c" fill-rule="evenodd" data-name="Path 46602"/><path d="M788.878 4939.447s-.181.204-.446.552l-1.69.262v-7.147s.85.09 2.054.203c2.023 1.597.082 6.13.082 6.13Z" fill-rule="evenodd" data-name="Path 46603"/><path d="m764.541 4937.795 6.769 5.648a6.425 6.425 0 0 0 3.743 1.48c2.104.123 5.388.426 7.772 1.163l.993-4.146s2.848.101 3.459-.865c.358-.57.757-1.115 1.194-1.628 0 0 2.06-4.805-.279-6.28 0 0-2.594-.79-3.129-1.502-.535-.712-4.144-2.008-5.263-1.932-1.12.075-4.425.254-4.425.254s-1.298-1.475-1.882-1.323c-.584.153-2.62 0-2.62 0s-.56-1.438-1.12-3.499c-.56-2.06-3.89-2.797-3.89-2.797l-1.322 15.427Z" fill="#565987" fill-rule="evenodd" data-name="Path 46604"/><path d="m764.541 4937.795 6.769 5.648a6.425 6.425 0 0 0 3.743 1.48c2.104.123 5.388.426 7.772 1.163l.993-4.146s2.848.101 3.459-.865c.358-.57.757-1.115 1.194-1.628 0 0 2.06-4.805-.279-6.28 0 0-2.594-.79-3.129-1.502-.535-.712-4.144-2.008-5.263-1.932-1.12.075-4.425.254-4.425.254s-1.298-1.475-1.882-1.323c-.584.153-2.62 0-2.62 0s-.56-1.438-1.12-3.499c-.56-2.06-3.89-2.797-3.89-2.797l-1.322 15.427Z" fill-rule="evenodd" data-name="Path 46605"/><path d="m761.514 4887.16-.749.14h-.047l-.11.021-1.281.238-.395.468-.016.016-1.268 1.502-1.068 1.048-.01.012-.903.879-1.528 1.52-.257.632-.557 1.402-.145.356-1.526 1.628-.974 2.085-2.279 1.323-2.451-1.272-1.12-1.628.255-2.331.05-.466.748-1.198.677-1.09 1.322-1.883 2.544-1.73.455-.12.511-.133c.039-.056.075-.114.108-.173.043-.072.082-.146.116-.222.571-1.233.37-3.066-.016-4.692a23.603 23.603 0 0 0-1.174-3.56l6.714-.966s-.066 1.302-.066 3.332c0 .509 0 1.06.015 1.65.032 1.831 1.733 2.625 3.017 2.962a8.451 8.451 0 0 0 1.408.25Z" fill="#cc818c" fill-rule="evenodd" data-name="Path 46606"/><path d="M750.934 4888.12s.305-1.22-2.136-4.322c-2.441-3.103-2.9-8.24-2.9-8.24s-.61-2.645 0-3.408c.611-.763 1.628-9.155 1.628-9.155l1.679-4.73s8.189-8.342 4.781-9.36c-2.315-.691-5.086 2.871-6.61 5.223a9.308 9.308 0 0 0-1.424 3.831l-4.63 12.665s-.459 1.526 0 4.17c.457 2.646 1.474 7.325 1.474 7.325l2.594 6.567s1.365 4.09.657 4.588l1.581-2.337 3.306-2.816Z" fill="#cc818c" fill-rule="evenodd" data-name="Path 46607"/><path d="M791.472 4899.825s-.916 2.442-2.798 2.238c-1.882-.203-10.935-2.797-10.935-2.797s-3.764-1.882-5.239-1.831c-1.475.05-8.24-3.103-8.24-3.103s-.476.627-1.007 1.286c-.578.722-1.22 1.485-1.383 1.512-.305.05-5.036.712-5.036.712l-3.204-1.475-.305-1.329-.145-.61.71-.792.934-1.04 1.752-1.997.01-.012 2.338-2.541.016-.017 1.497-.61.29-.118h.046c.18-.03.867-.094 1.788.427a5.127 5.127 0 0 0 2.09.647 6.535 6.535 0 0 1 3.933 1.685l7.527 3.96 11.851 4.273s1.018-5.849 2.747-4.577c1.73 1.271.763 6.11.763 6.11Z" fill="#cc818c" fill-rule="evenodd" data-name="Path 46608"/><path d="M763.253 4895.618c-.578.722-1.22 1.485-1.383 1.512-.305.05-5.036.712-5.036.712l-3.204-1.475-.305-1.329-.145.356-1.526 1.628-.974 2.085-2.279 1.323-2.451-1.272-1.12-1.628.255-2.331c.128-.277.478-1.03.798-1.664.15-.35.34-.682.565-.99.204-.133.417-1.576.417-1.576.924-2.663 4.018-3.072 4.018-3.072l.495.464.215.224c-.087-.015.017-.204-.095-.173-.18.05-.259.321-.488.47-1.252.814-3.207 2.712-3.98 3.613-.187.218-.38.431-.578.639-1.117 1.182-.911 2.748-.911 2.748-.279 1.221 2.187 2.137 2.187 2.137.688-1.144 5.34-4.297 5.34-4.297l3.134-3.51c.96-1.672 2.848-2.777 3.902-3.294.466-.227.77-.341.77-.341l1.173.5a1.563 1.563 0 0 0-.938.04 3.205 3.205 0 0 0-.682.302c-.32.186-.621.403-.899.649l-2.633 2.875c-2.012 2.195-.496 5.745 2.48 5.796h.027c1.819.42 3.123-.423 3.851-1.121Z" fill-rule="evenodd" data-name="Path 46609"/><path d="M758.13 4960.173s-.376 1.164-.895 2.736c-1.99.149-5.275-.62-6.543-.946l.269-1.357 7.17-.433Z" fill-rule="evenodd" data-name="Path 46610"/><path d="m751.595 4888.585-.65-.668s-2.35.322-3.81 2.832c0 0-.68 1.882-.89 2.017-.21.134-1.414 2.765-1.414 2.765s-1.44 4.254-.238 6.866 1.255 3.815 1.255 3.815l.9 3.865.372 3.39 3.23 7.985 2.975 4.238s-.279 3.127-.89 3.56c-.61.434-.33 2.67-.33 2.67l-.381 5.875s-1.197 1.754-1.272 4.602c-.075 2.849-.509 3.663-.509 3.663s-.203 2.39.356 3.485c.56 1.094-.89 2.238-.89 2.238l1.247 4.246-.485 5.391s5.748 1.603 7.884.942 3.255-.203 3.255-.203l3.815-15.444 1.322-12.13s.078-8.596 1.221-11.216c.98-2.238-.305-10.212-4.722-11.717-.922-.313-1.39-1.36-2.177-1.933-.704-.51-1.853-1.717-1.29-3.898.79-3.052 2.773-7.857 2.773-7.857l1.47-2.926s-1.598 2.584-4.522 1.923h-.026c-2.976-.053-4.492-3.603-2.48-5.797l2.633-2.876s1.45-1.337 2.518-1l-1.17-.5s-3.293 1.22-4.679 3.636l-3.133 3.51s-4.649 3.139-5.337 4.29c0 0-2.465-.915-2.187-2.136 0 0-.203-1.569.912-2.75.203-.204.39-.42.578-.637 1.003-1.172 3.776-4.281 4.766-4.116Z" fill="#565987" fill-rule="evenodd" data-name="Path 46611"/><path d="M751.978 4909.54s-.739 5.367-.18 6.46l.18-6.46Z" fill-rule="evenodd" data-name="Path 46612"/><path d="m752.46 4911.625.79 3.079s.278-1.882-.79-3.079Z" fill-rule="evenodd" data-name="Path 46613"/><path d="M747.78 4910.907s1.578 7.833 3.307 10.2" fill-rule="evenodd" data-name="Path 46614"/><path d="M758.895 4920.35s-2.695 2.543-3.74 2.357c0 0 4.147.18 5.443-2.008 0 .006-.838-.604-1.703-.35Z" fill-rule="evenodd" data-name="Path 46615"/><path d="M762.633 4920.146s-3.459 2.517-4.145 2.747c0 0 3.738-1.069 4.145-2.747Z" fill-rule="evenodd" data-name="Path 46616"/><path d="M750.934 4901.453s-1.73 2.213-2.594 1.96c0 0 2.112.074 2.594-1.96Z" fill-rule="evenodd" data-name="Path 46617"/><path d="M752.893 4904.301s3.764-5.11 5.544-4.907c0 0-4.272 3.713-5.544 4.907Z" fill-rule="evenodd" data-name="Path 46618"/><path d="M758.106 4902.442s-2.39 1.198-2.136 1.548c.254.35 2.136-1.548 2.136-1.548Z" fill-rule="evenodd" data-name="Path 46619"/><path d="M759.835 4941.685s-7.985 4.655-8.722 4.883c0 0 1.374 1.044 2.67.535 1.296-.508 6.052-5.418 6.052-5.418Z" fill-rule="evenodd" data-name="Path 46620"/><path d="M753.148 4951.376s-3.205-.332-3.078.712c.126 1.043 3.078-.712 3.078-.712Z" fill-rule="evenodd" data-name="Path 46621"/><path d="M757.14 4878.966s-.066 1.302-.066 3.332a6.16 6.16 0 0 1-5.474 1.192 23.601 23.601 0 0 0-1.174-3.56l6.713-.964Z" fill-rule="evenodd" data-name="Path 46622"/><path d="M747.018 4877.043a6.154 6.154 0 1 1 0 .1z" fill="#cc818c" fill-rule="evenodd" data-name="Ellipse 1974"/><path d="M754.786 4880.898c.172 2.517.701 5.396 2.887 6.661 1.578.914 3.568.674 5.316.153 1.747-.52 3.458-1.298 5.277-1.386 1.398-.067 2.78.277 4.173.365 1.394.087 2.92-.13 3.914-1.111 1.425-1.396 1.164-3.933-.185-5.4-1.349-1.467-3.458-2-5.456-1.945-2.442.067-5.168.814-7.099-.667-1.296-.997-1.786-2.726-2.876-3.945-1.821-2.035-9.874-4.972-11.579-1.656-.8 1.552 2.834 2.661 3.676 3.784 1.331 1.772 1.793 2.824 1.952 5.147Z" fill-rule="evenodd" data-name="Path 46623"/><path d="M754.975 4880.68c.175 2.52.702 5.398 2.887 6.662 1.578.913 3.568.673 5.316.154 1.748-.519 3.459-1.298 5.28-1.385 1.395-.067 2.777.274 4.172.364 1.396.09 2.918-.13 3.913-1.11 1.424-1.399 1.163-3.934-.186-5.4-1.348-1.467-3.458-2-5.454-1.945-2.441.065-5.17.813-7.1-.67-1.296-.997-1.787-2.724-2.877-3.945-1.821-2.034-9.874-4.97-11.579-1.654-.8 1.55 2.834 2.66 3.679 3.784 1.328 1.77 1.79 2.82 1.949 5.146Z" fill="#663d5b" fill-rule="evenodd" data-name="Path 46624"/><path d="M747.573 4898.017a5.684 5.684 0 0 1 2.42-4.016" fill-rule="evenodd" data-name="Path 46625"/><path d="M770.649 4929.885c-.02.2-.068.395-.145.58a18.5 18.5 0 0 1-.96 2.334c.543-.047.99-.474 1.22-.967a4.68 4.68 0 0 0 .328-1.589c.02-.17.025-.341.014-.512-.014-.16-.116-.765-.378-.658-.212.09-.075.651-.08.812Z" fill-rule="evenodd" data-name="Path 46626"/><path d="M776.909 4884.727c-.997.98-2.519 1.2-3.915 1.111-1.395-.09-2.783-.431-4.172-.362-1.831.087-3.528.865-5.278 1.385-1.75.521-3.737.761-5.318-.152-2.183-1.266-2.712-4.144-2.885-6.661-.159-2.324-.623-3.375-1.951-5.147-.804-1.073-4.14-2.13-3.758-3.571-.11.13-.206.272-.285.423-.8 1.55 2.834 2.66 3.679 3.784 1.328 1.77 1.79 2.824 1.949 5.146.175 2.518.702 5.397 2.887 6.66 1.579.914 3.568.674 5.316.155 1.748-.519 3.459-1.298 5.28-1.385 1.395-.067 2.777.274 4.172.364 1.396.09 2.918-.13 3.913-1.11.282-.281.507-.614.66-.982-.089.122-.187.236-.294.342Z" fill-rule="evenodd" data-name="Path 46627"/><path d="m747.132 4903.227-.747 1.628 2.374-.474-1.627-1.154Z" fill="#cc818c" fill-rule="evenodd" data-name="Path 46628"/><path d="m747.132 4903.227-.615 1.628h-.132l.747-1.628Z" fill-rule="evenodd" data-name="Path 46629"/><path d="M797.543 4975.857a8.341 1.145 0 1 1 0 .1z" fill="#95c12b" fill-rule="evenodd" data-name="Ellipse 1975"/><path d="M829.495 4979.095a8.341 1.145 0 1 1 0 .1z" fill="#95c12b" fill-rule="evenodd" data-name="Ellipse 1976"/><path d="M867.131 4974.711a8.341 1.145 0 1 1 0 .1z" fill="#95c12b" fill-rule="evenodd" data-name="Ellipse 1977"/><path d="M819.119 4988.32a5.929.814 0 1 1 0 .1z" fill="#95c12b" fill-rule="evenodd" data-name="Ellipse 1978"/><path d="M852.281 4987.506a5.929.814 0 1 1 0 .1z" fill="#95c12b" fill-rule="evenodd" data-name="Ellipse 1979"/><path d="M838.017 4978.94s-11.698-38.351 1.831-53.712c10.12-11.49 21.609-10.115 26.754-8.695a9.503 9.503 0 0 1 6.136 5.1c1.799 3.882 1.475 10.173-11.222 17.532-21.26 12.308-22.583 29.195-22.583 29.195l-.916 10.58Z" fill="#95c12b" fill-rule="evenodd" data-name="Path 46630"/><path d="M864.77 4921.973s-34.484 10.783-26.753 56.966" stroke-linejoin="round" stroke-linecap="round" stroke="#565987" fill="transparent" data-name="Path 46631"/><path d="M844.63 4925.839s4.746 3.2 3.238 8.007" stroke-linejoin="round" stroke-linecap="round" stroke="#565987" fill="transparent" data-name="Path 46632"/><path d="M861.312 4928.687s-2.903-2.954-6.437-1.325" stroke-linejoin="round" stroke-linecap="round" stroke="#565987" fill="transparent" data-name="Path 46633"/><path d="M847.681 4943.539s-5.098-2.588-6.417.653" stroke-linejoin="round" stroke-linecap="round" stroke="#565987" fill="transparent" data-name="Path 46634"/><path d="M835.067 4948.93s3.827-.305 3.896 1.526" stroke-linejoin="round" stroke-linecap="round" stroke="#565987" fill="transparent" data-name="Path 46635"/><path d="M837.553 4979.244s13.7-27.872 17.465-27.262c1.788.289 2.612 2.049 2.984 3.815a11.21 11.21 0 0 1-.757 6.787c-1.943 4.457-7.165 12.927-19.692 16.66Z" fill="#95c12b" fill-rule="evenodd" data-name="Path 46636"/><path d="M854.906 4957.272s-14.38 20.853-17.16 21.769" stroke-linejoin="round" stroke-linecap="round" stroke="#565987" fill="transparent" data-name="Path 46637"/><path d="M856.228 4960.527h0" stroke-linejoin="round" stroke-linecap="round" stroke="#565987" fill="transparent" data-name="Line 1"/><path d="M852.208 4968.156v.226" stroke-linejoin="round" stroke-linecap="round" stroke="#565987" fill="transparent" data-name="Line 2"/><path d="m849.006 4962.053.571 2.74" stroke-linejoin="round" stroke-linecap="round" stroke="#565987" fill="transparent" data-name="Line 3"/><path d="m843.41 4970.394.102 2.49" stroke-linejoin="round" stroke-linecap="round" stroke="#565987" fill="transparent" data-name="Line 4"/><path d="M837.96 4979.244s-13.7-27.872-17.464-27.262c-1.788.289-2.612 2.049-2.985 3.815a11.21 11.21 0 0 0 .737 6.787c1.943 4.457 7.166 12.927 19.712 16.66Z" fill="#95c12b" fill-rule="evenodd" data-name="Path 46638"/><path d="M820.588 4957.272s14.38 20.853 17.159 21.769" stroke-linejoin="round" stroke-linecap="round" stroke="#565987" fill="transparent" data-name="Path 46639"/><path d="M819.263 4960.527h3.357" stroke-linejoin="round" stroke-linecap="round" stroke="#565987" fill="transparent" data-name="Line 5"/><path d="m823.285 4968.156 5.262.226" stroke-linejoin="round" stroke-linecap="round" stroke="#565987" fill="transparent" data-name="Line 6"/><path d="M826.486 4962.053v2.74" stroke-linejoin="round" stroke-linecap="round" stroke="#565987" fill="transparent" data-name="Line 7"/><path d="M832.08 4970.394v2.49" stroke-linejoin="round" stroke-linecap="round" stroke="#565987" fill="transparent" data-name="Line 8"/><path d="M861.475 4985.753c.374-.304.647-.714.781-1.176.1-.468-.1-1.028-.545-1.199-.5-.19-1.035.155-1.44.505s-.871.75-1.402.675a2.13 2.13 0 0 0 .657-1.995.814.814 0 0 0-.183-.407c-.277-.297-.781-.17-1.115.065-1.058.744-1.353 2.18-1.357 3.475-.108-.468-.018-.954-.02-1.424-.002-.47-.135-1.018-.537-1.266a1.628 1.628 0 0 0-.814-.203c-.476-.017-1.005.03-1.33.378-.408.431-.3 1.158.052 1.628s.885.773 1.375 1.102c.396.234.733.555.985.938.03.053.055.11.073.167h2.98a8.293 8.293 0 0 0 1.84-1.263Z" fill="#95c12b" fill-rule="evenodd" data-name="Path 46640"/><path d="M809.274 4974.528c.373-.304.645-.715.779-1.178.102-.468-.098-1.017-.545-1.198-.5-.191-1.034.155-1.44.507-.408.352-.872.748-1.4.675a2.136 2.136 0 0 0 .653-2.002.83.83 0 0 0-.184-.407c-.278-.297-.78-.17-1.114.063-1.058.745-1.353 2.181-1.36 3.475-.105-.466-.016-.952-.018-1.424-.002-.472-.134-1.017-.539-1.267a1.61 1.61 0 0 0-.814-.192c-.474-.018-1.005.029-1.328.377-.407.433-.3 1.157.05 1.627s.886.773 1.378 1.103c.394.235.73.555.983.938a.84.84 0 0 1 .073.169h2.982a8.365 8.365 0 0 0 1.844-1.266Z" fill="#95c12b" fill-rule="evenodd" data-name="Path 46641"/><path d="M826.667 4985.753c.374-.304.646-.714.781-1.176.1-.468-.1-1.028-.545-1.199-.5-.19-1.036.155-1.44.505-.406.35-.871.75-1.402.675a2.13 2.13 0 0 0 .659-1.995.814.814 0 0 0-.183-.407c-.277-.297-.782-.17-1.115.065-1.058.744-1.353 2.18-1.357 3.475-.108-.468-.019-.954-.02-1.424-.003-.47-.135-1.018-.538-1.266a1.628 1.628 0 0 0-.814-.203c-.476-.017-1.005.03-1.33.378-.407.431-.3 1.158.053 1.628.352.47.885.773 1.375 1.102.395.234.732.555.985.938.03.053.054.11.073.167h2.98a8.296 8.296 0 0 0 1.838-1.263Z" fill="#95c12b" fill-rule="evenodd" data-name="Path 46642"/><path d="M876.005 4963.062s1.12 1.46-.514 3.662c-1.634 2.201-2.98 4.069-2.442 5.444 0 0 2.466-4.097 4.476-4.154 2.01-.057.696-2.488-1.52-4.952Z" fill="#95c12b" fill-rule="evenodd" data-name="Path 46643"/><path d="M876.005 4963.062c.098.14.175.295.228.458 1.96 2.299 3.001 4.445 1.12 4.5-1.752.049-3.854 3.184-4.359 3.975.017.061.037.12.06.18 0 0 2.465-4.098 4.475-4.155 2.01-.057.692-2.494-1.524-4.958Z" fill-rule="evenodd" data-name="Path 46644"/><path d="M878.09 4964.923c0 .515-.056.932-.127.932-.072 0-.126-.423-.126-.932 0-.508.07-.27.142-.27.071 0 .112-.238.112.27Z" fill="#ffd037" fill-rule="evenodd" data-name="Path 46645"/><path d="M878.805 4965.538c-.452.246-.846.395-.879.334-.033-.062.303-.314.755-.56.452-.246.275-.067.307 0 .033.067.273-.02-.183.226Z" fill="#ffd037" fill-rule="evenodd" data-name="Path 46646"/><path d="M870.105 4963.062s-1.118 1.46.515 3.662c1.634 2.201 2.98 4.069 2.442 5.444 0 0-2.464-4.097-4.476-4.154-2.012-.057-.682-2.488 1.52-4.952Z" fill="#95c12b" fill-rule="evenodd" data-name="Path 46647"/><path d="M870.105 4963.062c-.098.14-.175.295-.23.458-1.957 2.299-2.998 4.445-1.118 4.5 1.753.049 3.865 3.184 4.36 3.975-.017.061-.037.121-.062.18 0 0-2.463-4.098-4.475-4.155-2.013-.057-.676-2.494 1.525-4.958Z" fill-rule="evenodd" data-name="Path 46648"/><path d="M868.032 4964.923c0 .515.06.932.13.932.072 0 .129-.417.129-.932 0-.514-.071-.27-.143-.27-.07 0-.116-.238-.116.27Z" fill="#ffd037" fill-rule="evenodd" data-name="Path 46649"/><path d="M867.32 4965.538c.452.246.844.395.88.334.034-.062-.304-.314-.756-.56-.451-.246-.274-.067-.309 0-.035.067-.266-.02.185.226Z" fill="#ffd037" fill-rule="evenodd" data-name="Path 46650"/><path d="M868.388 4971.983s3.125-.095 4.07-.767c.943-.671 4.807-1.47 5.04-.394.235 1.076 4.696 5.348 1.169 5.377-3.528.028-8.197-.55-9.137-1.123-.94-.574-1.142-3.093-1.142-3.093Z" fill="#a8a8a8" fill-rule="evenodd" data-name="Path 46651"/><path d="M878.728 4975.824c-3.528.029-8.2-.549-9.14-1.123-.713-.435-1-2-1.094-2.722h-.106s.204 2.52 1.14 3.093c.936.571 5.609 1.151 9.137 1.123 1.017 0 1.369-.37 1.35-.908-.144.328-.53.531-1.287.537Z" fill-rule="evenodd" data-name="Path 46652"/></g><defs><linearGradient x1=".5" y1="1" x2=".5" y2="0" id="a"><stop stop-color="rgba(128,128,128,0.25 )" offset="0"/><stop stop-color="rgba(128,128,128,0.12 )" offset=".54"/><stop stop-color="rgba(128,128,128,0.1 )" offset="1"/></linearGradient></defs></svg>