<svg width="33" height="33" viewBox="0 0 33 33" fill="none" xmlns="http://www.w3.org/2000/svg">
<path d="M24.98 32.8181C23.7686 32.6735 22.6033 32.2667 21.565 31.6261C20.0228 30.7391 18.5863 29.68 17.283 28.4691C15.8091 27.1771 14.595 25.6159 13.706 23.8691C13.2704 23.0268 13.0262 22.0987 12.991 21.1511C12.986 20.3113 13.2916 19.4993 13.849 18.8711C14.5624 18.0865 15.4513 17.4817 16.443 17.1061C17.4108 16.6971 18.4219 16.3995 19.457 16.2191C20.363 16.0571 21.279 15.9191 22.204 15.8281C23.004 15.7281 23.816 15.7041 24.693 15.6471C25.542 15.7141 26.458 15.7471 27.354 15.8761C28.4875 15.9759 29.5692 16.3959 30.473 17.0871C31.0857 17.5939 31.5533 18.2539 31.828 19.0001C32.3771 20.5195 32.576 22.1432 32.41 23.7501C32.3247 25.1179 32.0387 26.4656 31.561 27.7501C31.0308 29.3788 30.024 30.8109 28.671 31.8611C27.781 32.5182 26.7011 32.8671 25.595 32.8551C25.393 32.8511 25.188 32.8388 24.98 32.8181ZM3.624 30.3861C2.41333 29.7683 1.39435 28.8316 0.677 27.6771C0.298568 27.1377 0.0773502 26.5038 0.038 25.8461C0.038 25.8171 0.009 25.7891 0 25.7601V25.4931C0.038 25.2741 0.076 25.0641 0.134 24.8541C0.391369 24.0433 0.882606 23.3266 1.546 22.7941C2.59148 21.9143 3.76151 21.1941 5.018 20.6571C5.686 20.3521 6.363 20.0571 7.05 19.8181C8.01907 19.4361 9.06647 19.2954 10.102 19.4081C10.5583 19.4463 10.9892 19.6344 11.3273 19.9432C11.6654 20.252 11.8917 20.6641 11.971 21.1151C12.1253 21.8556 12.1123 22.6213 11.933 23.3561C11.5038 25.4176 10.6064 27.3528 9.31 29.0121C8.75352 29.8031 7.98847 30.4241 7.1 30.8061C6.84998 30.8936 6.59053 30.9513 6.327 30.9781C6.17424 30.9946 6.02063 31.0019 5.867 31.0001C5.08016 30.9834 4.30966 30.7725 3.624 30.3861ZM8 18.6451C6.9 18.4541 5.806 18.2541 4.719 17.9871C3.85421 17.8002 3.04462 17.4151 2.354 16.8621C1.86731 16.4633 1.48596 15.9511 1.24343 15.3705C1.0009 14.7899 0.904604 14.1586 0.963 13.5321C1.05578 12.4848 1.43151 11.4824 2.05 10.6321C2.55996 9.82744 3.28356 9.18035 4.14 8.76311C4.64632 8.5102 5.21446 8.40753 5.77727 8.46725C6.34008 8.52697 6.87403 8.74658 7.316 9.10012C8.12954 9.73474 8.81849 10.5146 9.348 11.4001C10.0658 12.507 10.691 13.6713 11.217 14.8811C11.5011 15.4997 11.666 16.1664 11.703 16.8461C11.7444 17.2745 11.6171 17.7022 11.3482 18.0383C11.0793 18.3744 10.69 18.5924 10.263 18.6461C9.91583 18.7195 9.56183 18.7557 9.207 18.7541C8.80237 18.7508 8.39869 18.7143 8 18.6451ZM13.666 16.7281C13.2458 16.6212 12.8602 16.4081 12.5462 16.1091C12.2323 15.8102 12.0004 15.4355 11.873 15.0211C11.5765 14.1107 11.4441 13.1548 11.482 12.1981C11.4784 9.68087 11.951 7.18566 12.875 4.84412C13.3386 3.65818 14.025 2.57196 14.897 1.64412C15.6218 0.858701 16.572 0.316904 17.617 0.0931156C18.4011 -0.0435409 19.2041 -0.0272415 19.982 0.141116C21.1576 0.380302 22.2794 0.832766 23.292 1.47612C24.3138 2.07906 25.1873 2.90366 25.848 3.88912C26.2938 4.5362 26.5626 5.28858 26.6279 6.07163C26.6931 6.85467 26.5525 7.64117 26.22 8.35312C25.5816 9.79792 24.6679 11.1046 23.53 12.2001C22.3081 13.4877 20.8781 14.5604 19.3 15.3731C18.1208 16.0012 16.8591 16.4604 15.552 16.7371C15.2247 16.8002 14.8923 16.8336 14.559 16.8371C14.2586 16.8384 13.9592 16.8018 13.668 16.7281H13.666Z" fill="#95C12B"/>
</svg>
